<?xml version="1.0" encoding="utf-8" standalone="no"?>
<!DOCTYPE svg PUBLIC "-//W3C//DTD SVG 1.1//EN"
  "http://www.w3.org/Graphics/SVG/1.1/DTD/svg11.dtd">
<svg xmlns:xlink="http://www.w3.org/1999/xlink" width="386.795392pt" height="241.197195pt" viewBox="0 0 386.795392 241.197195" xmlns="http://www.w3.org/2000/svg" version="1.1">
 <metadata>
  <rdf:RDF xmlns:dc="http://purl.org/dc/elements/1.1/" xmlns:cc="http://creativecommons.org/ns#" xmlns:rdf="http://www.w3.org/1999/02/22-rdf-syntax-ns#">
   <cc:Work>
    <dc:type rdf:resource="http://purl.org/dc/dcmitype/StillImage"/>
    <dc:date>2026-04-20T12:30:43.678333</dc:date>
    <dc:format>image/svg+xml</dc:format>
    <dc:creator>
     <cc:Agent>
      <dc:title>Matplotlib v3.10.8, https://matplotlib.org/</dc:title>
     </cc:Agent>
    </dc:creator>
   </cc:Work>
  </rdf:RDF>
 </metadata>
 <defs>
  <style type="text/css">*{stroke-linejoin: round; stroke-linecap: butt}</style>
 </defs>
 <g id="figure_1">
  <g id="patch_1">
   <path d="M 0 241.197195 
L 386.795392 241.197195 
L 386.795392 0 
L 0 0 
L 0 241.197195 
z
" style="fill: none"/>
  </g>
  <g id="axes_1">
   <g id="patch_2">
    <path d="M 46.965625 203.640945 
L 376.493184 203.640945 
L 376.493184 7.2 
L 46.965625 7.2 
L 46.965625 203.640945 
z
" style="fill: none"/>
   </g>
   <g id="PathCollection_1">
    <defs>
     <path id="C0_0_44e0be8f68" d="M 0 2.5 
C 0.663008 2.5 1.29895 2.236584 1.767767 1.767767 
C 2.236584 1.29895 2.5 0.663008 2.5 -0 
C 2.5 -0.663008 2.236584 -1.29895 1.767767 -1.767767 
C 1.29895 -2.236584 0.663008 -2.5 0 -2.5 
C -0.663008 -2.5 -1.29895 -2.236584 -1.767767 -1.767767 
C -2.236584 -1.29895 -2.5 -0.663008 -2.5 0 
C -2.5 0.663008 -2.236584 1.29895 -1.767767 1.767767 
C -1.29895 2.236584 -0.663008 2.5 0 2.5 
z
"/>
    </defs>
    <g clip-path="url(#pa9eaf25064)">
     <use xlink:href="#C0_0_44e0be8f68" x="100.74862" y="173.946383" style="fill: none; stroke: #ff0000; stroke-opacity: 0.5"/>
    </g>
    <g clip-path="url(#pa9eaf25064)">
     <use xlink:href="#C0_0_44e0be8f68" x="104.629067" y="158.718403" style="fill: none; stroke: #ff0000; stroke-opacity: 0.5"/>
    </g>
    <g clip-path="url(#pa9eaf25064)">
     <use xlink:href="#C0_0_44e0be8f68" x="107.733425" y="33.848965" style="fill: none; stroke: #ff0000; stroke-opacity: 0.5"/>
    </g>
    <g clip-path="url(#pa9eaf25064)">
     <use xlink:href="#C0_0_44e0be8f68" x="108.509514" y="143.490423" style="fill: none; stroke: #ff0000; stroke-opacity: 0.5"/>
    </g>
    <g clip-path="url(#pa9eaf25064)">
     <use xlink:href="#C0_0_44e0be8f68" x="110.837783" y="100.852078" style="fill: none; stroke: #ff0000; stroke-opacity: 0.5"/>
    </g>
    <g clip-path="url(#pa9eaf25064)">
     <use xlink:href="#C0_0_44e0be8f68" x="112.389961" y="106.94327" style="fill: none; stroke: #ff0000; stroke-opacity: 0.5"/>
    </g>
    <g clip-path="url(#pa9eaf25064)">
     <use xlink:href="#C0_0_44e0be8f68" x="118.598677" y="77.248709" style="fill: none; stroke: #ff0000; stroke-opacity: 0.5"/>
    </g>
    <g clip-path="url(#pa9eaf25064)">
     <use xlink:href="#C0_0_44e0be8f68" x="118.598677" y="53.64534" style="fill: none; stroke: #ff0000; stroke-opacity: 0.5"/>
    </g>
    <g clip-path="url(#pa9eaf25064)">
     <use xlink:href="#C0_0_44e0be8f68" x="119.374766" y="132.069438" style="fill: none; stroke: #ff0000; stroke-opacity: 0.5"/>
    </g>
    <g clip-path="url(#pa9eaf25064)">
     <use xlink:href="#C0_0_44e0be8f68" x="122.479124" y="58.213734" style="fill: none; stroke: #ff0000; stroke-opacity: 0.5"/>
    </g>
    <g clip-path="url(#pa9eaf25064)">
     <use xlink:href="#C0_0_44e0be8f68" x="125.583481" y="67.350522" style="fill: none; stroke: #ff0000; stroke-opacity: 0.5"/>
    </g>
    <g clip-path="url(#pa9eaf25064)">
     <use xlink:href="#C0_0_44e0be8f68" x="127.13566" y="177.753379" style="fill: none; stroke: #ff0000; stroke-opacity: 0.5"/>
    </g>
    <g clip-path="url(#pa9eaf25064)">
     <use xlink:href="#C0_0_44e0be8f68" x="129.463928" y="144.251822" style="fill: none; stroke: #ff0000; stroke-opacity: 0.5"/>
    </g>
    <g clip-path="url(#pa9eaf25064)">
     <use xlink:href="#C0_0_44e0be8f68" x="131.792196" y="25.473576" style="fill: none; stroke: #ff0000; stroke-opacity: 0.5"/>
    </g>
    <g clip-path="url(#pa9eaf25064)">
     <use xlink:href="#C0_0_44e0be8f68" x="134.896554" y="189.935763" style="fill: none; stroke: #ff0000; stroke-opacity: 0.5"/>
    </g>
    <g clip-path="url(#pa9eaf25064)">
     <use xlink:href="#C0_0_44e0be8f68" x="135.672643" y="69.634719" style="fill: none; stroke: #ff0000; stroke-opacity: 0.5"/>
    </g>
    <g clip-path="url(#pa9eaf25064)">
     <use xlink:href="#C0_0_44e0be8f68" x="138.000912" y="196.788354" style="fill: none; stroke: #ff0000; stroke-opacity: 0.5"/>
    </g>
    <g clip-path="url(#pa9eaf25064)">
     <use xlink:href="#C0_0_44e0be8f68" x="141.881359" y="30.803369" style="fill: none; stroke: #ff0000; stroke-opacity: 0.5"/>
    </g>
    <g clip-path="url(#pa9eaf25064)">
     <use xlink:href="#C0_0_44e0be8f68" x="142.657448" y="65.827724" style="fill: none; stroke: #ff0000; stroke-opacity: 0.5"/>
    </g>
    <g clip-path="url(#pa9eaf25064)">
     <use xlink:href="#C0_0_44e0be8f68" x="143.433537" y="199.072551" style="fill: none; stroke: #ff0000; stroke-opacity: 0.5"/>
    </g>
    <g clip-path="url(#pa9eaf25064)">
     <use xlink:href="#C0_0_44e0be8f68" x="143.433537" y="96.283684" style="fill: none; stroke: #ff0000; stroke-opacity: 0.5"/>
    </g>
    <g clip-path="url(#pa9eaf25064)">
     <use xlink:href="#C0_0_44e0be8f68" x="144.985716" y="49.076946" style="fill: none; stroke: #ff0000; stroke-opacity: 0.5"/>
    </g>
    <g clip-path="url(#pa9eaf25064)">
     <use xlink:href="#C0_0_44e0be8f68" x="146.537895" y="50.599744" style="fill: none; stroke: #ff0000; stroke-opacity: 0.5"/>
    </g>
    <g clip-path="url(#pa9eaf25064)">
     <use xlink:href="#C0_0_44e0be8f68" x="151.970521" y="162.525398" style="fill: none; stroke: #ff0000; stroke-opacity: 0.5"/>
    </g>
    <g clip-path="url(#pa9eaf25064)">
     <use xlink:href="#C0_0_44e0be8f68" x="151.970521" y="67.350522" style="fill: none; stroke: #ff0000; stroke-opacity: 0.5"/>
    </g>
    <g clip-path="url(#pa9eaf25064)">
     <use xlink:href="#C0_0_44e0be8f68" x="154.298789" y="21.666581" style="fill: none; stroke: #ff0000; stroke-opacity: 0.5"/>
    </g>
    <g clip-path="url(#pa9eaf25064)">
     <use xlink:href="#C0_0_44e0be8f68" x="158.955325" y="170.900787" style="fill: none; stroke: #ff0000; stroke-opacity: 0.5"/>
    </g>
    <g clip-path="url(#pa9eaf25064)">
     <use xlink:href="#C0_0_44e0be8f68" x="159.731415" y="171.662186" style="fill: none; stroke: #ff0000; stroke-opacity: 0.5"/>
    </g>
    <g clip-path="url(#pa9eaf25064)">
     <use xlink:href="#C0_0_44e0be8f68" x="165.164041" y="71.918916" style="fill: none; stroke: #ff0000; stroke-opacity: 0.5"/>
    </g>
    <g clip-path="url(#pa9eaf25064)">
     <use xlink:href="#C0_0_44e0be8f68" x="165.94013" y="186.890167" style="fill: none; stroke: #ff0000; stroke-opacity: 0.5"/>
    </g>
    <g clip-path="url(#pa9eaf25064)">
     <use xlink:href="#C0_0_44e0be8f68" x="166.716219" y="112.273064" style="fill: none; stroke: #ff0000; stroke-opacity: 0.5"/>
    </g>
    <g clip-path="url(#pa9eaf25064)">
     <use xlink:href="#C0_0_44e0be8f68" x="169.820577" y="105.420472" style="fill: none; stroke: #ff0000; stroke-opacity: 0.5"/>
    </g>
    <g clip-path="url(#pa9eaf25064)">
     <use xlink:href="#C0_0_44e0be8f68" x="171.372756" y="186.128768" style="fill: none; stroke: #ff0000; stroke-opacity: 0.5"/>
    </g>
    <g clip-path="url(#pa9eaf25064)">
     <use xlink:href="#C0_0_44e0be8f68" x="176.029292" y="49.838345" style="fill: none; stroke: #ff0000; stroke-opacity: 0.5"/>
    </g>
    <g clip-path="url(#pa9eaf25064)">
     <use xlink:href="#C0_0_44e0be8f68" x="184.566276" y="122.171251" style="fill: none; stroke: #ff0000; stroke-opacity: 0.5"/>
    </g>
    <g clip-path="url(#pa9eaf25064)">
     <use xlink:href="#C0_0_44e0be8f68" x="185.342365" y="157.195605" style="fill: none; stroke: #ff0000; stroke-opacity: 0.5"/>
    </g>
    <g clip-path="url(#pa9eaf25064)">
     <use xlink:href="#C0_0_44e0be8f68" x="186.118454" y="112.273064" style="fill: none; stroke: #ff0000; stroke-opacity: 0.5"/>
    </g>
    <g clip-path="url(#pa9eaf25064)">
     <use xlink:href="#C0_0_44e0be8f68" x="189.222812" y="54.406739" style="fill: none; stroke: #ff0000; stroke-opacity: 0.5"/>
    </g>
    <g clip-path="url(#pa9eaf25064)">
     <use xlink:href="#C0_0_44e0be8f68" x="194.655438" y="142.729024" style="fill: none; stroke: #ff0000; stroke-opacity: 0.5"/>
    </g>
    <g clip-path="url(#pa9eaf25064)">
     <use xlink:href="#C0_0_44e0be8f68" x="194.655438" y="20.905182" style="fill: none; stroke: #ff0000; stroke-opacity: 0.5"/>
    </g>
    <g clip-path="url(#pa9eaf25064)">
     <use xlink:href="#C0_0_44e0be8f68" x="195.431527" y="200.595349" style="fill: none; stroke: #ff0000; stroke-opacity: 0.5"/>
    </g>
    <g clip-path="url(#pa9eaf25064)">
     <use xlink:href="#C0_0_44e0be8f68" x="197.759795" y="192.21996" style="fill: none; stroke: #ff0000; stroke-opacity: 0.5"/>
    </g>
    <g clip-path="url(#pa9eaf25064)">
     <use xlink:href="#C0_0_44e0be8f68" x="200.088064" y="59.736532" style="fill: none; stroke: #ff0000; stroke-opacity: 0.5"/>
    </g>
    <g clip-path="url(#pa9eaf25064)">
     <use xlink:href="#C0_0_44e0be8f68" x="204.7446" y="133.592236" style="fill: none; stroke: #ff0000; stroke-opacity: 0.5"/>
    </g>
    <g clip-path="url(#pa9eaf25064)">
     <use xlink:href="#C0_0_44e0be8f68" x="206.296779" y="75.725911" style="fill: none; stroke: #ff0000; stroke-opacity: 0.5"/>
    </g>
    <g clip-path="url(#pa9eaf25064)">
     <use xlink:href="#C0_0_44e0be8f68" x="210.953315" y="157.195605" style="fill: none; stroke: #ff0000; stroke-opacity: 0.5"/>
    </g>
    <g clip-path="url(#pa9eaf25064)">
     <use xlink:href="#C0_0_44e0be8f68" x="215.609852" y="135.115034" style="fill: none; stroke: #ff0000; stroke-opacity: 0.5"/>
    </g>
    <g clip-path="url(#pa9eaf25064)">
     <use xlink:href="#C0_0_44e0be8f68" x="221.042477" y="27.757773" style="fill: none; stroke: #ff0000; stroke-opacity: 0.5"/>
    </g>
    <g clip-path="url(#pa9eaf25064)">
     <use xlink:href="#C0_0_44e0be8f68" x="227.251193" y="200.595349" style="fill: none; stroke: #ff0000; stroke-opacity: 0.5"/>
    </g>
    <g clip-path="url(#pa9eaf25064)">
     <use xlink:href="#C0_0_44e0be8f68" x="228.027282" y="106.94327" style="fill: none; stroke: #ff0000; stroke-opacity: 0.5"/>
    </g>
    <g clip-path="url(#pa9eaf25064)">
     <use xlink:href="#C0_0_44e0be8f68" x="234.235997" y="51.361143" style="fill: none; stroke: #ff0000; stroke-opacity: 0.5"/>
    </g>
    <g clip-path="url(#pa9eaf25064)">
     <use xlink:href="#C0_0_44e0be8f68" x="240.444712" y="18.620985" style="fill: none; stroke: #ff0000; stroke-opacity: 0.5"/>
    </g>
    <g clip-path="url(#pa9eaf25064)">
     <use xlink:href="#C0_0_44e0be8f68" x="245.101249" y="181.560374" style="fill: none; stroke: #ff0000; stroke-opacity: 0.5"/>
    </g>
    <g clip-path="url(#pa9eaf25064)">
     <use xlink:href="#C0_0_44e0be8f68" x="248.981696" y="147.297418" style="fill: none; stroke: #ff0000; stroke-opacity: 0.5"/>
    </g>
    <g clip-path="url(#pa9eaf25064)">
     <use xlink:href="#C0_0_44e0be8f68" x="258.294769" y="93.999487" style="fill: none; stroke: #ff0000; stroke-opacity: 0.5"/>
    </g>
    <g clip-path="url(#pa9eaf25064)">
     <use xlink:href="#C0_0_44e0be8f68" x="259.846947" y="72.680315" style="fill: none; stroke: #ff0000; stroke-opacity: 0.5"/>
    </g>
    <g clip-path="url(#pa9eaf25064)">
     <use xlink:href="#C0_0_44e0be8f68" x="262.175215" y="58.975133" style="fill: none; stroke: #ff0000; stroke-opacity: 0.5"/>
    </g>
    <g clip-path="url(#pa9eaf25064)">
     <use xlink:href="#C0_0_44e0be8f68" x="265.279573" y="21.666581" style="fill: none; stroke: #ff0000; stroke-opacity: 0.5"/>
    </g>
    <g clip-path="url(#pa9eaf25064)">
     <use xlink:href="#C0_0_44e0be8f68" x="268.383931" y="155.672807" style="fill: none; stroke: #ff0000; stroke-opacity: 0.5"/>
    </g>
    <g clip-path="url(#pa9eaf25064)">
     <use xlink:href="#C0_0_44e0be8f68" x="273.040467" y="114.557261" style="fill: none; stroke: #ff0000; stroke-opacity: 0.5"/>
    </g>
    <g clip-path="url(#pa9eaf25064)">
     <use xlink:href="#C0_0_44e0be8f68" x="278.473093" y="36.133162" style="fill: none; stroke: #ff0000; stroke-opacity: 0.5"/>
    </g>
    <g clip-path="url(#pa9eaf25064)">
     <use xlink:href="#C0_0_44e0be8f68" x="280.801361" y="109.227467" style="fill: none; stroke: #ff0000; stroke-opacity: 0.5"/>
    </g>
    <g clip-path="url(#pa9eaf25064)">
     <use xlink:href="#C0_0_44e0be8f68" x="289.338344" y="118.364256" style="fill: none; stroke: #ff0000; stroke-opacity: 0.5"/>
    </g>
    <g clip-path="url(#pa9eaf25064)">
     <use xlink:href="#C0_0_44e0be8f68" x="290.890523" y="20.143783" style="fill: none; stroke: #ff0000; stroke-opacity: 0.5"/>
    </g>
    <g clip-path="url(#pa9eaf25064)">
     <use xlink:href="#C0_0_44e0be8f68" x="294.77097" y="42.224355" style="fill: none; stroke: #ff0000; stroke-opacity: 0.5"/>
    </g>
    <g clip-path="url(#pa9eaf25064)">
     <use xlink:href="#C0_0_44e0be8f68" x="298.651417" y="93.999487" style="fill: none; stroke: #ff0000; stroke-opacity: 0.5"/>
    </g>
    <g clip-path="url(#pa9eaf25064)">
     <use xlink:href="#C0_0_44e0be8f68" x="303.307954" y="10.245596" style="fill: none; stroke: #ff0000; stroke-opacity: 0.5"/>
    </g>
    <g clip-path="url(#pa9eaf25064)">
     <use xlink:href="#C0_0_44e0be8f68" x="304.860132" y="183.083172" style="fill: none; stroke: #ff0000; stroke-opacity: 0.5"/>
    </g>
    <g clip-path="url(#pa9eaf25064)">
     <use xlink:href="#C0_0_44e0be8f68" x="305.636222" y="196.026955" style="fill: none; stroke: #ff0000; stroke-opacity: 0.5"/>
    </g>
    <g clip-path="url(#pa9eaf25064)">
     <use xlink:href="#C0_0_44e0be8f68" x="307.188401" y="19.382384" style="fill: none; stroke: #ff0000; stroke-opacity: 0.5"/>
    </g>
    <g clip-path="url(#pa9eaf25064)">
     <use xlink:href="#C0_0_44e0be8f68" x="307.96449" y="103.897674" style="fill: none; stroke: #ff0000; stroke-opacity: 0.5"/>
    </g>
    <g clip-path="url(#pa9eaf25064)">
     <use xlink:href="#C0_0_44e0be8f68" x="309.516669" y="102.374876" style="fill: none; stroke: #ff0000; stroke-opacity: 0.5"/>
    </g>
    <g clip-path="url(#pa9eaf25064)">
     <use xlink:href="#C0_0_44e0be8f68" x="312.621026" y="48.315547" style="fill: none; stroke: #ff0000; stroke-opacity: 0.5"/>
    </g>
    <g clip-path="url(#pa9eaf25064)">
     <use xlink:href="#C0_0_44e0be8f68" x="313.397116" y="57.452335" style="fill: none; stroke: #ff0000; stroke-opacity: 0.5"/>
    </g>
    <g clip-path="url(#pa9eaf25064)">
     <use xlink:href="#C0_0_44e0be8f68" x="317.277563" y="145.77462" style="fill: none; stroke: #ff0000; stroke-opacity: 0.5"/>
    </g>
    <g clip-path="url(#pa9eaf25064)">
     <use xlink:href="#C0_0_44e0be8f68" x="317.277563" y="139.683428" style="fill: none; stroke: #ff0000; stroke-opacity: 0.5"/>
    </g>
    <g clip-path="url(#pa9eaf25064)">
     <use xlink:href="#C0_0_44e0be8f68" x="319.605831" y="91.71529" style="fill: none; stroke: #ff0000; stroke-opacity: 0.5"/>
    </g>
    <g clip-path="url(#pa9eaf25064)">
     <use xlink:href="#C0_0_44e0be8f68" x="321.15801" y="196.788354" style="fill: none; stroke: #ff0000; stroke-opacity: 0.5"/>
    </g>
    <g clip-path="url(#pa9eaf25064)">
     <use xlink:href="#C0_0_44e0be8f68" x="337.455887" y="66.589123" style="fill: none; stroke: #ff0000; stroke-opacity: 0.5"/>
    </g>
    <g clip-path="url(#pa9eaf25064)">
     <use xlink:href="#C0_0_44e0be8f68" x="338.231977" y="78.010108" style="fill: none; stroke: #ff0000; stroke-opacity: 0.5"/>
    </g>
    <g clip-path="url(#pa9eaf25064)">
     <use xlink:href="#C0_0_44e0be8f68" x="339.784155" y="14.052591" style="fill: none; stroke: #ff0000; stroke-opacity: 0.5"/>
    </g>
    <g clip-path="url(#pa9eaf25064)">
     <use xlink:href="#C0_0_44e0be8f68" x="346.76896" y="123.694049" style="fill: none; stroke: #ff0000; stroke-opacity: 0.5"/>
    </g>
    <g clip-path="url(#pa9eaf25064)">
     <use xlink:href="#C0_0_44e0be8f68" x="348.321139" y="93.238088" style="fill: none; stroke: #ff0000; stroke-opacity: 0.5"/>
    </g>
    <g clip-path="url(#pa9eaf25064)">
     <use xlink:href="#C0_0_44e0be8f68" x="350.649407" y="90.192492" style="fill: none; stroke: #ff0000; stroke-opacity: 0.5"/>
    </g>
    <g clip-path="url(#pa9eaf25064)">
     <use xlink:href="#C0_0_44e0be8f68" x="352.201586" y="129.785241" style="fill: none; stroke: #ff0000; stroke-opacity: 0.5"/>
    </g>
    <g clip-path="url(#pa9eaf25064)">
     <use xlink:href="#C0_0_44e0be8f68" x="353.753765" y="87.908295" style="fill: none; stroke: #ff0000; stroke-opacity: 0.5"/>
    </g>
    <g clip-path="url(#pa9eaf25064)">
     <use xlink:href="#C0_0_44e0be8f68" x="356.082033" y="181.560374" style="fill: none; stroke: #ff0000; stroke-opacity: 0.5"/>
    </g>
    <g clip-path="url(#pa9eaf25064)">
     <use xlink:href="#C0_0_44e0be8f68" x="356.082033" y="42.985754" style="fill: none; stroke: #ff0000; stroke-opacity: 0.5"/>
    </g>
    <g clip-path="url(#pa9eaf25064)">
     <use xlink:href="#C0_0_44e0be8f68" x="358.410301" y="80.294305" style="fill: none; stroke: #ff0000; stroke-opacity: 0.5"/>
    </g>
   </g>
   <g id="PathCollection_2">
    <defs>
     <path id="m5521bdd8e8" d="M -2.5 2.5 
L 2.5 -2.5 
M -2.5 -2.5 
L 2.5 2.5 
" style="stroke: #008000; stroke-opacity: 0.5; stroke-width: 1.5"/>
    </defs>
    <g clip-path="url(#pa9eaf25064)">
     <use xlink:href="#m5521bdd8e8" x="61.94415" y="74.964512" style="fill: #008000; fill-opacity: 0.5; stroke: #008000; stroke-opacity: 0.5; stroke-width: 1.5"/>
     <use xlink:href="#m5521bdd8e8" x="68.152866" y="147.297418" style="fill: #008000; fill-opacity: 0.5; stroke: #008000; stroke-opacity: 0.5; stroke-width: 1.5"/>
     <use xlink:href="#m5521bdd8e8" x="78.242028" y="31.564768" style="fill: #008000; fill-opacity: 0.5; stroke: #008000; stroke-opacity: 0.5; stroke-width: 1.5"/>
     <use xlink:href="#m5521bdd8e8" x="84.450743" y="122.93265" style="fill: #008000; fill-opacity: 0.5; stroke: #008000; stroke-opacity: 0.5; stroke-width: 1.5"/>
     <use xlink:href="#m5521bdd8e8" x="88.33119" y="58.975133" style="fill: #008000; fill-opacity: 0.5; stroke: #008000; stroke-opacity: 0.5; stroke-width: 1.5"/>
     <use xlink:href="#m5521bdd8e8" x="96.868173" y="89.431093" style="fill: #008000; fill-opacity: 0.5; stroke: #008000; stroke-opacity: 0.5; stroke-width: 1.5"/>
     <use xlink:href="#m5521bdd8e8" x="104.629067" y="158.718403" style="fill: #008000; fill-opacity: 0.5; stroke: #008000; stroke-opacity: 0.5; stroke-width: 1.5"/>
     <use xlink:href="#m5521bdd8e8" x="107.733425" y="33.848965" style="fill: #008000; fill-opacity: 0.5; stroke: #008000; stroke-opacity: 0.5; stroke-width: 1.5"/>
     <use xlink:href="#m5521bdd8e8" x="108.509514" y="143.490423" style="fill: #008000; fill-opacity: 0.5; stroke: #008000; stroke-opacity: 0.5; stroke-width: 1.5"/>
     <use xlink:href="#m5521bdd8e8" x="110.837783" y="100.852078" style="fill: #008000; fill-opacity: 0.5; stroke: #008000; stroke-opacity: 0.5; stroke-width: 1.5"/>
     <use xlink:href="#m5521bdd8e8" x="112.389961" y="106.94327" style="fill: #008000; fill-opacity: 0.5; stroke: #008000; stroke-opacity: 0.5; stroke-width: 1.5"/>
     <use xlink:href="#m5521bdd8e8" x="118.598677" y="77.248709" style="fill: #008000; fill-opacity: 0.5; stroke: #008000; stroke-opacity: 0.5; stroke-width: 1.5"/>
     <use xlink:href="#m5521bdd8e8" x="118.598677" y="53.64534" style="fill: #008000; fill-opacity: 0.5; stroke: #008000; stroke-opacity: 0.5; stroke-width: 1.5"/>
     <use xlink:href="#m5521bdd8e8" x="119.374766" y="132.069438" style="fill: #008000; fill-opacity: 0.5; stroke: #008000; stroke-opacity: 0.5; stroke-width: 1.5"/>
     <use xlink:href="#m5521bdd8e8" x="125.583481" y="67.350522" style="fill: #008000; fill-opacity: 0.5; stroke: #008000; stroke-opacity: 0.5; stroke-width: 1.5"/>
     <use xlink:href="#m5521bdd8e8" x="127.13566" y="177.753379" style="fill: #008000; fill-opacity: 0.5; stroke: #008000; stroke-opacity: 0.5; stroke-width: 1.5"/>
     <use xlink:href="#m5521bdd8e8" x="129.463928" y="144.251822" style="fill: #008000; fill-opacity: 0.5; stroke: #008000; stroke-opacity: 0.5; stroke-width: 1.5"/>
     <use xlink:href="#m5521bdd8e8" x="150.418342" y="47.554148" style="fill: #008000; fill-opacity: 0.5; stroke: #008000; stroke-opacity: 0.5; stroke-width: 1.5"/>
     <use xlink:href="#m5521bdd8e8" x="242.772981" y="83.339901" style="fill: #008000; fill-opacity: 0.5; stroke: #008000; stroke-opacity: 0.5; stroke-width: 1.5"/>
     <use xlink:href="#m5521bdd8e8" x="330.471083" y="39.940157" style="fill: #008000; fill-opacity: 0.5; stroke: #008000; stroke-opacity: 0.5; stroke-width: 1.5"/>
     <use xlink:href="#m5521bdd8e8" x="361.514659" y="91.71529" style="fill: #008000; fill-opacity: 0.5; stroke: #008000; stroke-opacity: 0.5; stroke-width: 1.5"/>
    </g>
   </g>
   <g id="matplotlib.axis_1">
    <g id="xtick_1">
     <g id="line2d_1">
      <defs>
       <path id="m999798a7c2" d="M 0 0 
L 0 3.5 
" style="stroke: #000000; stroke-width: 0.8"/>
      </defs>
      <g>
       <use xlink:href="#m999798a7c2" x="59.615882" y="203.640945" style="stroke: #000000; stroke-width: 0.8"/>
      </g>
     </g>
     <g id="text_1">
      <!-- 0 -->
      <g transform="translate(56.434632 218.239382) scale(0.1 -0.1)">
       <defs>
        <path id="DejaVuSans-30" d="M 2034 4250 
Q 1547 4250 1301 3770 
Q 1056 3291 1056 2328 
Q 1056 1369 1301 889 
Q 1547 409 2034 409 
Q 2525 409 2770 889 
Q 3016 1369 3016 2328 
Q 3016 3291 2770 3770 
Q 2525 4250 2034 4250 
z
M 2034 4750 
Q 2819 4750 3233 4129 
Q 3647 3509 3647 2328 
Q 3647 1150 3233 529 
Q 2819 -91 2034 -91 
Q 1250 -91 836 529 
Q 422 1150 422 2328 
Q 422 3509 836 4129 
Q 1250 4750 2034 4750 
z
" transform="scale(0.015625)"/>
       </defs>
       <use xlink:href="#DejaVuSans-30"/>
      </g>
     </g>
    </g>
    <g id="xtick_2">
     <g id="line2d_2">
      <g>
       <use xlink:href="#m999798a7c2" x="98.420352" y="203.640945" style="stroke: #000000; stroke-width: 0.8"/>
      </g>
     </g>
     <g id="text_2">
      <!-- 50 -->
      <g transform="translate(92.057852 218.239382) scale(0.1 -0.1)">
       <defs>
        <path id="DejaVuSans-35" d="M 691 4666 
L 3169 4666 
L 3169 4134 
L 1269 4134 
L 1269 2991 
Q 1406 3038 1543 3061 
Q 1681 3084 1819 3084 
Q 2600 3084 3056 2656 
Q 3513 2228 3513 1497 
Q 3513 744 3044 326 
Q 2575 -91 1722 -91 
Q 1428 -91 1123 -41 
Q 819 9 494 109 
L 494 744 
Q 775 591 1075 516 
Q 1375 441 1709 441 
Q 2250 441 2565 725 
Q 2881 1009 2881 1497 
Q 2881 1984 2565 2268 
Q 2250 2553 1709 2553 
Q 1456 2553 1204 2497 
Q 953 2441 691 2322 
L 691 4666 
z
" transform="scale(0.015625)"/>
       </defs>
       <use xlink:href="#DejaVuSans-35"/>
       <use xlink:href="#DejaVuSans-30" transform="translate(63.623047 0)"/>
      </g>
     </g>
    </g>
    <g id="xtick_3">
     <g id="line2d_3">
      <g>
       <use xlink:href="#m999798a7c2" x="137.224822" y="203.640945" style="stroke: #000000; stroke-width: 0.8"/>
      </g>
     </g>
     <g id="text_3">
      <!-- 100 -->
      <g transform="translate(127.681072 218.239382) scale(0.1 -0.1)">
       <defs>
        <path id="DejaVuSans-31" d="M 794 531 
L 1825 531 
L 1825 4091 
L 703 3866 
L 703 4441 
L 1819 4666 
L 2450 4666 
L 2450 531 
L 3481 531 
L 3481 0 
L 794 0 
L 794 531 
z
" transform="scale(0.015625)"/>
       </defs>
       <use xlink:href="#DejaVuSans-31"/>
       <use xlink:href="#DejaVuSans-30" transform="translate(63.623047 0)"/>
       <use xlink:href="#DejaVuSans-30" transform="translate(127.246094 0)"/>
      </g>
     </g>
    </g>
    <g id="xtick_4">
     <g id="line2d_4">
      <g>
       <use xlink:href="#m999798a7c2" x="176.029292" y="203.640945" style="stroke: #000000; stroke-width: 0.8"/>
      </g>
     </g>
     <g id="text_4">
      <!-- 150 -->
      <g transform="translate(166.485542 218.239382) scale(0.1 -0.1)">
       <use xlink:href="#DejaVuSans-31"/>
       <use xlink:href="#DejaVuSans-35" transform="translate(63.623047 0)"/>
       <use xlink:href="#DejaVuSans-30" transform="translate(127.246094 0)"/>
      </g>
     </g>
    </g>
    <g id="xtick_5">
     <g id="line2d_5">
      <g>
       <use xlink:href="#m999798a7c2" x="214.833762" y="203.640945" style="stroke: #000000; stroke-width: 0.8"/>
      </g>
     </g>
     <g id="text_5">
      <!-- 200 -->
      <g transform="translate(205.290012 218.239382) scale(0.1 -0.1)">
       <defs>
        <path id="DejaVuSans-32" d="M 1228 531 
L 3431 531 
L 3431 0 
L 469 0 
L 469 531 
Q 828 903 1448 1529 
Q 2069 2156 2228 2338 
Q 2531 2678 2651 2914 
Q 2772 3150 2772 3378 
Q 2772 3750 2511 3984 
Q 2250 4219 1831 4219 
Q 1534 4219 1204 4116 
Q 875 4013 500 3803 
L 500 4441 
Q 881 4594 1212 4672 
Q 1544 4750 1819 4750 
Q 2544 4750 2975 4387 
Q 3406 4025 3406 3419 
Q 3406 3131 3298 2873 
Q 3191 2616 2906 2266 
Q 2828 2175 2409 1742 
Q 1991 1309 1228 531 
z
" transform="scale(0.015625)"/>
       </defs>
       <use xlink:href="#DejaVuSans-32"/>
       <use xlink:href="#DejaVuSans-30" transform="translate(63.623047 0)"/>
       <use xlink:href="#DejaVuSans-30" transform="translate(127.246094 0)"/>
      </g>
     </g>
    </g>
    <g id="xtick_6">
     <g id="line2d_6">
      <g>
       <use xlink:href="#m999798a7c2" x="253.638232" y="203.640945" style="stroke: #000000; stroke-width: 0.8"/>
      </g>
     </g>
     <g id="text_6">
      <!-- 250 -->
      <g transform="translate(244.094482 218.239382) scale(0.1 -0.1)">
       <use xlink:href="#DejaVuSans-32"/>
       <use xlink:href="#DejaVuSans-35" transform="translate(63.623047 0)"/>
       <use xlink:href="#DejaVuSans-30" transform="translate(127.246094 0)"/>
      </g>
     </g>
    </g>
    <g id="xtick_7">
     <g id="line2d_7">
      <g>
       <use xlink:href="#m999798a7c2" x="292.442702" y="203.640945" style="stroke: #000000; stroke-width: 0.8"/>
      </g>
     </g>
     <g id="text_7">
      <!-- 300 -->
      <g transform="translate(282.898952 218.239382) scale(0.1 -0.1)">
       <defs>
        <path id="DejaVuSans-33" d="M 2597 2516 
Q 3050 2419 3304 2112 
Q 3559 1806 3559 1356 
Q 3559 666 3084 287 
Q 2609 -91 1734 -91 
Q 1441 -91 1130 -33 
Q 819 25 488 141 
L 488 750 
Q 750 597 1062 519 
Q 1375 441 1716 441 
Q 2309 441 2620 675 
Q 2931 909 2931 1356 
Q 2931 1769 2642 2001 
Q 2353 2234 1838 2234 
L 1294 2234 
L 1294 2753 
L 1863 2753 
Q 2328 2753 2575 2939 
Q 2822 3125 2822 3475 
Q 2822 3834 2567 4026 
Q 2313 4219 1838 4219 
Q 1578 4219 1281 4162 
Q 984 4106 628 3988 
L 628 4550 
Q 988 4650 1302 4700 
Q 1616 4750 1894 4750 
Q 2613 4750 3031 4423 
Q 3450 4097 3450 3541 
Q 3450 3153 3228 2886 
Q 3006 2619 2597 2516 
z
" transform="scale(0.015625)"/>
       </defs>
       <use xlink:href="#DejaVuSans-33"/>
       <use xlink:href="#DejaVuSans-30" transform="translate(63.623047 0)"/>
       <use xlink:href="#DejaVuSans-30" transform="translate(127.246094 0)"/>
      </g>
     </g>
    </g>
    <g id="xtick_8">
     <g id="line2d_8">
      <g>
       <use xlink:href="#m999798a7c2" x="331.247172" y="203.640945" style="stroke: #000000; stroke-width: 0.8"/>
      </g>
     </g>
     <g id="text_8">
      <!-- 350 -->
      <g transform="translate(321.703422 218.239382) scale(0.1 -0.1)">
       <use xlink:href="#DejaVuSans-33"/>
       <use xlink:href="#DejaVuSans-35" transform="translate(63.623047 0)"/>
       <use xlink:href="#DejaVuSans-30" transform="translate(127.246094 0)"/>
      </g>
     </g>
    </g>
    <g id="xtick_9">
     <g id="line2d_9">
      <g>
       <use xlink:href="#m999798a7c2" x="370.051642" y="203.640945" style="stroke: #000000; stroke-width: 0.8"/>
      </g>
     </g>
     <g id="text_9">
      <!-- 400 -->
      <g transform="translate(360.507892 218.239382) scale(0.1 -0.1)">
       <defs>
        <path id="DejaVuSans-34" d="M 2419 4116 
L 825 1625 
L 2419 1625 
L 2419 4116 
z
M 2253 4666 
L 3047 4666 
L 3047 1625 
L 3713 1625 
L 3713 1100 
L 3047 1100 
L 3047 0 
L 2419 0 
L 2419 1100 
L 313 1100 
L 313 1709 
L 2253 4666 
z
" transform="scale(0.015625)"/>
       </defs>
       <use xlink:href="#DejaVuSans-34"/>
       <use xlink:href="#DejaVuSans-30" transform="translate(63.623047 0)"/>
       <use xlink:href="#DejaVuSans-30" transform="translate(127.246094 0)"/>
      </g>
     </g>
    </g>
    <g id="text_10">
     <!-- Time step (ms) -->
     <g transform="translate(174.125498 231.917507) scale(0.1 -0.1)">
      <defs>
       <path id="DejaVuSans-54" d="M -19 4666 
L 3928 4666 
L 3928 4134 
L 2272 4134 
L 2272 0 
L 1638 0 
L 1638 4134 
L -19 4134 
L -19 4666 
z
" transform="scale(0.015625)"/>
       <path id="DejaVuSans-69" d="M 603 3500 
L 1178 3500 
L 1178 0 
L 603 0 
L 603 3500 
z
M 603 4863 
L 1178 4863 
L 1178 4134 
L 603 4134 
L 603 4863 
z
" transform="scale(0.015625)"/>
       <path id="DejaVuSans-6d" d="M 3328 2828 
Q 3544 3216 3844 3400 
Q 4144 3584 4550 3584 
Q 5097 3584 5394 3201 
Q 5691 2819 5691 2113 
L 5691 0 
L 5113 0 
L 5113 2094 
Q 5113 2597 4934 2840 
Q 4756 3084 4391 3084 
Q 3944 3084 3684 2787 
Q 3425 2491 3425 1978 
L 3425 0 
L 2847 0 
L 2847 2094 
Q 2847 2600 2669 2842 
Q 2491 3084 2119 3084 
Q 1678 3084 1418 2786 
Q 1159 2488 1159 1978 
L 1159 0 
L 581 0 
L 581 3500 
L 1159 3500 
L 1159 2956 
Q 1356 3278 1631 3431 
Q 1906 3584 2284 3584 
Q 2666 3584 2933 3390 
Q 3200 3197 3328 2828 
z
" transform="scale(0.015625)"/>
       <path id="DejaVuSans-65" d="M 3597 1894 
L 3597 1613 
L 953 1613 
Q 991 1019 1311 708 
Q 1631 397 2203 397 
Q 2534 397 2845 478 
Q 3156 559 3463 722 
L 3463 178 
Q 3153 47 2828 -22 
Q 2503 -91 2169 -91 
Q 1331 -91 842 396 
Q 353 884 353 1716 
Q 353 2575 817 3079 
Q 1281 3584 2069 3584 
Q 2775 3584 3186 3129 
Q 3597 2675 3597 1894 
z
M 3022 2063 
Q 3016 2534 2758 2815 
Q 2500 3097 2075 3097 
Q 1594 3097 1305 2825 
Q 1016 2553 972 2059 
L 3022 2063 
z
" transform="scale(0.015625)"/>
       <path id="DejaVuSans-20" transform="scale(0.015625)"/>
       <path id="DejaVuSans-73" d="M 2834 3397 
L 2834 2853 
Q 2591 2978 2328 3040 
Q 2066 3103 1784 3103 
Q 1356 3103 1142 2972 
Q 928 2841 928 2578 
Q 928 2378 1081 2264 
Q 1234 2150 1697 2047 
L 1894 2003 
Q 2506 1872 2764 1633 
Q 3022 1394 3022 966 
Q 3022 478 2636 193 
Q 2250 -91 1575 -91 
Q 1294 -91 989 -36 
Q 684 19 347 128 
L 347 722 
Q 666 556 975 473 
Q 1284 391 1588 391 
Q 1994 391 2212 530 
Q 2431 669 2431 922 
Q 2431 1156 2273 1281 
Q 2116 1406 1581 1522 
L 1381 1569 
Q 847 1681 609 1914 
Q 372 2147 372 2553 
Q 372 3047 722 3315 
Q 1072 3584 1716 3584 
Q 2034 3584 2315 3537 
Q 2597 3491 2834 3397 
z
" transform="scale(0.015625)"/>
       <path id="DejaVuSans-74" d="M 1172 4494 
L 1172 3500 
L 2356 3500 
L 2356 3053 
L 1172 3053 
L 1172 1153 
Q 1172 725 1289 603 
Q 1406 481 1766 481 
L 2356 481 
L 2356 0 
L 1766 0 
Q 1100 0 847 248 
Q 594 497 594 1153 
L 594 3053 
L 172 3053 
L 172 3500 
L 594 3500 
L 594 4494 
L 1172 4494 
z
" transform="scale(0.015625)"/>
       <path id="DejaVuSans-70" d="M 1159 525 
L 1159 -1331 
L 581 -1331 
L 581 3500 
L 1159 3500 
L 1159 2969 
Q 1341 3281 1617 3432 
Q 1894 3584 2278 3584 
Q 2916 3584 3314 3078 
Q 3713 2572 3713 1747 
Q 3713 922 3314 415 
Q 2916 -91 2278 -91 
Q 1894 -91 1617 61 
Q 1341 213 1159 525 
z
M 3116 1747 
Q 3116 2381 2855 2742 
Q 2594 3103 2138 3103 
Q 1681 3103 1420 2742 
Q 1159 2381 1159 1747 
Q 1159 1113 1420 752 
Q 1681 391 2138 391 
Q 2594 391 2855 752 
Q 3116 1113 3116 1747 
z
" transform="scale(0.015625)"/>
       <path id="DejaVuSans-28" d="M 1984 4856 
Q 1566 4138 1362 3434 
Q 1159 2731 1159 2009 
Q 1159 1288 1364 580 
Q 1569 -128 1984 -844 
L 1484 -844 
Q 1016 -109 783 600 
Q 550 1309 550 2009 
Q 550 2706 781 3412 
Q 1013 4119 1484 4856 
L 1984 4856 
z
" transform="scale(0.015625)"/>
       <path id="DejaVuSans-29" d="M 513 4856 
L 1013 4856 
Q 1481 4119 1714 3412 
Q 1947 2706 1947 2009 
Q 1947 1309 1714 600 
Q 1481 -109 1013 -844 
L 513 -844 
Q 928 -128 1133 580 
Q 1338 1288 1338 2009 
Q 1338 2731 1133 3434 
Q 928 4138 513 4856 
z
" transform="scale(0.015625)"/>
      </defs>
      <use xlink:href="#DejaVuSans-54"/>
      <use xlink:href="#DejaVuSans-69" transform="translate(57.958984 0)"/>
      <use xlink:href="#DejaVuSans-6d" transform="translate(85.742188 0)"/>
      <use xlink:href="#DejaVuSans-65" transform="translate(183.154297 0)"/>
      <use xlink:href="#DejaVuSans-20" transform="translate(244.677734 0)"/>
      <use xlink:href="#DejaVuSans-73" transform="translate(276.464844 0)"/>
      <use xlink:href="#DejaVuSans-74" transform="translate(328.564453 0)"/>
      <use xlink:href="#DejaVuSans-65" transform="translate(367.773438 0)"/>
      <use xlink:href="#DejaVuSans-70" transform="translate(429.296875 0)"/>
      <use xlink:href="#DejaVuSans-20" transform="translate(492.773438 0)"/>
      <use xlink:href="#DejaVuSans-28" transform="translate(524.560547 0)"/>
      <use xlink:href="#DejaVuSans-6d" transform="translate(563.574219 0)"/>
      <use xlink:href="#DejaVuSans-73" transform="translate(660.986328 0)"/>
      <use xlink:href="#DejaVuSans-29" transform="translate(713.085938 0)"/>
     </g>
    </g>
   </g>
   <g id="matplotlib.axis_2">
    <g id="ytick_1">
     <g id="line2d_10">
      <defs>
       <path id="mfd3da15077" d="M 0 0 
L -3.5 0 
" style="stroke: #000000; stroke-width: 0.8"/>
      </defs>
      <g>
       <use xlink:href="#mfd3da15077" x="46.965625" y="202.879546" style="stroke: #000000; stroke-width: 0.8"/>
      </g>
     </g>
     <g id="text_11">
      <!-- 0 -->
      <g transform="translate(33.603125 206.678765) scale(0.1 -0.1)">
       <use xlink:href="#DejaVuSans-30"/>
      </g>
     </g>
    </g>
    <g id="ytick_2">
     <g id="line2d_11">
      <g>
       <use xlink:href="#mfd3da15077" x="46.965625" y="164.809595" style="stroke: #000000; stroke-width: 0.8"/>
      </g>
     </g>
     <g id="text_12">
      <!-- 50 -->
      <g transform="translate(27.240625 168.608814) scale(0.1 -0.1)">
       <use xlink:href="#DejaVuSans-35"/>
       <use xlink:href="#DejaVuSans-30" transform="translate(63.623047 0)"/>
      </g>
     </g>
    </g>
    <g id="ytick_3">
     <g id="line2d_12">
      <g>
       <use xlink:href="#mfd3da15077" x="46.965625" y="126.739645" style="stroke: #000000; stroke-width: 0.8"/>
      </g>
     </g>
     <g id="text_13">
      <!-- 100 -->
      <g transform="translate(20.878125 130.538864) scale(0.1 -0.1)">
       <use xlink:href="#DejaVuSans-31"/>
       <use xlink:href="#DejaVuSans-30" transform="translate(63.623047 0)"/>
       <use xlink:href="#DejaVuSans-30" transform="translate(127.246094 0)"/>
      </g>
     </g>
    </g>
    <g id="ytick_4">
     <g id="line2d_13">
      <g>
       <use xlink:href="#mfd3da15077" x="46.965625" y="88.669694" style="stroke: #000000; stroke-width: 0.8"/>
      </g>
     </g>
     <g id="text_14">
      <!-- 150 -->
      <g transform="translate(20.878125 92.468913) scale(0.1 -0.1)">
       <use xlink:href="#DejaVuSans-31"/>
       <use xlink:href="#DejaVuSans-35" transform="translate(63.623047 0)"/>
       <use xlink:href="#DejaVuSans-30" transform="translate(127.246094 0)"/>
      </g>
     </g>
    </g>
    <g id="ytick_5">
     <g id="line2d_14">
      <g>
       <use xlink:href="#mfd3da15077" x="46.965625" y="50.599744" style="stroke: #000000; stroke-width: 0.8"/>
      </g>
     </g>
     <g id="text_15">
      <!-- 200 -->
      <g transform="translate(20.878125 54.398962) scale(0.1 -0.1)">
       <use xlink:href="#DejaVuSans-32"/>
       <use xlink:href="#DejaVuSans-30" transform="translate(63.623047 0)"/>
       <use xlink:href="#DejaVuSans-30" transform="translate(127.246094 0)"/>
      </g>
     </g>
    </g>
    <g id="ytick_6">
     <g id="line2d_15">
      <g>
       <use xlink:href="#mfd3da15077" x="46.965625" y="12.529793" style="stroke: #000000; stroke-width: 0.8"/>
      </g>
     </g>
     <g id="text_16">
      <!-- 250 -->
      <g transform="translate(20.878125 16.329012) scale(0.1 -0.1)">
       <use xlink:href="#DejaVuSans-32"/>
       <use xlink:href="#DejaVuSans-35" transform="translate(63.623047 0)"/>
       <use xlink:href="#DejaVuSans-30" transform="translate(127.246094 0)"/>
      </g>
     </g>
    </g>
    <g id="text_17">
     <!-- Neuron Address -->
     <g transform="translate(14.798437 145.076722) rotate(-90) scale(0.1 -0.1)">
      <defs>
       <path id="DejaVuSans-4e" d="M 628 4666 
L 1478 4666 
L 3547 763 
L 3547 4666 
L 4159 4666 
L 4159 0 
L 3309 0 
L 1241 3903 
L 1241 0 
L 628 0 
L 628 4666 
z
" transform="scale(0.015625)"/>
       <path id="DejaVuSans-75" d="M 544 1381 
L 544 3500 
L 1119 3500 
L 1119 1403 
Q 1119 906 1312 657 
Q 1506 409 1894 409 
Q 2359 409 2629 706 
Q 2900 1003 2900 1516 
L 2900 3500 
L 3475 3500 
L 3475 0 
L 2900 0 
L 2900 538 
Q 2691 219 2414 64 
Q 2138 -91 1772 -91 
Q 1169 -91 856 284 
Q 544 659 544 1381 
z
M 1991 3584 
L 1991 3584 
z
" transform="scale(0.015625)"/>
       <path id="DejaVuSans-72" d="M 2631 2963 
Q 2534 3019 2420 3045 
Q 2306 3072 2169 3072 
Q 1681 3072 1420 2755 
Q 1159 2438 1159 1844 
L 1159 0 
L 581 0 
L 581 3500 
L 1159 3500 
L 1159 2956 
Q 1341 3275 1631 3429 
Q 1922 3584 2338 3584 
Q 2397 3584 2469 3576 
Q 2541 3569 2628 3553 
L 2631 2963 
z
" transform="scale(0.015625)"/>
       <path id="DejaVuSans-6f" d="M 1959 3097 
Q 1497 3097 1228 2736 
Q 959 2375 959 1747 
Q 959 1119 1226 758 
Q 1494 397 1959 397 
Q 2419 397 2687 759 
Q 2956 1122 2956 1747 
Q 2956 2369 2687 2733 
Q 2419 3097 1959 3097 
z
M 1959 3584 
Q 2709 3584 3137 3096 
Q 3566 2609 3566 1747 
Q 3566 888 3137 398 
Q 2709 -91 1959 -91 
Q 1206 -91 779 398 
Q 353 888 353 1747 
Q 353 2609 779 3096 
Q 1206 3584 1959 3584 
z
" transform="scale(0.015625)"/>
       <path id="DejaVuSans-6e" d="M 3513 2113 
L 3513 0 
L 2938 0 
L 2938 2094 
Q 2938 2591 2744 2837 
Q 2550 3084 2163 3084 
Q 1697 3084 1428 2787 
Q 1159 2491 1159 1978 
L 1159 0 
L 581 0 
L 581 3500 
L 1159 3500 
L 1159 2956 
Q 1366 3272 1645 3428 
Q 1925 3584 2291 3584 
Q 2894 3584 3203 3211 
Q 3513 2838 3513 2113 
z
" transform="scale(0.015625)"/>
       <path id="DejaVuSans-41" d="M 2188 4044 
L 1331 1722 
L 3047 1722 
L 2188 4044 
z
M 1831 4666 
L 2547 4666 
L 4325 0 
L 3669 0 
L 3244 1197 
L 1141 1197 
L 716 0 
L 50 0 
L 1831 4666 
z
" transform="scale(0.015625)"/>
       <path id="DejaVuSans-64" d="M 2906 2969 
L 2906 4863 
L 3481 4863 
L 3481 0 
L 2906 0 
L 2906 525 
Q 2725 213 2448 61 
Q 2172 -91 1784 -91 
Q 1150 -91 751 415 
Q 353 922 353 1747 
Q 353 2572 751 3078 
Q 1150 3584 1784 3584 
Q 2172 3584 2448 3432 
Q 2725 3281 2906 2969 
z
M 947 1747 
Q 947 1113 1208 752 
Q 1469 391 1925 391 
Q 2381 391 2643 752 
Q 2906 1113 2906 1747 
Q 2906 2381 2643 2742 
Q 2381 3103 1925 3103 
Q 1469 3103 1208 2742 
Q 947 2381 947 1747 
z
" transform="scale(0.015625)"/>
      </defs>
      <use xlink:href="#DejaVuSans-4e"/>
      <use xlink:href="#DejaVuSans-65" transform="translate(74.804688 0)"/>
      <use xlink:href="#DejaVuSans-75" transform="translate(136.328125 0)"/>
      <use xlink:href="#DejaVuSans-72" transform="translate(199.707031 0)"/>
      <use xlink:href="#DejaVuSans-6f" transform="translate(238.570312 0)"/>
      <use xlink:href="#DejaVuSans-6e" transform="translate(299.751953 0)"/>
      <use xlink:href="#DejaVuSans-20" transform="translate(363.130859 0)"/>
      <use xlink:href="#DejaVuSans-41" transform="translate(394.917969 0)"/>
      <use xlink:href="#DejaVuSans-64" transform="translate(461.576172 0)"/>
      <use xlink:href="#DejaVuSans-64" transform="translate(525.052734 0)"/>
      <use xlink:href="#DejaVuSans-72" transform="translate(588.529297 0)"/>
      <use xlink:href="#DejaVuSans-65" transform="translate(627.392578 0)"/>
      <use xlink:href="#DejaVuSans-73" transform="translate(688.916016 0)"/>
      <use xlink:href="#DejaVuSans-73" transform="translate(741.015625 0)"/>
     </g>
    </g>
   </g>
   <g id="LineCollection_1">
    <path d="M 98.420352 202.879546 
L 98.420352 7.961399 
" clip-path="url(#pa9eaf25064)" style="fill: none; stroke-dasharray: 5.55,2.4; stroke-dashoffset: 0; stroke: #ff0000; stroke-width: 1.5"/>
   </g>
   <g id="LineCollection_2">
    <path d="M 130.240018 202.879546 
L 130.240018 7.961399 
" clip-path="url(#pa9eaf25064)" style="fill: none; stroke-dasharray: 5.55,2.4; stroke-dashoffset: 0; stroke: #0000ff; stroke-width: 1.5"/>
   </g>
   <g id="patch_3">
    <path d="M 46.965625 203.640945 
L 46.965625 7.2 
" style="fill: none; stroke: #000000; stroke-width: 0.8; stroke-linejoin: miter; stroke-linecap: square"/>
   </g>
   <g id="patch_4">
    <path d="M 376.493184 203.640945 
L 376.493184 7.2 
" style="fill: none; stroke: #000000; stroke-width: 0.8; stroke-linejoin: miter; stroke-linecap: square"/>
   </g>
   <g id="patch_5">
    <path d="M 46.965625 203.640945 
L 376.493184 203.640945 
" style="fill: none; stroke: #000000; stroke-width: 0.8; stroke-linejoin: miter; stroke-linecap: square"/>
   </g>
   <g id="patch_6">
    <path d="M 46.965625 7.2 
L 376.493184 7.2 
" style="fill: none; stroke: #000000; stroke-width: 0.8; stroke-linejoin: miter; stroke-linecap: square"/>
   </g>
  </g>
 </g>
 <defs>
  <clipPath id="pa9eaf25064">
   <rect x="46.965625" y="7.2" width="329.527559" height="196.440945"/>
  </clipPath>
 </defs>
</svg>
