<?xml version="1.0" encoding="utf-8" standalone="no"?>
<!DOCTYPE svg PUBLIC "-//W3C//DTD SVG 1.1//EN"
  "http://www.w3.org/Graphics/SVG/1.1/DTD/svg11.dtd">
<svg xmlns:xlink="http://www.w3.org/1999/xlink" width="314.603297pt" height="206.632491pt" viewBox="0 0 314.603297 206.632491" xmlns="http://www.w3.org/2000/svg" version="1.1">
 <metadata>
  <rdf:RDF xmlns:dc="http://purl.org/dc/elements/1.1/" xmlns:cc="http://creativecommons.org/ns#" xmlns:rdf="http://www.w3.org/1999/02/22-rdf-syntax-ns#">
   <cc:Work>
    <dc:type rdf:resource="http://purl.org/dc/dcmitype/StillImage"/>
    <dc:date>2026-04-15T10:04:52.658733</dc:date>
    <dc:format>image/svg+xml</dc:format>
    <dc:creator>
     <cc:Agent>
      <dc:title>Matplotlib v3.10.8, https://matplotlib.org/</dc:title>
     </cc:Agent>
    </dc:creator>
   </cc:Work>
  </rdf:RDF>
 </metadata>
 <defs>
  <style type="text/css">*{stroke-linejoin: round; stroke-linecap: butt}</style>
 </defs>
 <g id="figure_1">
  <g id="patch_1">
   <path d="M 0 206.632491 
L 314.603297 206.632491 
L 314.603297 0 
L 0 0 
L 0 206.632491 
z
" style="fill: none"/>
  </g>
  <g id="axes_1">
   <g id="patch_2">
    <path d="M 43.78125 169.076241 
L 307.403297 169.076241 
L 307.403297 7.2 
L 43.78125 7.2 
L 43.78125 169.076241 
z
" style="fill: none"/>
   </g>
   <g id="matplotlib.axis_1">
    <g id="xtick_1">
     <g id="line2d_1">
      <defs>
       <path id="mf058606211" d="M 0 0 
L 0 3.5 
" style="stroke: #000000; stroke-width: 0.8"/>
      </defs>
      <g>
       <use xlink:href="#mf058606211" x="55.76407" y="169.076241" style="stroke: #000000; stroke-width: 0.8"/>
      </g>
     </g>
     <g id="text_1">
      <!-- 0 -->
      <g transform="translate(52.58282 183.674678) scale(0.1 -0.1)">
       <defs>
        <path id="DejaVuSans-30" d="M 2034 4250 
Q 1547 4250 1301 3770 
Q 1056 3291 1056 2328 
Q 1056 1369 1301 889 
Q 1547 409 2034 409 
Q 2525 409 2770 889 
Q 3016 1369 3016 2328 
Q 3016 3291 2770 3770 
Q 2525 4250 2034 4250 
z
M 2034 4750 
Q 2819 4750 3233 4129 
Q 3647 3509 3647 2328 
Q 3647 1150 3233 529 
Q 2819 -91 2034 -91 
Q 1250 -91 836 529 
Q 422 1150 422 2328 
Q 422 3509 836 4129 
Q 1250 4750 2034 4750 
z
" transform="scale(0.015625)"/>
       </defs>
       <use xlink:href="#DejaVuSans-30"/>
      </g>
     </g>
    </g>
    <g id="xtick_2">
     <g id="line2d_2">
      <g>
       <use xlink:href="#mf058606211" x="98.713247" y="169.076241" style="stroke: #000000; stroke-width: 0.8"/>
      </g>
     </g>
     <g id="text_2">
      <!-- 2000 -->
      <g transform="translate(85.988247 183.674678) scale(0.1 -0.1)">
       <defs>
        <path id="DejaVuSans-32" d="M 1228 531 
L 3431 531 
L 3431 0 
L 469 0 
L 469 531 
Q 828 903 1448 1529 
Q 2069 2156 2228 2338 
Q 2531 2678 2651 2914 
Q 2772 3150 2772 3378 
Q 2772 3750 2511 3984 
Q 2250 4219 1831 4219 
Q 1534 4219 1204 4116 
Q 875 4013 500 3803 
L 500 4441 
Q 881 4594 1212 4672 
Q 1544 4750 1819 4750 
Q 2544 4750 2975 4387 
Q 3406 4025 3406 3419 
Q 3406 3131 3298 2873 
Q 3191 2616 2906 2266 
Q 2828 2175 2409 1742 
Q 1991 1309 1228 531 
z
" transform="scale(0.015625)"/>
       </defs>
       <use xlink:href="#DejaVuSans-32"/>
       <use xlink:href="#DejaVuSans-30" transform="translate(63.623047 0)"/>
       <use xlink:href="#DejaVuSans-30" transform="translate(127.246094 0)"/>
       <use xlink:href="#DejaVuSans-30" transform="translate(190.869141 0)"/>
      </g>
     </g>
    </g>
    <g id="xtick_3">
     <g id="line2d_3">
      <g>
       <use xlink:href="#mf058606211" x="141.662424" y="169.076241" style="stroke: #000000; stroke-width: 0.8"/>
      </g>
     </g>
     <g id="text_3">
      <!-- 4000 -->
      <g transform="translate(128.937424 183.674678) scale(0.1 -0.1)">
       <defs>
        <path id="DejaVuSans-34" d="M 2419 4116 
L 825 1625 
L 2419 1625 
L 2419 4116 
z
M 2253 4666 
L 3047 4666 
L 3047 1625 
L 3713 1625 
L 3713 1100 
L 3047 1100 
L 3047 0 
L 2419 0 
L 2419 1100 
L 313 1100 
L 313 1709 
L 2253 4666 
z
" transform="scale(0.015625)"/>
       </defs>
       <use xlink:href="#DejaVuSans-34"/>
       <use xlink:href="#DejaVuSans-30" transform="translate(63.623047 0)"/>
       <use xlink:href="#DejaVuSans-30" transform="translate(127.246094 0)"/>
       <use xlink:href="#DejaVuSans-30" transform="translate(190.869141 0)"/>
      </g>
     </g>
    </g>
    <g id="xtick_4">
     <g id="line2d_4">
      <g>
       <use xlink:href="#mf058606211" x="184.611601" y="169.076241" style="stroke: #000000; stroke-width: 0.8"/>
      </g>
     </g>
     <g id="text_4">
      <!-- 6000 -->
      <g transform="translate(171.886601 183.674678) scale(0.1 -0.1)">
       <defs>
        <path id="DejaVuSans-36" d="M 2113 2584 
Q 1688 2584 1439 2293 
Q 1191 2003 1191 1497 
Q 1191 994 1439 701 
Q 1688 409 2113 409 
Q 2538 409 2786 701 
Q 3034 994 3034 1497 
Q 3034 2003 2786 2293 
Q 2538 2584 2113 2584 
z
M 3366 4563 
L 3366 3988 
Q 3128 4100 2886 4159 
Q 2644 4219 2406 4219 
Q 1781 4219 1451 3797 
Q 1122 3375 1075 2522 
Q 1259 2794 1537 2939 
Q 1816 3084 2150 3084 
Q 2853 3084 3261 2657 
Q 3669 2231 3669 1497 
Q 3669 778 3244 343 
Q 2819 -91 2113 -91 
Q 1303 -91 875 529 
Q 447 1150 447 2328 
Q 447 3434 972 4092 
Q 1497 4750 2381 4750 
Q 2619 4750 2861 4703 
Q 3103 4656 3366 4563 
z
" transform="scale(0.015625)"/>
       </defs>
       <use xlink:href="#DejaVuSans-36"/>
       <use xlink:href="#DejaVuSans-30" transform="translate(63.623047 0)"/>
       <use xlink:href="#DejaVuSans-30" transform="translate(127.246094 0)"/>
       <use xlink:href="#DejaVuSans-30" transform="translate(190.869141 0)"/>
      </g>
     </g>
    </g>
    <g id="xtick_5">
     <g id="line2d_5">
      <g>
       <use xlink:href="#mf058606211" x="227.560778" y="169.076241" style="stroke: #000000; stroke-width: 0.8"/>
      </g>
     </g>
     <g id="text_5">
      <!-- 8000 -->
      <g transform="translate(214.835778 183.674678) scale(0.1 -0.1)">
       <defs>
        <path id="DejaVuSans-38" d="M 2034 2216 
Q 1584 2216 1326 1975 
Q 1069 1734 1069 1313 
Q 1069 891 1326 650 
Q 1584 409 2034 409 
Q 2484 409 2743 651 
Q 3003 894 3003 1313 
Q 3003 1734 2745 1975 
Q 2488 2216 2034 2216 
z
M 1403 2484 
Q 997 2584 770 2862 
Q 544 3141 544 3541 
Q 544 4100 942 4425 
Q 1341 4750 2034 4750 
Q 2731 4750 3128 4425 
Q 3525 4100 3525 3541 
Q 3525 3141 3298 2862 
Q 3072 2584 2669 2484 
Q 3125 2378 3379 2068 
Q 3634 1759 3634 1313 
Q 3634 634 3220 271 
Q 2806 -91 2034 -91 
Q 1263 -91 848 271 
Q 434 634 434 1313 
Q 434 1759 690 2068 
Q 947 2378 1403 2484 
z
M 1172 3481 
Q 1172 3119 1398 2916 
Q 1625 2713 2034 2713 
Q 2441 2713 2670 2916 
Q 2900 3119 2900 3481 
Q 2900 3844 2670 4047 
Q 2441 4250 2034 4250 
Q 1625 4250 1398 4047 
Q 1172 3844 1172 3481 
z
" transform="scale(0.015625)"/>
       </defs>
       <use xlink:href="#DejaVuSans-38"/>
       <use xlink:href="#DejaVuSans-30" transform="translate(63.623047 0)"/>
       <use xlink:href="#DejaVuSans-30" transform="translate(127.246094 0)"/>
       <use xlink:href="#DejaVuSans-30" transform="translate(190.869141 0)"/>
      </g>
     </g>
    </g>
    <g id="xtick_6">
     <g id="line2d_6">
      <g>
       <use xlink:href="#mf058606211" x="270.509954" y="169.076241" style="stroke: #000000; stroke-width: 0.8"/>
      </g>
     </g>
     <g id="text_6">
      <!-- 10000 -->
      <g transform="translate(254.603704 183.674678) scale(0.1 -0.1)">
       <defs>
        <path id="DejaVuSans-31" d="M 794 531 
L 1825 531 
L 1825 4091 
L 703 3866 
L 703 4441 
L 1819 4666 
L 2450 4666 
L 2450 531 
L 3481 531 
L 3481 0 
L 794 0 
L 794 531 
z
" transform="scale(0.015625)"/>
       </defs>
       <use xlink:href="#DejaVuSans-31"/>
       <use xlink:href="#DejaVuSans-30" transform="translate(63.623047 0)"/>
       <use xlink:href="#DejaVuSans-30" transform="translate(127.246094 0)"/>
       <use xlink:href="#DejaVuSans-30" transform="translate(190.869141 0)"/>
       <use xlink:href="#DejaVuSans-30" transform="translate(254.492188 0)"/>
      </g>
     </g>
    </g>
    <g id="text_7">
     <!-- Time step (ms) -->
     <g transform="translate(137.988367 197.352803) scale(0.1 -0.1)">
      <defs>
       <path id="DejaVuSans-54" d="M -19 4666 
L 3928 4666 
L 3928 4134 
L 2272 4134 
L 2272 0 
L 1638 0 
L 1638 4134 
L -19 4134 
L -19 4666 
z
" transform="scale(0.015625)"/>
       <path id="DejaVuSans-69" d="M 603 3500 
L 1178 3500 
L 1178 0 
L 603 0 
L 603 3500 
z
M 603 4863 
L 1178 4863 
L 1178 4134 
L 603 4134 
L 603 4863 
z
" transform="scale(0.015625)"/>
       <path id="DejaVuSans-6d" d="M 3328 2828 
Q 3544 3216 3844 3400 
Q 4144 3584 4550 3584 
Q 5097 3584 5394 3201 
Q 5691 2819 5691 2113 
L 5691 0 
L 5113 0 
L 5113 2094 
Q 5113 2597 4934 2840 
Q 4756 3084 4391 3084 
Q 3944 3084 3684 2787 
Q 3425 2491 3425 1978 
L 3425 0 
L 2847 0 
L 2847 2094 
Q 2847 2600 2669 2842 
Q 2491 3084 2119 3084 
Q 1678 3084 1418 2786 
Q 1159 2488 1159 1978 
L 1159 0 
L 581 0 
L 581 3500 
L 1159 3500 
L 1159 2956 
Q 1356 3278 1631 3431 
Q 1906 3584 2284 3584 
Q 2666 3584 2933 3390 
Q 3200 3197 3328 2828 
z
" transform="scale(0.015625)"/>
       <path id="DejaVuSans-65" d="M 3597 1894 
L 3597 1613 
L 953 1613 
Q 991 1019 1311 708 
Q 1631 397 2203 397 
Q 2534 397 2845 478 
Q 3156 559 3463 722 
L 3463 178 
Q 3153 47 2828 -22 
Q 2503 -91 2169 -91 
Q 1331 -91 842 396 
Q 353 884 353 1716 
Q 353 2575 817 3079 
Q 1281 3584 2069 3584 
Q 2775 3584 3186 3129 
Q 3597 2675 3597 1894 
z
M 3022 2063 
Q 3016 2534 2758 2815 
Q 2500 3097 2075 3097 
Q 1594 3097 1305 2825 
Q 1016 2553 972 2059 
L 3022 2063 
z
" transform="scale(0.015625)"/>
       <path id="DejaVuSans-20" transform="scale(0.015625)"/>
       <path id="DejaVuSans-73" d="M 2834 3397 
L 2834 2853 
Q 2591 2978 2328 3040 
Q 2066 3103 1784 3103 
Q 1356 3103 1142 2972 
Q 928 2841 928 2578 
Q 928 2378 1081 2264 
Q 1234 2150 1697 2047 
L 1894 2003 
Q 2506 1872 2764 1633 
Q 3022 1394 3022 966 
Q 3022 478 2636 193 
Q 2250 -91 1575 -91 
Q 1294 -91 989 -36 
Q 684 19 347 128 
L 347 722 
Q 666 556 975 473 
Q 1284 391 1588 391 
Q 1994 391 2212 530 
Q 2431 669 2431 922 
Q 2431 1156 2273 1281 
Q 2116 1406 1581 1522 
L 1381 1569 
Q 847 1681 609 1914 
Q 372 2147 372 2553 
Q 372 3047 722 3315 
Q 1072 3584 1716 3584 
Q 2034 3584 2315 3537 
Q 2597 3491 2834 3397 
z
" transform="scale(0.015625)"/>
       <path id="DejaVuSans-74" d="M 1172 4494 
L 1172 3500 
L 2356 3500 
L 2356 3053 
L 1172 3053 
L 1172 1153 
Q 1172 725 1289 603 
Q 1406 481 1766 481 
L 2356 481 
L 2356 0 
L 1766 0 
Q 1100 0 847 248 
Q 594 497 594 1153 
L 594 3053 
L 172 3053 
L 172 3500 
L 594 3500 
L 594 4494 
L 1172 4494 
z
" transform="scale(0.015625)"/>
       <path id="DejaVuSans-70" d="M 1159 525 
L 1159 -1331 
L 581 -1331 
L 581 3500 
L 1159 3500 
L 1159 2969 
Q 1341 3281 1617 3432 
Q 1894 3584 2278 3584 
Q 2916 3584 3314 3078 
Q 3713 2572 3713 1747 
Q 3713 922 3314 415 
Q 2916 -91 2278 -91 
Q 1894 -91 1617 61 
Q 1341 213 1159 525 
z
M 3116 1747 
Q 3116 2381 2855 2742 
Q 2594 3103 2138 3103 
Q 1681 3103 1420 2742 
Q 1159 2381 1159 1747 
Q 1159 1113 1420 752 
Q 1681 391 2138 391 
Q 2594 391 2855 752 
Q 3116 1113 3116 1747 
z
" transform="scale(0.015625)"/>
       <path id="DejaVuSans-28" d="M 1984 4856 
Q 1566 4138 1362 3434 
Q 1159 2731 1159 2009 
Q 1159 1288 1364 580 
Q 1569 -128 1984 -844 
L 1484 -844 
Q 1016 -109 783 600 
Q 550 1309 550 2009 
Q 550 2706 781 3412 
Q 1013 4119 1484 4856 
L 1984 4856 
z
" transform="scale(0.015625)"/>
       <path id="DejaVuSans-29" d="M 513 4856 
L 1013 4856 
Q 1481 4119 1714 3412 
Q 1947 2706 1947 2009 
Q 1947 1309 1714 600 
Q 1481 -109 1013 -844 
L 513 -844 
Q 928 -128 1133 580 
Q 1338 1288 1338 2009 
Q 1338 2731 1133 3434 
Q 928 4138 513 4856 
z
" transform="scale(0.015625)"/>
      </defs>
      <use xlink:href="#DejaVuSans-54"/>
      <use xlink:href="#DejaVuSans-69" transform="translate(57.958984 0)"/>
      <use xlink:href="#DejaVuSans-6d" transform="translate(85.742188 0)"/>
      <use xlink:href="#DejaVuSans-65" transform="translate(183.154297 0)"/>
      <use xlink:href="#DejaVuSans-20" transform="translate(244.677734 0)"/>
      <use xlink:href="#DejaVuSans-73" transform="translate(276.464844 0)"/>
      <use xlink:href="#DejaVuSans-74" transform="translate(328.564453 0)"/>
      <use xlink:href="#DejaVuSans-65" transform="translate(367.773438 0)"/>
      <use xlink:href="#DejaVuSans-70" transform="translate(429.296875 0)"/>
      <use xlink:href="#DejaVuSans-20" transform="translate(492.773438 0)"/>
      <use xlink:href="#DejaVuSans-28" transform="translate(524.560547 0)"/>
      <use xlink:href="#DejaVuSans-6d" transform="translate(563.574219 0)"/>
      <use xlink:href="#DejaVuSans-73" transform="translate(660.986328 0)"/>
      <use xlink:href="#DejaVuSans-29" transform="translate(713.085938 0)"/>
     </g>
    </g>
   </g>
   <g id="matplotlib.axis_2">
    <g id="ytick_1">
     <g id="line2d_7">
      <defs>
       <path id="m1b011b85ef" d="M 0 0 
L -3.5 0 
" style="stroke: #000000; stroke-width: 0.8"/>
      </defs>
      <g>
       <use xlink:href="#m1b011b85ef" x="43.78125" y="161.71823" style="stroke: #000000; stroke-width: 0.8"/>
      </g>
     </g>
     <g id="text_8">
      <!-- 0.0 -->
      <g transform="translate(20.878125 165.517449) scale(0.1 -0.1)">
       <defs>
        <path id="DejaVuSans-2e" d="M 684 794 
L 1344 794 
L 1344 0 
L 684 0 
L 684 794 
z
" transform="scale(0.015625)"/>
       </defs>
       <use xlink:href="#DejaVuSans-30"/>
       <use xlink:href="#DejaVuSans-2e" transform="translate(63.623047 0)"/>
       <use xlink:href="#DejaVuSans-30" transform="translate(95.410156 0)"/>
      </g>
     </g>
    </g>
    <g id="ytick_2">
     <g id="line2d_8">
      <g>
       <use xlink:href="#m1b011b85ef" x="43.78125" y="132.286186" style="stroke: #000000; stroke-width: 0.8"/>
      </g>
     </g>
     <g id="text_9">
      <!-- 0.2 -->
      <g transform="translate(20.878125 136.085405) scale(0.1 -0.1)">
       <use xlink:href="#DejaVuSans-30"/>
       <use xlink:href="#DejaVuSans-2e" transform="translate(63.623047 0)"/>
       <use xlink:href="#DejaVuSans-32" transform="translate(95.410156 0)"/>
      </g>
     </g>
    </g>
    <g id="ytick_3">
     <g id="line2d_9">
      <g>
       <use xlink:href="#m1b011b85ef" x="43.78125" y="102.854142" style="stroke: #000000; stroke-width: 0.8"/>
      </g>
     </g>
     <g id="text_10">
      <!-- 0.4 -->
      <g transform="translate(20.878125 106.653361) scale(0.1 -0.1)">
       <use xlink:href="#DejaVuSans-30"/>
       <use xlink:href="#DejaVuSans-2e" transform="translate(63.623047 0)"/>
       <use xlink:href="#DejaVuSans-34" transform="translate(95.410156 0)"/>
      </g>
     </g>
    </g>
    <g id="ytick_4">
     <g id="line2d_10">
      <g>
       <use xlink:href="#m1b011b85ef" x="43.78125" y="73.422099" style="stroke: #000000; stroke-width: 0.8"/>
      </g>
     </g>
     <g id="text_11">
      <!-- 0.6 -->
      <g transform="translate(20.878125 77.221317) scale(0.1 -0.1)">
       <use xlink:href="#DejaVuSans-30"/>
       <use xlink:href="#DejaVuSans-2e" transform="translate(63.623047 0)"/>
       <use xlink:href="#DejaVuSans-36" transform="translate(95.410156 0)"/>
      </g>
     </g>
    </g>
    <g id="ytick_5">
     <g id="line2d_11">
      <g>
       <use xlink:href="#m1b011b85ef" x="43.78125" y="43.990055" style="stroke: #000000; stroke-width: 0.8"/>
      </g>
     </g>
     <g id="text_12">
      <!-- 0.8 -->
      <g transform="translate(20.878125 47.789274) scale(0.1 -0.1)">
       <use xlink:href="#DejaVuSans-30"/>
       <use xlink:href="#DejaVuSans-2e" transform="translate(63.623047 0)"/>
       <use xlink:href="#DejaVuSans-38" transform="translate(95.410156 0)"/>
      </g>
     </g>
    </g>
    <g id="ytick_6">
     <g id="line2d_12">
      <g>
       <use xlink:href="#m1b011b85ef" x="43.78125" y="14.558011" style="stroke: #000000; stroke-width: 0.8"/>
      </g>
     </g>
     <g id="text_13">
      <!-- 1.0 -->
      <g transform="translate(20.878125 18.35723) scale(0.1 -0.1)">
       <use xlink:href="#DejaVuSans-31"/>
       <use xlink:href="#DejaVuSans-2e" transform="translate(63.623047 0)"/>
       <use xlink:href="#DejaVuSans-30" transform="translate(95.410156 0)"/>
      </g>
     </g>
    </g>
    <g id="text_14">
     <!-- F1-score -->
     <g transform="translate(14.798438 109.43187) rotate(-90) scale(0.1 -0.1)">
      <defs>
       <path id="DejaVuSans-46" d="M 628 4666 
L 3309 4666 
L 3309 4134 
L 1259 4134 
L 1259 2759 
L 3109 2759 
L 3109 2228 
L 1259 2228 
L 1259 0 
L 628 0 
L 628 4666 
z
" transform="scale(0.015625)"/>
       <path id="DejaVuSans-2d" d="M 313 2009 
L 1997 2009 
L 1997 1497 
L 313 1497 
L 313 2009 
z
" transform="scale(0.015625)"/>
       <path id="DejaVuSans-63" d="M 3122 3366 
L 3122 2828 
Q 2878 2963 2633 3030 
Q 2388 3097 2138 3097 
Q 1578 3097 1268 2742 
Q 959 2388 959 1747 
Q 959 1106 1268 751 
Q 1578 397 2138 397 
Q 2388 397 2633 464 
Q 2878 531 3122 666 
L 3122 134 
Q 2881 22 2623 -34 
Q 2366 -91 2075 -91 
Q 1284 -91 818 406 
Q 353 903 353 1747 
Q 353 2603 823 3093 
Q 1294 3584 2113 3584 
Q 2378 3584 2631 3529 
Q 2884 3475 3122 3366 
z
" transform="scale(0.015625)"/>
       <path id="DejaVuSans-6f" d="M 1959 3097 
Q 1497 3097 1228 2736 
Q 959 2375 959 1747 
Q 959 1119 1226 758 
Q 1494 397 1959 397 
Q 2419 397 2687 759 
Q 2956 1122 2956 1747 
Q 2956 2369 2687 2733 
Q 2419 3097 1959 3097 
z
M 1959 3584 
Q 2709 3584 3137 3096 
Q 3566 2609 3566 1747 
Q 3566 888 3137 398 
Q 2709 -91 1959 -91 
Q 1206 -91 779 398 
Q 353 888 353 1747 
Q 353 2609 779 3096 
Q 1206 3584 1959 3584 
z
" transform="scale(0.015625)"/>
       <path id="DejaVuSans-72" d="M 2631 2963 
Q 2534 3019 2420 3045 
Q 2306 3072 2169 3072 
Q 1681 3072 1420 2755 
Q 1159 2438 1159 1844 
L 1159 0 
L 581 0 
L 581 3500 
L 1159 3500 
L 1159 2956 
Q 1341 3275 1631 3429 
Q 1922 3584 2338 3584 
Q 2397 3584 2469 3576 
Q 2541 3569 2628 3553 
L 2631 2963 
z
" transform="scale(0.015625)"/>
      </defs>
      <use xlink:href="#DejaVuSans-46"/>
      <use xlink:href="#DejaVuSans-31" transform="translate(57.519531 0)"/>
      <use xlink:href="#DejaVuSans-2d" transform="translate(121.142578 0)"/>
      <use xlink:href="#DejaVuSans-73" transform="translate(157.226562 0)"/>
      <use xlink:href="#DejaVuSans-63" transform="translate(209.326172 0)"/>
      <use xlink:href="#DejaVuSans-6f" transform="translate(264.306641 0)"/>
      <use xlink:href="#DejaVuSans-72" transform="translate(325.488281 0)"/>
      <use xlink:href="#DejaVuSans-65" transform="translate(364.351562 0)"/>
     </g>
    </g>
   </g>
   <g id="line2d_13">
    <path d="M 55.76407 161.71823 
L 60.48848 161.71823 
L 60.917972 45.920031 
L 61.347463 43.990053 
L 61.776955 41.095103 
L 62.206447 50.814885 
L 62.635939 51.897175 
L 63.06543 49.876465 
L 63.494922 52.859989 
L 63.924414 43.990053 
L 64.353906 61.760344 
L 64.783397 54.267918 
L 65.212889 39.084708 
L 65.642381 60.682861 
L 66.071873 36.475497 
L 66.501365 39.462047 
L 66.930856 50.353745 
L 67.360348 48.895398 
L 67.78984 40.971391 
L 68.219332 59.152018 
L 68.648823 41.994657 
L 69.078315 46.298448 
L 69.507807 40.151086 
L 69.937299 40.527469 
L 70.36679 56.960116 
L 70.796282 50.744951 
L 71.225774 54.692613 
L 71.655266 34.69572 
L 72.084758 51.971627 
L 72.514249 49.596147 
L 72.943741 43.990053 
L 73.373233 52.710664 
L 73.802725 46.749309 
L 74.232216 50.814885 
L 74.661708 56.603785 
L 75.520692 29.487314 
L 75.950183 33.212129 
L 76.379675 57.28194 
L 76.809167 49.793557 
L 77.238659 36.855019 
L 77.668151 52.710664 
L 78.097642 44.796411 
L 78.527134 45.539114 
L 78.956626 56.603785 
L 79.386118 45.648205 
L 79.815609 54.692613 
L 80.245101 27.029216 
L 80.674593 61.760344 
L 81.104085 39.403234 
L 81.533576 161.71823 
L 90.552904 161.71823 
L 90.982395 45.100701 
L 91.411887 54.692613 
L 91.841379 45.77382 
L 92.270871 43.990053 
L 92.700362 49.341337 
L 93.129854 63.611414 
L 93.988838 50.233217 
L 94.418329 37.198043 
L 94.847821 36.053327 
L 95.277313 50.450748 
L 95.706805 54.692613 
L 96.136297 47.504327 
L 96.565788 66.937077 
L 96.99528 63.611414 
L 97.424772 38.01833 
L 97.854264 55.569879 
L 98.283755 40.31106 
L 98.713247 47.088167 
L 99.142739 42.588536 
L 99.572231 49.793557 
L 100.001722 47.787741 
L 100.431214 52.291398 
L 100.860706 55.153929 
L 101.290198 43.990053 
L 101.71969 50.653912 
L 102.149181 51.971627 
L 102.578673 50.915239 
L 103.008165 40.836627 
L 103.437657 37.006177 
L 103.867148 65.302915 
L 104.29664 45.100701 
L 104.726132 40.25266 
L 105.155624 38.293534 
L 106.014607 59.152018 
L 106.444099 45.648205 
L 106.873591 54.692613 
L 107.303082 44.855706 
L 107.732574 41.666474 
L 108.162066 66.776147 
L 109.02105 40.971391 
L 109.450541 54.331046 
L 109.880033 37.551795 
L 110.309525 48.518059 
L 110.739017 44.924404 
L 111.168508 33.212129 
L 111.598 161.71823 
L 120.617327 161.71823 
L 121.046819 60.394807 
L 121.476311 49.596147 
L 122.335294 37.006177 
L 122.764786 58.514949 
L 123.194278 53.800734 
L 123.62377 52.534841 
L 124.053261 38.01833 
L 124.482753 40.527469 
L 124.912245 44.796411 
L 125.341737 51.791321 
L 125.771229 38.293534 
L 126.20072 62.102079 
L 126.630212 75.153392 
L 127.059704 49.596147 
L 127.489196 44.74473 
L 127.918687 54.692613 
L 128.348179 53.800734 
L 128.777671 34.93404 
L 129.207163 61.760344 
L 129.636654 41.666474 
L 130.066146 48.245285 
L 130.495638 42.737633 
L 130.92513 55.080389 
L 131.354622 49.183943 
L 131.784113 56.603785 
L 132.213605 57.574081 
L 132.643097 47.787741 
L 133.072589 42.283851 
L 133.50208 60.394807 
L 133.931572 44.855706 
L 134.361064 52.534841 
L 134.790556 37.006177 
L 135.220047 42.150552 
L 135.649539 43.990053 
L 136.079031 49.183943 
L 136.508523 43.990053 
L 136.938014 59.687146 
L 137.367506 43.990053 
L 137.796998 39.68292 
L 138.22649 43.11148 
L 138.655982 40.25266 
L 139.085473 60.043897 
L 139.514965 55.080389 
L 139.944457 52.399208 
L 140.373949 51.348066 
L 140.80344 53.046066 
L 141.232932 41.314415 
L 141.662424 161.71823 
L 150.681751 161.71823 
L 151.111243 43.990053 
L 151.540735 41.666474 
L 151.970226 51.348066 
L 152.399718 47.26028 
L 152.82921 26.237393 
L 153.258702 42.588536 
L 153.688193 45.920031 
L 154.117685 39.084708 
L 154.547177 60.545579 
L 154.976669 58.308347 
L 155.406161 39.827947 
L 155.835652 47.504327 
L 156.265144 66.776147 
L 156.694636 49.596147 
L 157.124128 47.047924 
L 157.553619 49.596147 
L 157.983111 63.611414 
L 158.412603 46.696452 
L 158.842095 43.272199 
L 159.271586 59.152018 
L 159.701078 52.069437 
L 160.13057 52.534841 
L 160.560062 42.499822 
L 160.989554 48.518059 
L 161.419045 41.936652 
L 161.848537 66.262957 
L 162.278029 54.692613 
L 162.707521 35.580898 
L 163.137012 39.785484 
L 163.566504 51.971627 
L 163.995996 45.004952 
L 164.425488 45.539114 
L 164.854979 46.749309 
L 165.284471 73.422104 
L 165.713963 43.172503 
L 166.143455 45.77382 
L 166.572946 63.611414 
L 167.002438 46.092337 
L 167.43193 49.341337 
L 167.861422 51.348066 
L 168.290914 49.077072 
L 168.720405 68.283167 
L 169.149897 61.859514 
L 169.579389 41.502843 
L 170.008881 55.261896 
L 170.867864 51.348066 
L 171.297356 42.858056 
L 171.726848 161.71823 
L 180.746175 161.71823 
L 181.175667 58.308347 
L 181.605158 41.994657 
L 182.464142 53.800734 
L 182.893634 31.669664 
L 183.323125 41.314415 
L 184.182109 54.267918 
L 184.611601 40.971391 
L 185.041093 46.549355 
L 185.470584 50.233217 
L 185.900076 47.787741 
L 186.329568 59.345893 
L 186.75906 47.26028 
L 187.188551 56.290014 
L 187.618043 38.774243 
L 188.047535 57.28194 
L 188.477027 50.814885 
L 188.906518 37.793834 
L 189.33601 59.838076 
L 189.765502 58.084272 
L 190.194994 38.718641 
L 190.624486 74.048314 
L 191.053977 43.990053 
L 191.483469 60.228422 
L 191.912961 50.079445 
L 192.342453 51.348066 
L 192.771944 39.68292 
L 193.201436 56.603785 
L 193.630928 32.953038 
L 194.06042 37.607204 
L 194.489911 46.092337 
L 194.919403 39.68292 
L 195.348895 50.744951 
L 195.778387 52.534841 
L 196.207878 38.293534 
L 196.63737 50.744951 
L 197.066862 27.936209 
L 197.496354 42.957348 
L 197.925846 62.102079 
L 199.214321 40.836627 
L 199.643813 50.079445 
L 200.073304 43.990053 
L 200.502796 65.219727 
L 200.932288 33.212129 
L 201.36178 46.376435 
L 201.791271 161.71823 
L 210.810599 161.71823 
L 211.24009 45.77382 
L 211.669582 69.743093 
L 212.099074 45.77382 
L 212.528566 46.749309 
L 212.958057 48.194639 
L 213.387549 55.569879 
L 213.817041 58.939653 
L 214.246533 34.542729 
L 214.676025 36.475497 
L 215.105516 57.840426 
L 215.535008 50.653912 
L 215.9645 47.26028 
L 216.393992 49.793557 
L 216.823483 59.607054 
L 217.252975 34.855974 
L 217.682467 44.796411 
L 218.111959 49.411754 
L 218.54145 48.828191 
L 218.970942 39.360298 
L 219.400434 37.357482 
L 219.829926 63.611414 
L 220.259418 56.960116 
L 220.688909 56.603785 
L 221.118401 50.653912 
L 221.547893 56.891769 
L 221.977385 40.31106 
L 222.406876 54.178063 
L 222.836368 49.451673 
L 223.26586 51.348066 
L 223.695352 55.762868 
L 224.124843 48.828191 
L 224.554335 55.080389 
L 224.983827 68.070819 
L 225.413319 59.607054 
L 225.84281 36.475497 
L 226.272302 55.153929 
L 226.701794 56.603785 
L 227.131286 51.348066 
L 227.560778 47.504327 
L 227.990269 37.793834 
L 228.419761 44.855706 
L 228.849253 43.172503 
L 229.278745 48.194639 
L 229.708236 55.153929 
L 230.137728 45.100701 
L 230.56722 54.692613 
L 230.996712 69.382403 
L 231.426203 52.710664 
L 231.855695 161.71823 
L 240.875022 161.71823 
L 241.304514 60.808363 
L 241.734006 46.861478 
L 242.163498 71.925557 
L 242.592989 48.518059 
L 243.022481 47.26028 
L 243.451973 48.120871 
L 243.881465 47.26028 
L 244.310957 52.291398 
L 244.740448 37.006177 
L 245.16994 46.696452 
L 245.599432 48.999769 
L 246.458415 61.64928 
L 246.887907 47.047924 
L 247.317399 50.233217 
L 248.176382 42.150552 
L 248.605874 55.569879 
L 249.035366 46.983138 
L 249.464858 49.793557 
L 249.894349 48.194639 
L 250.323841 43.040624 
L 250.753333 41.809905 
L 251.182825 42.858056 
L 251.612317 42.283851 
L 252.041808 65.395173 
L 252.4713 47.914322 
L 252.900792 43.172503 
L 253.330284 41.502843 
L 253.759775 34.93404 
L 254.189267 45.648205 
L 254.618759 41.153231 
L 255.048251 54.692613 
L 255.477742 60.808363 
L 255.907234 45.539114 
L 256.336726 46.549355 
L 256.766218 50.079445 
L 257.19571 55.569879 
L 257.625201 47.26028 
L 258.054693 43.990053 
L 258.484185 54.331046 
L 258.913677 43.990053 
L 259.343168 47.047924 
L 259.77266 48.518059 
L 260.202152 62.229624 
L 260.631644 59.048313 
L 261.061135 60.682861 
L 261.490627 36.270175 
L 261.920119 161.71823 
L 270.939446 161.71823 
L 271.368938 43.990053 
L 271.79843 45.539114 
L 272.227921 53.676548 
L 272.657413 55.762868 
L 273.086905 42.499822 
L 273.516397 43.990053 
L 273.945889 29.066759 
L 274.37538 42.283851 
L 274.804872 60.228422 
L 275.234364 48.781325 
L 275.663856 51.348066 
L 276.093347 49.411754 
L 276.522839 59.345893 
L 276.952331 63.611414 
L 277.381823 42.399134 
L 277.811314 56.891769 
L 278.240806 48.518059 
L 278.670298 58.70607 
L 279.09979 52.069437 
L 279.529281 34.855974 
L 279.958773 36.732842 
L 280.817757 63.611414 
L 281.247249 47.914322 
L 281.67674 39.462047 
L 282.106232 48.518059 
L 282.535724 30.909137 
L 282.965216 58.70607 
L 283.394707 50.353745 
L 283.824199 58.161039 
L 284.253691 46.092337 
L 284.683183 56.603785 
L 285.112674 37.793834 
L 285.542166 41.809905 
L 285.971658 41.666474 
L 286.40115 47.787741 
L 286.830642 45.920031 
L 287.260133 55.027068 
L 287.689625 52.291398 
L 288.119117 54.267918 
L 288.548609 52.534841 
L 288.9781 43.990053 
L 289.407592 50.079445 
L 289.837084 38.01833 
L 290.266576 48.194639 
L 290.696067 54.267918 
L 291.125559 58.70607 
L 291.555051 47.26028 
L 291.984543 161.71823 
L 295.420477 161.71823 
L 295.420477 161.71823 
" clip-path="url(#p2a03f5d54f)" style="fill: none; stroke: #1f77b4; stroke-width: 1.5; stroke-linecap: square"/>
   </g>
   <g id="line2d_14">
    <path d="M 55.76407 161.71823 
L 59.629496 161.71823 
L 60.058988 14.558011 
L 81.104085 14.558011 
L 81.533576 161.71823 
L 89.69392 161.71823 
L 90.123412 14.558011 
L 111.168508 14.558011 
L 111.598 161.71823 
L 119.758344 161.71823 
L 120.187836 14.558011 
L 141.232932 14.558011 
L 141.662424 161.71823 
L 149.822768 161.71823 
L 150.252259 14.558011 
L 171.297356 14.558011 
L 171.726848 161.71823 
L 179.887191 161.71823 
L 180.316683 14.558011 
L 201.36178 14.558011 
L 201.791271 161.71823 
L 209.951615 161.71823 
L 210.381107 14.558011 
L 231.426203 14.558011 
L 231.855695 161.71823 
L 240.016039 161.71823 
L 240.445531 14.558011 
L 261.490627 14.558011 
L 261.920119 161.71823 
L 270.080463 161.71823 
L 270.509954 14.558011 
L 291.555051 14.558011 
L 291.984543 161.71823 
L 295.420477 161.71823 
L 295.420477 161.71823 
" clip-path="url(#p2a03f5d54f)" style="fill: none; stroke: #ff7f0e; stroke-width: 1.5; stroke-linecap: square"/>
   </g>
   <g id="line2d_15">
    <path d="M 55.76407 161.71823 
L 59.629496 161.71823 
L 60.058988 14.558011 
L 60.917972 14.558011 
L 61.347463 161.71823 
L 89.69392 161.71823 
L 90.123412 14.558011 
L 90.982395 14.558011 
L 91.411887 161.71823 
L 119.758344 161.71823 
L 120.187836 14.558011 
L 121.046819 14.558011 
L 121.476311 161.71823 
L 149.822768 161.71823 
L 150.252259 14.558011 
L 151.111243 14.558011 
L 151.540735 161.71823 
L 179.887191 161.71823 
L 180.316683 14.558011 
L 181.175667 14.558011 
L 181.605158 161.71823 
L 209.951615 161.71823 
L 210.381107 14.558011 
L 211.24009 14.558011 
L 211.669582 161.71823 
L 240.016039 161.71823 
L 240.445531 14.558011 
L 241.304514 14.558011 
L 241.734006 161.71823 
L 270.080463 161.71823 
L 270.509954 14.558011 
L 271.368938 14.558011 
L 271.79843 161.71823 
L 295.420477 161.71823 
L 295.420477 161.71823 
" clip-path="url(#p2a03f5d54f)" style="fill: none; stroke: #2ca02c; stroke-width: 1.5; stroke-linecap: square"/>
   </g>
   <g id="patch_3">
    <path d="M 43.78125 169.076241 
L 43.78125 7.2 
" style="fill: none; stroke: #000000; stroke-width: 0.8; stroke-linejoin: miter; stroke-linecap: square"/>
   </g>
   <g id="patch_4">
    <path d="M 307.403297 169.076241 
L 307.403297 7.2 
" style="fill: none; stroke: #000000; stroke-width: 0.8; stroke-linejoin: miter; stroke-linecap: square"/>
   </g>
   <g id="patch_5">
    <path d="M 43.78125 169.076241 
L 307.403297 169.076241 
" style="fill: none; stroke: #000000; stroke-width: 0.8; stroke-linejoin: miter; stroke-linecap: square"/>
   </g>
   <g id="patch_6">
    <path d="M 43.78125 7.2 
L 307.403297 7.2 
" style="fill: none; stroke: #000000; stroke-width: 0.8; stroke-linejoin: miter; stroke-linecap: square"/>
   </g>
  </g>
 </g>
 <defs>
  <clipPath id="p2a03f5d54f">
   <rect x="43.78125" y="7.2" width="263.622047" height="161.876241"/>
  </clipPath>
 </defs>
</svg>
