<?xml version="1.0" encoding="utf-8" standalone="no"?>
<!DOCTYPE svg PUBLIC "-//W3C//DTD SVG 1.1//EN"
  "http://www.w3.org/Graphics/SVG/1.1/DTD/svg11.dtd">
<svg xmlns:xlink="http://www.w3.org/1999/xlink" width="380.508809pt" height="241.197195pt" viewBox="0 0 380.508809 241.197195" xmlns="http://www.w3.org/2000/svg" version="1.1">
 <metadata>
  <rdf:RDF xmlns:dc="http://purl.org/dc/elements/1.1/" xmlns:cc="http://creativecommons.org/ns#" xmlns:rdf="http://www.w3.org/1999/02/22-rdf-syntax-ns#">
   <cc:Work>
    <dc:type rdf:resource="http://purl.org/dc/dcmitype/StillImage"/>
    <dc:date>2026-04-16T10:25:06.997234</dc:date>
    <dc:format>image/svg+xml</dc:format>
    <dc:creator>
     <cc:Agent>
      <dc:title>Matplotlib v3.10.8, https://matplotlib.org/</dc:title>
     </cc:Agent>
    </dc:creator>
   </cc:Work>
  </rdf:RDF>
 </metadata>
 <defs>
  <style type="text/css">*{stroke-linejoin: round; stroke-linecap: butt}</style>
 </defs>
 <g id="figure_1">
  <g id="patch_1">
   <path d="M 0 241.197195 
L 380.508809 241.197195 
L 380.508809 0 
L 0 0 
L 0 241.197195 
z
" style="fill: none"/>
  </g>
  <g id="axes_1">
   <g id="patch_2">
    <path d="M 43.78125 203.640945 
L 373.308809 203.640945 
L 373.308809 7.2 
L 43.78125 7.2 
L 43.78125 203.640945 
z
" style="fill: none"/>
   </g>
   <g id="matplotlib.axis_1">
    <g id="xtick_1">
     <g id="line2d_1">
      <defs>
       <path id="m57e050e0f9" d="M 0 0 
L 0 3.5 
" style="stroke: #000000; stroke-width: 0.8"/>
      </defs>
      <g>
       <use xlink:href="#m57e050e0f9" x="58.759775" y="203.640945" style="stroke: #000000; stroke-width: 0.8"/>
      </g>
     </g>
     <g id="text_1">
      <!-- 0 -->
      <g transform="translate(55.578525 218.239382) scale(0.1 -0.1)">
       <defs>
        <path id="DejaVuSans-30" d="M 2034 4250 
Q 1547 4250 1301 3770 
Q 1056 3291 1056 2328 
Q 1056 1369 1301 889 
Q 1547 409 2034 409 
Q 2525 409 2770 889 
Q 3016 1369 3016 2328 
Q 3016 3291 2770 3770 
Q 2525 4250 2034 4250 
z
M 2034 4750 
Q 2819 4750 3233 4129 
Q 3647 3509 3647 2328 
Q 3647 1150 3233 529 
Q 2819 -91 2034 -91 
Q 1250 -91 836 529 
Q 422 1150 422 2328 
Q 422 3509 836 4129 
Q 1250 4750 2034 4750 
z
" transform="scale(0.015625)"/>
       </defs>
       <use xlink:href="#DejaVuSans-30"/>
      </g>
     </g>
    </g>
    <g id="xtick_2">
     <g id="line2d_2">
      <g>
       <use xlink:href="#m57e050e0f9" x="125.747814" y="203.640945" style="stroke: #000000; stroke-width: 0.8"/>
      </g>
     </g>
     <g id="text_2">
      <!-- 5000 -->
      <g transform="translate(113.022814 218.239382) scale(0.1 -0.1)">
       <defs>
        <path id="DejaVuSans-35" d="M 691 4666 
L 3169 4666 
L 3169 4134 
L 1269 4134 
L 1269 2991 
Q 1406 3038 1543 3061 
Q 1681 3084 1819 3084 
Q 2600 3084 3056 2656 
Q 3513 2228 3513 1497 
Q 3513 744 3044 326 
Q 2575 -91 1722 -91 
Q 1428 -91 1123 -41 
Q 819 9 494 109 
L 494 744 
Q 775 591 1075 516 
Q 1375 441 1709 441 
Q 2250 441 2565 725 
Q 2881 1009 2881 1497 
Q 2881 1984 2565 2268 
Q 2250 2553 1709 2553 
Q 1456 2553 1204 2497 
Q 953 2441 691 2322 
L 691 4666 
z
" transform="scale(0.015625)"/>
       </defs>
       <use xlink:href="#DejaVuSans-35"/>
       <use xlink:href="#DejaVuSans-30" transform="translate(63.623047 0)"/>
       <use xlink:href="#DejaVuSans-30" transform="translate(127.246094 0)"/>
       <use xlink:href="#DejaVuSans-30" transform="translate(190.869141 0)"/>
      </g>
     </g>
    </g>
    <g id="xtick_3">
     <g id="line2d_3">
      <g>
       <use xlink:href="#m57e050e0f9" x="192.735852" y="203.640945" style="stroke: #000000; stroke-width: 0.8"/>
      </g>
     </g>
     <g id="text_3">
      <!-- 10000 -->
      <g transform="translate(176.829602 218.239382) scale(0.1 -0.1)">
       <defs>
        <path id="DejaVuSans-31" d="M 794 531 
L 1825 531 
L 1825 4091 
L 703 3866 
L 703 4441 
L 1819 4666 
L 2450 4666 
L 2450 531 
L 3481 531 
L 3481 0 
L 794 0 
L 794 531 
z
" transform="scale(0.015625)"/>
       </defs>
       <use xlink:href="#DejaVuSans-31"/>
       <use xlink:href="#DejaVuSans-30" transform="translate(63.623047 0)"/>
       <use xlink:href="#DejaVuSans-30" transform="translate(127.246094 0)"/>
       <use xlink:href="#DejaVuSans-30" transform="translate(190.869141 0)"/>
       <use xlink:href="#DejaVuSans-30" transform="translate(254.492188 0)"/>
      </g>
     </g>
    </g>
    <g id="xtick_4">
     <g id="line2d_4">
      <g>
       <use xlink:href="#m57e050e0f9" x="259.723891" y="203.640945" style="stroke: #000000; stroke-width: 0.8"/>
      </g>
     </g>
     <g id="text_4">
      <!-- 15000 -->
      <g transform="translate(243.817641 218.239382) scale(0.1 -0.1)">
       <use xlink:href="#DejaVuSans-31"/>
       <use xlink:href="#DejaVuSans-35" transform="translate(63.623047 0)"/>
       <use xlink:href="#DejaVuSans-30" transform="translate(127.246094 0)"/>
       <use xlink:href="#DejaVuSans-30" transform="translate(190.869141 0)"/>
       <use xlink:href="#DejaVuSans-30" transform="translate(254.492188 0)"/>
      </g>
     </g>
    </g>
    <g id="xtick_5">
     <g id="line2d_5">
      <g>
       <use xlink:href="#m57e050e0f9" x="326.711929" y="203.640945" style="stroke: #000000; stroke-width: 0.8"/>
      </g>
     </g>
     <g id="text_5">
      <!-- 20000 -->
      <g transform="translate(310.805679 218.239382) scale(0.1 -0.1)">
       <defs>
        <path id="DejaVuSans-32" d="M 1228 531 
L 3431 531 
L 3431 0 
L 469 0 
L 469 531 
Q 828 903 1448 1529 
Q 2069 2156 2228 2338 
Q 2531 2678 2651 2914 
Q 2772 3150 2772 3378 
Q 2772 3750 2511 3984 
Q 2250 4219 1831 4219 
Q 1534 4219 1204 4116 
Q 875 4013 500 3803 
L 500 4441 
Q 881 4594 1212 4672 
Q 1544 4750 1819 4750 
Q 2544 4750 2975 4387 
Q 3406 4025 3406 3419 
Q 3406 3131 3298 2873 
Q 3191 2616 2906 2266 
Q 2828 2175 2409 1742 
Q 1991 1309 1228 531 
z
" transform="scale(0.015625)"/>
       </defs>
       <use xlink:href="#DejaVuSans-32"/>
       <use xlink:href="#DejaVuSans-30" transform="translate(63.623047 0)"/>
       <use xlink:href="#DejaVuSans-30" transform="translate(127.246094 0)"/>
       <use xlink:href="#DejaVuSans-30" transform="translate(190.869141 0)"/>
       <use xlink:href="#DejaVuSans-30" transform="translate(254.492188 0)"/>
      </g>
     </g>
    </g>
    <g id="text_6">
     <!-- Time step (ms) -->
     <g transform="translate(170.941123 231.917507) scale(0.1 -0.1)">
      <defs>
       <path id="DejaVuSans-54" d="M -19 4666 
L 3928 4666 
L 3928 4134 
L 2272 4134 
L 2272 0 
L 1638 0 
L 1638 4134 
L -19 4134 
L -19 4666 
z
" transform="scale(0.015625)"/>
       <path id="DejaVuSans-69" d="M 603 3500 
L 1178 3500 
L 1178 0 
L 603 0 
L 603 3500 
z
M 603 4863 
L 1178 4863 
L 1178 4134 
L 603 4134 
L 603 4863 
z
" transform="scale(0.015625)"/>
       <path id="DejaVuSans-6d" d="M 3328 2828 
Q 3544 3216 3844 3400 
Q 4144 3584 4550 3584 
Q 5097 3584 5394 3201 
Q 5691 2819 5691 2113 
L 5691 0 
L 5113 0 
L 5113 2094 
Q 5113 2597 4934 2840 
Q 4756 3084 4391 3084 
Q 3944 3084 3684 2787 
Q 3425 2491 3425 1978 
L 3425 0 
L 2847 0 
L 2847 2094 
Q 2847 2600 2669 2842 
Q 2491 3084 2119 3084 
Q 1678 3084 1418 2786 
Q 1159 2488 1159 1978 
L 1159 0 
L 581 0 
L 581 3500 
L 1159 3500 
L 1159 2956 
Q 1356 3278 1631 3431 
Q 1906 3584 2284 3584 
Q 2666 3584 2933 3390 
Q 3200 3197 3328 2828 
z
" transform="scale(0.015625)"/>
       <path id="DejaVuSans-65" d="M 3597 1894 
L 3597 1613 
L 953 1613 
Q 991 1019 1311 708 
Q 1631 397 2203 397 
Q 2534 397 2845 478 
Q 3156 559 3463 722 
L 3463 178 
Q 3153 47 2828 -22 
Q 2503 -91 2169 -91 
Q 1331 -91 842 396 
Q 353 884 353 1716 
Q 353 2575 817 3079 
Q 1281 3584 2069 3584 
Q 2775 3584 3186 3129 
Q 3597 2675 3597 1894 
z
M 3022 2063 
Q 3016 2534 2758 2815 
Q 2500 3097 2075 3097 
Q 1594 3097 1305 2825 
Q 1016 2553 972 2059 
L 3022 2063 
z
" transform="scale(0.015625)"/>
       <path id="DejaVuSans-20" transform="scale(0.015625)"/>
       <path id="DejaVuSans-73" d="M 2834 3397 
L 2834 2853 
Q 2591 2978 2328 3040 
Q 2066 3103 1784 3103 
Q 1356 3103 1142 2972 
Q 928 2841 928 2578 
Q 928 2378 1081 2264 
Q 1234 2150 1697 2047 
L 1894 2003 
Q 2506 1872 2764 1633 
Q 3022 1394 3022 966 
Q 3022 478 2636 193 
Q 2250 -91 1575 -91 
Q 1294 -91 989 -36 
Q 684 19 347 128 
L 347 722 
Q 666 556 975 473 
Q 1284 391 1588 391 
Q 1994 391 2212 530 
Q 2431 669 2431 922 
Q 2431 1156 2273 1281 
Q 2116 1406 1581 1522 
L 1381 1569 
Q 847 1681 609 1914 
Q 372 2147 372 2553 
Q 372 3047 722 3315 
Q 1072 3584 1716 3584 
Q 2034 3584 2315 3537 
Q 2597 3491 2834 3397 
z
" transform="scale(0.015625)"/>
       <path id="DejaVuSans-74" d="M 1172 4494 
L 1172 3500 
L 2356 3500 
L 2356 3053 
L 1172 3053 
L 1172 1153 
Q 1172 725 1289 603 
Q 1406 481 1766 481 
L 2356 481 
L 2356 0 
L 1766 0 
Q 1100 0 847 248 
Q 594 497 594 1153 
L 594 3053 
L 172 3053 
L 172 3500 
L 594 3500 
L 594 4494 
L 1172 4494 
z
" transform="scale(0.015625)"/>
       <path id="DejaVuSans-70" d="M 1159 525 
L 1159 -1331 
L 581 -1331 
L 581 3500 
L 1159 3500 
L 1159 2969 
Q 1341 3281 1617 3432 
Q 1894 3584 2278 3584 
Q 2916 3584 3314 3078 
Q 3713 2572 3713 1747 
Q 3713 922 3314 415 
Q 2916 -91 2278 -91 
Q 1894 -91 1617 61 
Q 1341 213 1159 525 
z
M 3116 1747 
Q 3116 2381 2855 2742 
Q 2594 3103 2138 3103 
Q 1681 3103 1420 2742 
Q 1159 2381 1159 1747 
Q 1159 1113 1420 752 
Q 1681 391 2138 391 
Q 2594 391 2855 752 
Q 3116 1113 3116 1747 
z
" transform="scale(0.015625)"/>
       <path id="DejaVuSans-28" d="M 1984 4856 
Q 1566 4138 1362 3434 
Q 1159 2731 1159 2009 
Q 1159 1288 1364 580 
Q 1569 -128 1984 -844 
L 1484 -844 
Q 1016 -109 783 600 
Q 550 1309 550 2009 
Q 550 2706 781 3412 
Q 1013 4119 1484 4856 
L 1984 4856 
z
" transform="scale(0.015625)"/>
       <path id="DejaVuSans-29" d="M 513 4856 
L 1013 4856 
Q 1481 4119 1714 3412 
Q 1947 2706 1947 2009 
Q 1947 1309 1714 600 
Q 1481 -109 1013 -844 
L 513 -844 
Q 928 -128 1133 580 
Q 1338 1288 1338 2009 
Q 1338 2731 1133 3434 
Q 928 4138 513 4856 
z
" transform="scale(0.015625)"/>
      </defs>
      <use xlink:href="#DejaVuSans-54"/>
      <use xlink:href="#DejaVuSans-69" transform="translate(57.958984 0)"/>
      <use xlink:href="#DejaVuSans-6d" transform="translate(85.742188 0)"/>
      <use xlink:href="#DejaVuSans-65" transform="translate(183.154297 0)"/>
      <use xlink:href="#DejaVuSans-20" transform="translate(244.677734 0)"/>
      <use xlink:href="#DejaVuSans-73" transform="translate(276.464844 0)"/>
      <use xlink:href="#DejaVuSans-74" transform="translate(328.564453 0)"/>
      <use xlink:href="#DejaVuSans-65" transform="translate(367.773438 0)"/>
      <use xlink:href="#DejaVuSans-70" transform="translate(429.296875 0)"/>
      <use xlink:href="#DejaVuSans-20" transform="translate(492.773438 0)"/>
      <use xlink:href="#DejaVuSans-28" transform="translate(524.560547 0)"/>
      <use xlink:href="#DejaVuSans-6d" transform="translate(563.574219 0)"/>
      <use xlink:href="#DejaVuSans-73" transform="translate(660.986328 0)"/>
      <use xlink:href="#DejaVuSans-29" transform="translate(713.085938 0)"/>
     </g>
    </g>
   </g>
   <g id="matplotlib.axis_2">
    <g id="ytick_1">
     <g id="line2d_6">
      <defs>
       <path id="mc7b9285413" d="M 0 0 
L -3.5 0 
" style="stroke: #000000; stroke-width: 0.8"/>
      </defs>
      <g>
       <use xlink:href="#mc7b9285413" x="43.78125" y="194.711811" style="stroke: #000000; stroke-width: 0.8"/>
      </g>
     </g>
     <g id="text_7">
      <!-- 0.0 -->
      <g transform="translate(20.878125 198.51103) scale(0.1 -0.1)">
       <defs>
        <path id="DejaVuSans-2e" d="M 684 794 
L 1344 794 
L 1344 0 
L 684 0 
L 684 794 
z
" transform="scale(0.015625)"/>
       </defs>
       <use xlink:href="#DejaVuSans-30"/>
       <use xlink:href="#DejaVuSans-2e" transform="translate(63.623047 0)"/>
       <use xlink:href="#DejaVuSans-30" transform="translate(95.410156 0)"/>
      </g>
     </g>
    </g>
    <g id="ytick_2">
     <g id="line2d_7">
      <g>
       <use xlink:href="#mc7b9285413" x="43.78125" y="158.995276" style="stroke: #000000; stroke-width: 0.8"/>
      </g>
     </g>
     <g id="text_8">
      <!-- 0.2 -->
      <g transform="translate(20.878125 162.794494) scale(0.1 -0.1)">
       <use xlink:href="#DejaVuSans-30"/>
       <use xlink:href="#DejaVuSans-2e" transform="translate(63.623047 0)"/>
       <use xlink:href="#DejaVuSans-32" transform="translate(95.410156 0)"/>
      </g>
     </g>
    </g>
    <g id="ytick_3">
     <g id="line2d_8">
      <g>
       <use xlink:href="#mc7b9285413" x="43.78125" y="123.27874" style="stroke: #000000; stroke-width: 0.8"/>
      </g>
     </g>
     <g id="text_9">
      <!-- 0.4 -->
      <g transform="translate(20.878125 127.077959) scale(0.1 -0.1)">
       <defs>
        <path id="DejaVuSans-34" d="M 2419 4116 
L 825 1625 
L 2419 1625 
L 2419 4116 
z
M 2253 4666 
L 3047 4666 
L 3047 1625 
L 3713 1625 
L 3713 1100 
L 3047 1100 
L 3047 0 
L 2419 0 
L 2419 1100 
L 313 1100 
L 313 1709 
L 2253 4666 
z
" transform="scale(0.015625)"/>
       </defs>
       <use xlink:href="#DejaVuSans-30"/>
       <use xlink:href="#DejaVuSans-2e" transform="translate(63.623047 0)"/>
       <use xlink:href="#DejaVuSans-34" transform="translate(95.410156 0)"/>
      </g>
     </g>
    </g>
    <g id="ytick_4">
     <g id="line2d_9">
      <g>
       <use xlink:href="#mc7b9285413" x="43.78125" y="87.562205" style="stroke: #000000; stroke-width: 0.8"/>
      </g>
     </g>
     <g id="text_10">
      <!-- 0.6 -->
      <g transform="translate(20.878125 91.361423) scale(0.1 -0.1)">
       <defs>
        <path id="DejaVuSans-36" d="M 2113 2584 
Q 1688 2584 1439 2293 
Q 1191 2003 1191 1497 
Q 1191 994 1439 701 
Q 1688 409 2113 409 
Q 2538 409 2786 701 
Q 3034 994 3034 1497 
Q 3034 2003 2786 2293 
Q 2538 2584 2113 2584 
z
M 3366 4563 
L 3366 3988 
Q 3128 4100 2886 4159 
Q 2644 4219 2406 4219 
Q 1781 4219 1451 3797 
Q 1122 3375 1075 2522 
Q 1259 2794 1537 2939 
Q 1816 3084 2150 3084 
Q 2853 3084 3261 2657 
Q 3669 2231 3669 1497 
Q 3669 778 3244 343 
Q 2819 -91 2113 -91 
Q 1303 -91 875 529 
Q 447 1150 447 2328 
Q 447 3434 972 4092 
Q 1497 4750 2381 4750 
Q 2619 4750 2861 4703 
Q 3103 4656 3366 4563 
z
" transform="scale(0.015625)"/>
       </defs>
       <use xlink:href="#DejaVuSans-30"/>
       <use xlink:href="#DejaVuSans-2e" transform="translate(63.623047 0)"/>
       <use xlink:href="#DejaVuSans-36" transform="translate(95.410156 0)"/>
      </g>
     </g>
    </g>
    <g id="ytick_5">
     <g id="line2d_10">
      <g>
       <use xlink:href="#mc7b9285413" x="43.78125" y="51.845669" style="stroke: #000000; stroke-width: 0.8"/>
      </g>
     </g>
     <g id="text_11">
      <!-- 0.8 -->
      <g transform="translate(20.878125 55.644888) scale(0.1 -0.1)">
       <defs>
        <path id="DejaVuSans-38" d="M 2034 2216 
Q 1584 2216 1326 1975 
Q 1069 1734 1069 1313 
Q 1069 891 1326 650 
Q 1584 409 2034 409 
Q 2484 409 2743 651 
Q 3003 894 3003 1313 
Q 3003 1734 2745 1975 
Q 2488 2216 2034 2216 
z
M 1403 2484 
Q 997 2584 770 2862 
Q 544 3141 544 3541 
Q 544 4100 942 4425 
Q 1341 4750 2034 4750 
Q 2731 4750 3128 4425 
Q 3525 4100 3525 3541 
Q 3525 3141 3298 2862 
Q 3072 2584 2669 2484 
Q 3125 2378 3379 2068 
Q 3634 1759 3634 1313 
Q 3634 634 3220 271 
Q 2806 -91 2034 -91 
Q 1263 -91 848 271 
Q 434 634 434 1313 
Q 434 1759 690 2068 
Q 947 2378 1403 2484 
z
M 1172 3481 
Q 1172 3119 1398 2916 
Q 1625 2713 2034 2713 
Q 2441 2713 2670 2916 
Q 2900 3119 2900 3481 
Q 2900 3844 2670 4047 
Q 2441 4250 2034 4250 
Q 1625 4250 1398 4047 
Q 1172 3844 1172 3481 
z
" transform="scale(0.015625)"/>
       </defs>
       <use xlink:href="#DejaVuSans-30"/>
       <use xlink:href="#DejaVuSans-2e" transform="translate(63.623047 0)"/>
       <use xlink:href="#DejaVuSans-38" transform="translate(95.410156 0)"/>
      </g>
     </g>
    </g>
    <g id="ytick_6">
     <g id="line2d_11">
      <g>
       <use xlink:href="#mc7b9285413" x="43.78125" y="16.129134" style="stroke: #000000; stroke-width: 0.8"/>
      </g>
     </g>
     <g id="text_12">
      <!-- 1.0 -->
      <g transform="translate(20.878125 19.928353) scale(0.1 -0.1)">
       <use xlink:href="#DejaVuSans-31"/>
       <use xlink:href="#DejaVuSans-2e" transform="translate(63.623047 0)"/>
       <use xlink:href="#DejaVuSans-30" transform="translate(95.410156 0)"/>
      </g>
     </g>
    </g>
    <g id="text_13">
     <!-- F1-score -->
     <g transform="translate(14.798438 126.714222) rotate(-90) scale(0.1 -0.1)">
      <defs>
       <path id="DejaVuSans-46" d="M 628 4666 
L 3309 4666 
L 3309 4134 
L 1259 4134 
L 1259 2759 
L 3109 2759 
L 3109 2228 
L 1259 2228 
L 1259 0 
L 628 0 
L 628 4666 
z
" transform="scale(0.015625)"/>
       <path id="DejaVuSans-2d" d="M 313 2009 
L 1997 2009 
L 1997 1497 
L 313 1497 
L 313 2009 
z
" transform="scale(0.015625)"/>
       <path id="DejaVuSans-63" d="M 3122 3366 
L 3122 2828 
Q 2878 2963 2633 3030 
Q 2388 3097 2138 3097 
Q 1578 3097 1268 2742 
Q 959 2388 959 1747 
Q 959 1106 1268 751 
Q 1578 397 2138 397 
Q 2388 397 2633 464 
Q 2878 531 3122 666 
L 3122 134 
Q 2881 22 2623 -34 
Q 2366 -91 2075 -91 
Q 1284 -91 818 406 
Q 353 903 353 1747 
Q 353 2603 823 3093 
Q 1294 3584 2113 3584 
Q 2378 3584 2631 3529 
Q 2884 3475 3122 3366 
z
" transform="scale(0.015625)"/>
       <path id="DejaVuSans-6f" d="M 1959 3097 
Q 1497 3097 1228 2736 
Q 959 2375 959 1747 
Q 959 1119 1226 758 
Q 1494 397 1959 397 
Q 2419 397 2687 759 
Q 2956 1122 2956 1747 
Q 2956 2369 2687 2733 
Q 2419 3097 1959 3097 
z
M 1959 3584 
Q 2709 3584 3137 3096 
Q 3566 2609 3566 1747 
Q 3566 888 3137 398 
Q 2709 -91 1959 -91 
Q 1206 -91 779 398 
Q 353 888 353 1747 
Q 353 2609 779 3096 
Q 1206 3584 1959 3584 
z
" transform="scale(0.015625)"/>
       <path id="DejaVuSans-72" d="M 2631 2963 
Q 2534 3019 2420 3045 
Q 2306 3072 2169 3072 
Q 1681 3072 1420 2755 
Q 1159 2438 1159 1844 
L 1159 0 
L 581 0 
L 581 3500 
L 1159 3500 
L 1159 2956 
Q 1341 3275 1631 3429 
Q 1922 3584 2338 3584 
Q 2397 3584 2469 3576 
Q 2541 3569 2628 3553 
L 2631 2963 
z
" transform="scale(0.015625)"/>
      </defs>
      <use xlink:href="#DejaVuSans-46"/>
      <use xlink:href="#DejaVuSans-31" transform="translate(57.519531 0)"/>
      <use xlink:href="#DejaVuSans-2d" transform="translate(121.142578 0)"/>
      <use xlink:href="#DejaVuSans-73" transform="translate(157.226562 0)"/>
      <use xlink:href="#DejaVuSans-63" transform="translate(209.326172 0)"/>
      <use xlink:href="#DejaVuSans-6f" transform="translate(264.306641 0)"/>
      <use xlink:href="#DejaVuSans-72" transform="translate(325.488281 0)"/>
      <use xlink:href="#DejaVuSans-65" transform="translate(364.351562 0)"/>
     </g>
    </g>
   </g>
   <g id="line2d_12">
    <path d="M 58.759775 194.711811 
L 61.171345 194.711811 
L 61.439297 16.129134 
L 74.568953 16.129134 
L 74.836905 194.711811 
L 79.927996 194.711811 
L 80.195948 16.129134 
L 93.325603 16.129134 
L 93.593555 194.711811 
L 98.684646 194.711811 
L 98.952599 16.129134 
L 112.082254 16.129134 
L 112.350206 194.711811 
L 117.441297 194.711811 
L 117.709249 16.129134 
L 130.838905 16.129134 
L 131.106857 194.711811 
L 136.197948 194.711811 
L 136.4659 16.129134 
L 149.595556 16.129134 
L 149.863508 194.711811 
L 154.954599 194.711811 
L 155.222551 16.129134 
L 168.352206 16.129134 
L 168.620159 194.711811 
L 173.71125 194.711811 
L 173.979202 16.129134 
L 187.108857 16.129134 
L 187.376809 194.711811 
L 192.4679 194.711811 
L 192.735852 16.129134 
L 205.865508 16.129134 
L 206.13346 194.711811 
L 211.224551 194.711811 
L 211.492503 16.129134 
L 224.622159 16.129134 
L 224.890111 194.711811 
L 229.981202 194.711811 
L 230.249154 16.129134 
L 243.37881 16.129134 
L 243.646762 194.711811 
L 248.737853 194.711811 
L 249.005805 16.129134 
L 262.13546 16.129134 
L 262.403412 194.711811 
L 267.494503 194.711811 
L 267.762456 16.129134 
L 280.892111 16.129134 
L 281.160063 194.711811 
L 286.251154 194.711811 
L 286.519106 16.129134 
L 299.648762 16.129134 
L 299.916714 194.711811 
L 305.007805 194.711811 
L 305.275757 16.129134 
L 318.405413 16.129134 
L 318.673365 194.711811 
L 323.764456 194.711811 
L 324.032408 16.129134 
L 337.162063 16.129134 
L 337.430016 194.711811 
L 342.521107 194.711811 
L 342.789059 16.129134 
L 355.918714 16.129134 
L 356.186666 194.711811 
L 358.330284 194.711811 
L 358.330284 194.711811 
" clip-path="url(#p7c9fc3130e)" style="fill: none; stroke: #1f77b4; stroke-opacity: 0.5; stroke-width: 1.5; stroke-linecap: square"/>
   </g>
   <g id="line2d_13">
    <path d="M 58.759775 194.711811 
L 61.171345 194.711811 
L 61.439297 16.129134 
L 61.975201 16.129134 
L 62.243153 194.711811 
L 79.927996 194.711811 
L 80.195948 16.129134 
L 80.731852 16.129134 
L 80.999804 194.711811 
L 98.684646 194.711811 
L 98.952599 16.129134 
L 99.488503 16.129134 
L 99.756455 194.711811 
L 117.441297 194.711811 
L 117.709249 16.129134 
L 118.245154 16.129134 
L 118.513106 194.711811 
L 136.197948 194.711811 
L 136.4659 16.129134 
L 137.001804 16.129134 
L 137.269757 194.711811 
L 154.954599 194.711811 
L 155.222551 16.129134 
L 155.758455 16.129134 
L 156.026407 194.711811 
L 173.71125 194.711811 
L 173.979202 16.129134 
L 174.515106 16.129134 
L 174.783058 194.711811 
L 192.4679 194.711811 
L 192.735852 16.129134 
L 193.271757 16.129134 
L 193.539709 194.711811 
L 211.224551 194.711811 
L 211.492503 16.129134 
L 212.028408 16.129134 
L 212.29636 194.711811 
L 229.981202 194.711811 
L 230.249154 16.129134 
L 230.785058 16.129134 
L 231.05301 194.711811 
L 248.737853 194.711811 
L 249.005805 16.129134 
L 249.541709 16.129134 
L 249.809661 194.711811 
L 267.494503 194.711811 
L 267.762456 16.129134 
L 268.29836 16.129134 
L 268.566312 194.711811 
L 286.251154 194.711811 
L 286.519106 16.129134 
L 287.055011 16.129134 
L 287.322963 194.711811 
L 305.007805 194.711811 
L 305.275757 16.129134 
L 305.811661 16.129134 
L 306.079614 194.711811 
L 323.764456 194.711811 
L 324.032408 16.129134 
L 324.568312 16.129134 
L 324.836264 194.711811 
L 342.521107 194.711811 
L 342.789059 16.129134 
L 343.324963 16.129134 
L 343.592915 194.711811 
L 358.330284 194.711811 
L 358.330284 194.711811 
" clip-path="url(#p7c9fc3130e)" style="fill: none; stroke: #ff7f0e; stroke-opacity: 0.5; stroke-width: 1.5; stroke-linecap: square"/>
   </g>
   <g id="line2d_14">
    <path d="M 58.759775 194.711811 
L 61.707249 194.711811 
L 61.975201 27.528027 
L 62.243153 16.129134 
L 74.568953 16.129134 
L 74.836905 194.711811 
L 80.4639 194.711811 
L 80.731852 16.129134 
L 93.325603 16.129134 
L 93.593555 194.711811 
L 99.220551 194.711811 
L 99.488503 20.708187 
L 99.756455 16.129134 
L 112.082254 16.129134 
L 112.350206 194.711811 
L 117.977201 194.711811 
L 118.245154 16.129134 
L 130.838905 16.129134 
L 131.106857 194.711811 
L 136.733852 194.711811 
L 137.001804 27.528027 
L 137.269757 16.129134 
L 149.595556 16.129134 
L 149.863508 194.711811 
L 155.490503 194.711811 
L 155.758455 16.129134 
L 168.352206 16.129134 
L 168.620159 194.711811 
L 174.247154 194.711811 
L 174.515106 20.097638 
L 174.783058 16.129134 
L 187.108857 16.129134 
L 187.376809 194.711811 
L 193.003805 194.711811 
L 193.271757 37.138859 
L 193.539709 16.129134 
L 205.865508 16.129134 
L 206.13346 194.711811 
L 211.760455 194.711811 
L 212.028408 21.231496 
L 212.29636 16.129134 
L 224.622159 16.129134 
L 224.890111 194.711811 
L 230.517106 194.711811 
L 230.785058 16.129134 
L 243.37881 16.129134 
L 243.646762 194.711811 
L 249.273757 194.711811 
L 249.541709 16.129134 
L 262.13546 16.129134 
L 262.403412 194.711811 
L 268.030408 194.711811 
L 268.29836 20.95569 
L 268.566312 16.129134 
L 280.892111 16.129134 
L 281.160063 194.711811 
L 286.787059 194.711811 
L 287.055011 16.129134 
L 299.648762 16.129134 
L 299.916714 194.711811 
L 305.543709 194.711811 
L 305.811661 16.129134 
L 318.405413 16.129134 
L 318.673365 194.711811 
L 324.30036 194.711811 
L 324.568312 19.630755 
L 324.836264 16.129134 
L 337.162063 16.129134 
L 337.430016 194.711811 
L 343.057011 194.711811 
L 343.324963 23.893596 
L 343.592915 16.129134 
L 355.918714 16.129134 
L 356.186666 194.711811 
L 358.330284 194.711811 
L 358.330284 194.711811 
" clip-path="url(#p7c9fc3130e)" style="fill: none; stroke: #2ca02c; stroke-opacity: 0.5; stroke-width: 1.5; stroke-linecap: square"/>
   </g>
   <g id="patch_3">
    <path d="M 43.78125 203.640945 
L 43.78125 7.2 
" style="fill: none; stroke: #000000; stroke-width: 0.8; stroke-linejoin: miter; stroke-linecap: square"/>
   </g>
   <g id="patch_4">
    <path d="M 373.308809 203.640945 
L 373.308809 7.2 
" style="fill: none; stroke: #000000; stroke-width: 0.8; stroke-linejoin: miter; stroke-linecap: square"/>
   </g>
   <g id="patch_5">
    <path d="M 43.78125 203.640945 
L 373.308809 203.640945 
" style="fill: none; stroke: #000000; stroke-width: 0.8; stroke-linejoin: miter; stroke-linecap: square"/>
   </g>
   <g id="patch_6">
    <path d="M 43.78125 7.2 
L 373.308809 7.2 
" style="fill: none; stroke: #000000; stroke-width: 0.8; stroke-linejoin: miter; stroke-linecap: square"/>
   </g>
   <g id="legend_1">
    <g id="patch_7">
     <path d="M 362.308809 198.640945 
L 366.308809 198.640945 
Q 368.308809 198.640945 368.308809 196.640945 
L 368.308809 192.640945 
Q 368.308809 190.640945 366.308809 190.640945 
L 362.308809 190.640945 
Q 360.308809 190.640945 360.308809 192.640945 
L 360.308809 196.640945 
Q 360.308809 198.640945 362.308809 198.640945 
z
" style="fill: #ffffff; opacity: 0.8; stroke: #cccccc; stroke-linejoin: miter"/>
    </g>
   </g>
  </g>
 </g>
 <defs>
  <clipPath id="p7c9fc3130e">
   <rect x="43.78125" y="7.2" width="329.527559" height="196.440945"/>
  </clipPath>
 </defs>
</svg>
