<?xml version="1.0" encoding="utf-8" standalone="no"?>
<!DOCTYPE svg PUBLIC "-//W3C//DTD SVG 1.1//EN"
  "http://www.w3.org/Graphics/SVG/1.1/DTD/svg11.dtd">
<svg xmlns:xlink="http://www.w3.org/1999/xlink" width="314.603297pt" height="206.632491pt" viewBox="0 0 314.603297 206.632491" xmlns="http://www.w3.org/2000/svg" version="1.1">
 <metadata>
  <rdf:RDF xmlns:dc="http://purl.org/dc/elements/1.1/" xmlns:cc="http://creativecommons.org/ns#" xmlns:rdf="http://www.w3.org/1999/02/22-rdf-syntax-ns#">
   <cc:Work>
    <dc:type rdf:resource="http://purl.org/dc/dcmitype/StillImage"/>
    <dc:date>2026-04-15T08:03:49.323307</dc:date>
    <dc:format>image/svg+xml</dc:format>
    <dc:creator>
     <cc:Agent>
      <dc:title>Matplotlib v3.10.8, https://matplotlib.org/</dc:title>
     </cc:Agent>
    </dc:creator>
   </cc:Work>
  </rdf:RDF>
 </metadata>
 <defs>
  <style type="text/css">*{stroke-linejoin: round; stroke-linecap: butt}</style>
 </defs>
 <g id="figure_1">
  <g id="patch_1">
   <path d="M 0 206.632491 
L 314.603297 206.632491 
L 314.603297 0 
L 0 0 
L 0 206.632491 
z
" style="fill: none"/>
  </g>
  <g id="axes_1">
   <g id="patch_2">
    <path d="M 43.78125 169.076241 
L 307.403297 169.076241 
L 307.403297 7.2 
L 43.78125 7.2 
L 43.78125 169.076241 
z
" style="fill: none"/>
   </g>
   <g id="matplotlib.axis_1">
    <g id="xtick_1">
     <g id="line2d_1">
      <defs>
       <path id="m1b7e868ba5" d="M 0 0 
L 0 3.5 
" style="stroke: #000000; stroke-width: 0.8"/>
      </defs>
      <g>
       <use xlink:href="#m1b7e868ba5" x="55.76407" y="169.076241" style="stroke: #000000; stroke-width: 0.8"/>
      </g>
     </g>
     <g id="text_1">
      <!-- 0 -->
      <g transform="translate(52.58282 183.674678) scale(0.1 -0.1)">
       <defs>
        <path id="DejaVuSans-30" d="M 2034 4250 
Q 1547 4250 1301 3770 
Q 1056 3291 1056 2328 
Q 1056 1369 1301 889 
Q 1547 409 2034 409 
Q 2525 409 2770 889 
Q 3016 1369 3016 2328 
Q 3016 3291 2770 3770 
Q 2525 4250 2034 4250 
z
M 2034 4750 
Q 2819 4750 3233 4129 
Q 3647 3509 3647 2328 
Q 3647 1150 3233 529 
Q 2819 -91 2034 -91 
Q 1250 -91 836 529 
Q 422 1150 422 2328 
Q 422 3509 836 4129 
Q 1250 4750 2034 4750 
z
" transform="scale(0.015625)"/>
       </defs>
       <use xlink:href="#DejaVuSans-30"/>
      </g>
     </g>
    </g>
    <g id="xtick_2">
     <g id="line2d_2">
      <g>
       <use xlink:href="#m1b7e868ba5" x="109.354501" y="169.076241" style="stroke: #000000; stroke-width: 0.8"/>
      </g>
     </g>
     <g id="text_2">
      <!-- 5000 -->
      <g transform="translate(96.629501 183.674678) scale(0.1 -0.1)">
       <defs>
        <path id="DejaVuSans-35" d="M 691 4666 
L 3169 4666 
L 3169 4134 
L 1269 4134 
L 1269 2991 
Q 1406 3038 1543 3061 
Q 1681 3084 1819 3084 
Q 2600 3084 3056 2656 
Q 3513 2228 3513 1497 
Q 3513 744 3044 326 
Q 2575 -91 1722 -91 
Q 1428 -91 1123 -41 
Q 819 9 494 109 
L 494 744 
Q 775 591 1075 516 
Q 1375 441 1709 441 
Q 2250 441 2565 725 
Q 2881 1009 2881 1497 
Q 2881 1984 2565 2268 
Q 2250 2553 1709 2553 
Q 1456 2553 1204 2497 
Q 953 2441 691 2322 
L 691 4666 
z
" transform="scale(0.015625)"/>
       </defs>
       <use xlink:href="#DejaVuSans-35"/>
       <use xlink:href="#DejaVuSans-30" transform="translate(63.623047 0)"/>
       <use xlink:href="#DejaVuSans-30" transform="translate(127.246094 0)"/>
       <use xlink:href="#DejaVuSans-30" transform="translate(190.869141 0)"/>
      </g>
     </g>
    </g>
    <g id="xtick_3">
     <g id="line2d_3">
      <g>
       <use xlink:href="#m1b7e868ba5" x="162.944932" y="169.076241" style="stroke: #000000; stroke-width: 0.8"/>
      </g>
     </g>
     <g id="text_3">
      <!-- 10000 -->
      <g transform="translate(147.038682 183.674678) scale(0.1 -0.1)">
       <defs>
        <path id="DejaVuSans-31" d="M 794 531 
L 1825 531 
L 1825 4091 
L 703 3866 
L 703 4441 
L 1819 4666 
L 2450 4666 
L 2450 531 
L 3481 531 
L 3481 0 
L 794 0 
L 794 531 
z
" transform="scale(0.015625)"/>
       </defs>
       <use xlink:href="#DejaVuSans-31"/>
       <use xlink:href="#DejaVuSans-30" transform="translate(63.623047 0)"/>
       <use xlink:href="#DejaVuSans-30" transform="translate(127.246094 0)"/>
       <use xlink:href="#DejaVuSans-30" transform="translate(190.869141 0)"/>
       <use xlink:href="#DejaVuSans-30" transform="translate(254.492188 0)"/>
      </g>
     </g>
    </g>
    <g id="xtick_4">
     <g id="line2d_4">
      <g>
       <use xlink:href="#m1b7e868ba5" x="216.535363" y="169.076241" style="stroke: #000000; stroke-width: 0.8"/>
      </g>
     </g>
     <g id="text_4">
      <!-- 15000 -->
      <g transform="translate(200.629113 183.674678) scale(0.1 -0.1)">
       <use xlink:href="#DejaVuSans-31"/>
       <use xlink:href="#DejaVuSans-35" transform="translate(63.623047 0)"/>
       <use xlink:href="#DejaVuSans-30" transform="translate(127.246094 0)"/>
       <use xlink:href="#DejaVuSans-30" transform="translate(190.869141 0)"/>
       <use xlink:href="#DejaVuSans-30" transform="translate(254.492188 0)"/>
      </g>
     </g>
    </g>
    <g id="xtick_5">
     <g id="line2d_5">
      <g>
       <use xlink:href="#m1b7e868ba5" x="270.125794" y="169.076241" style="stroke: #000000; stroke-width: 0.8"/>
      </g>
     </g>
     <g id="text_5">
      <!-- 20000 -->
      <g transform="translate(254.219544 183.674678) scale(0.1 -0.1)">
       <defs>
        <path id="DejaVuSans-32" d="M 1228 531 
L 3431 531 
L 3431 0 
L 469 0 
L 469 531 
Q 828 903 1448 1529 
Q 2069 2156 2228 2338 
Q 2531 2678 2651 2914 
Q 2772 3150 2772 3378 
Q 2772 3750 2511 3984 
Q 2250 4219 1831 4219 
Q 1534 4219 1204 4116 
Q 875 4013 500 3803 
L 500 4441 
Q 881 4594 1212 4672 
Q 1544 4750 1819 4750 
Q 2544 4750 2975 4387 
Q 3406 4025 3406 3419 
Q 3406 3131 3298 2873 
Q 3191 2616 2906 2266 
Q 2828 2175 2409 1742 
Q 1991 1309 1228 531 
z
" transform="scale(0.015625)"/>
       </defs>
       <use xlink:href="#DejaVuSans-32"/>
       <use xlink:href="#DejaVuSans-30" transform="translate(63.623047 0)"/>
       <use xlink:href="#DejaVuSans-30" transform="translate(127.246094 0)"/>
       <use xlink:href="#DejaVuSans-30" transform="translate(190.869141 0)"/>
       <use xlink:href="#DejaVuSans-30" transform="translate(254.492188 0)"/>
      </g>
     </g>
    </g>
    <g id="text_6">
     <!-- Time step (ms) -->
     <g transform="translate(137.988367 197.352803) scale(0.1 -0.1)">
      <defs>
       <path id="DejaVuSans-54" d="M -19 4666 
L 3928 4666 
L 3928 4134 
L 2272 4134 
L 2272 0 
L 1638 0 
L 1638 4134 
L -19 4134 
L -19 4666 
z
" transform="scale(0.015625)"/>
       <path id="DejaVuSans-69" d="M 603 3500 
L 1178 3500 
L 1178 0 
L 603 0 
L 603 3500 
z
M 603 4863 
L 1178 4863 
L 1178 4134 
L 603 4134 
L 603 4863 
z
" transform="scale(0.015625)"/>
       <path id="DejaVuSans-6d" d="M 3328 2828 
Q 3544 3216 3844 3400 
Q 4144 3584 4550 3584 
Q 5097 3584 5394 3201 
Q 5691 2819 5691 2113 
L 5691 0 
L 5113 0 
L 5113 2094 
Q 5113 2597 4934 2840 
Q 4756 3084 4391 3084 
Q 3944 3084 3684 2787 
Q 3425 2491 3425 1978 
L 3425 0 
L 2847 0 
L 2847 2094 
Q 2847 2600 2669 2842 
Q 2491 3084 2119 3084 
Q 1678 3084 1418 2786 
Q 1159 2488 1159 1978 
L 1159 0 
L 581 0 
L 581 3500 
L 1159 3500 
L 1159 2956 
Q 1356 3278 1631 3431 
Q 1906 3584 2284 3584 
Q 2666 3584 2933 3390 
Q 3200 3197 3328 2828 
z
" transform="scale(0.015625)"/>
       <path id="DejaVuSans-65" d="M 3597 1894 
L 3597 1613 
L 953 1613 
Q 991 1019 1311 708 
Q 1631 397 2203 397 
Q 2534 397 2845 478 
Q 3156 559 3463 722 
L 3463 178 
Q 3153 47 2828 -22 
Q 2503 -91 2169 -91 
Q 1331 -91 842 396 
Q 353 884 353 1716 
Q 353 2575 817 3079 
Q 1281 3584 2069 3584 
Q 2775 3584 3186 3129 
Q 3597 2675 3597 1894 
z
M 3022 2063 
Q 3016 2534 2758 2815 
Q 2500 3097 2075 3097 
Q 1594 3097 1305 2825 
Q 1016 2553 972 2059 
L 3022 2063 
z
" transform="scale(0.015625)"/>
       <path id="DejaVuSans-20" transform="scale(0.015625)"/>
       <path id="DejaVuSans-73" d="M 2834 3397 
L 2834 2853 
Q 2591 2978 2328 3040 
Q 2066 3103 1784 3103 
Q 1356 3103 1142 2972 
Q 928 2841 928 2578 
Q 928 2378 1081 2264 
Q 1234 2150 1697 2047 
L 1894 2003 
Q 2506 1872 2764 1633 
Q 3022 1394 3022 966 
Q 3022 478 2636 193 
Q 2250 -91 1575 -91 
Q 1294 -91 989 -36 
Q 684 19 347 128 
L 347 722 
Q 666 556 975 473 
Q 1284 391 1588 391 
Q 1994 391 2212 530 
Q 2431 669 2431 922 
Q 2431 1156 2273 1281 
Q 2116 1406 1581 1522 
L 1381 1569 
Q 847 1681 609 1914 
Q 372 2147 372 2553 
Q 372 3047 722 3315 
Q 1072 3584 1716 3584 
Q 2034 3584 2315 3537 
Q 2597 3491 2834 3397 
z
" transform="scale(0.015625)"/>
       <path id="DejaVuSans-74" d="M 1172 4494 
L 1172 3500 
L 2356 3500 
L 2356 3053 
L 1172 3053 
L 1172 1153 
Q 1172 725 1289 603 
Q 1406 481 1766 481 
L 2356 481 
L 2356 0 
L 1766 0 
Q 1100 0 847 248 
Q 594 497 594 1153 
L 594 3053 
L 172 3053 
L 172 3500 
L 594 3500 
L 594 4494 
L 1172 4494 
z
" transform="scale(0.015625)"/>
       <path id="DejaVuSans-70" d="M 1159 525 
L 1159 -1331 
L 581 -1331 
L 581 3500 
L 1159 3500 
L 1159 2969 
Q 1341 3281 1617 3432 
Q 1894 3584 2278 3584 
Q 2916 3584 3314 3078 
Q 3713 2572 3713 1747 
Q 3713 922 3314 415 
Q 2916 -91 2278 -91 
Q 1894 -91 1617 61 
Q 1341 213 1159 525 
z
M 3116 1747 
Q 3116 2381 2855 2742 
Q 2594 3103 2138 3103 
Q 1681 3103 1420 2742 
Q 1159 2381 1159 1747 
Q 1159 1113 1420 752 
Q 1681 391 2138 391 
Q 2594 391 2855 752 
Q 3116 1113 3116 1747 
z
" transform="scale(0.015625)"/>
       <path id="DejaVuSans-28" d="M 1984 4856 
Q 1566 4138 1362 3434 
Q 1159 2731 1159 2009 
Q 1159 1288 1364 580 
Q 1569 -128 1984 -844 
L 1484 -844 
Q 1016 -109 783 600 
Q 550 1309 550 2009 
Q 550 2706 781 3412 
Q 1013 4119 1484 4856 
L 1984 4856 
z
" transform="scale(0.015625)"/>
       <path id="DejaVuSans-29" d="M 513 4856 
L 1013 4856 
Q 1481 4119 1714 3412 
Q 1947 2706 1947 2009 
Q 1947 1309 1714 600 
Q 1481 -109 1013 -844 
L 513 -844 
Q 928 -128 1133 580 
Q 1338 1288 1338 2009 
Q 1338 2731 1133 3434 
Q 928 4138 513 4856 
z
" transform="scale(0.015625)"/>
      </defs>
      <use xlink:href="#DejaVuSans-54"/>
      <use xlink:href="#DejaVuSans-69" transform="translate(57.958984 0)"/>
      <use xlink:href="#DejaVuSans-6d" transform="translate(85.742188 0)"/>
      <use xlink:href="#DejaVuSans-65" transform="translate(183.154297 0)"/>
      <use xlink:href="#DejaVuSans-20" transform="translate(244.677734 0)"/>
      <use xlink:href="#DejaVuSans-73" transform="translate(276.464844 0)"/>
      <use xlink:href="#DejaVuSans-74" transform="translate(328.564453 0)"/>
      <use xlink:href="#DejaVuSans-65" transform="translate(367.773438 0)"/>
      <use xlink:href="#DejaVuSans-70" transform="translate(429.296875 0)"/>
      <use xlink:href="#DejaVuSans-20" transform="translate(492.773438 0)"/>
      <use xlink:href="#DejaVuSans-28" transform="translate(524.560547 0)"/>
      <use xlink:href="#DejaVuSans-6d" transform="translate(563.574219 0)"/>
      <use xlink:href="#DejaVuSans-73" transform="translate(660.986328 0)"/>
      <use xlink:href="#DejaVuSans-29" transform="translate(713.085938 0)"/>
     </g>
    </g>
   </g>
   <g id="matplotlib.axis_2">
    <g id="ytick_1">
     <g id="line2d_6">
      <defs>
       <path id="m9d715c5062" d="M 0 0 
L -3.5 0 
" style="stroke: #000000; stroke-width: 0.8"/>
      </defs>
      <g>
       <use xlink:href="#m9d715c5062" x="43.78125" y="161.71823" style="stroke: #000000; stroke-width: 0.8"/>
      </g>
     </g>
     <g id="text_7">
      <!-- 0.0 -->
      <g transform="translate(20.878125 165.517449) scale(0.1 -0.1)">
       <defs>
        <path id="DejaVuSans-2e" d="M 684 794 
L 1344 794 
L 1344 0 
L 684 0 
L 684 794 
z
" transform="scale(0.015625)"/>
       </defs>
       <use xlink:href="#DejaVuSans-30"/>
       <use xlink:href="#DejaVuSans-2e" transform="translate(63.623047 0)"/>
       <use xlink:href="#DejaVuSans-30" transform="translate(95.410156 0)"/>
      </g>
     </g>
    </g>
    <g id="ytick_2">
     <g id="line2d_7">
      <g>
       <use xlink:href="#m9d715c5062" x="43.78125" y="132.286186" style="stroke: #000000; stroke-width: 0.8"/>
      </g>
     </g>
     <g id="text_8">
      <!-- 0.2 -->
      <g transform="translate(20.878125 136.085405) scale(0.1 -0.1)">
       <use xlink:href="#DejaVuSans-30"/>
       <use xlink:href="#DejaVuSans-2e" transform="translate(63.623047 0)"/>
       <use xlink:href="#DejaVuSans-32" transform="translate(95.410156 0)"/>
      </g>
     </g>
    </g>
    <g id="ytick_3">
     <g id="line2d_8">
      <g>
       <use xlink:href="#m9d715c5062" x="43.78125" y="102.854142" style="stroke: #000000; stroke-width: 0.8"/>
      </g>
     </g>
     <g id="text_9">
      <!-- 0.4 -->
      <g transform="translate(20.878125 106.653361) scale(0.1 -0.1)">
       <defs>
        <path id="DejaVuSans-34" d="M 2419 4116 
L 825 1625 
L 2419 1625 
L 2419 4116 
z
M 2253 4666 
L 3047 4666 
L 3047 1625 
L 3713 1625 
L 3713 1100 
L 3047 1100 
L 3047 0 
L 2419 0 
L 2419 1100 
L 313 1100 
L 313 1709 
L 2253 4666 
z
" transform="scale(0.015625)"/>
       </defs>
       <use xlink:href="#DejaVuSans-30"/>
       <use xlink:href="#DejaVuSans-2e" transform="translate(63.623047 0)"/>
       <use xlink:href="#DejaVuSans-34" transform="translate(95.410156 0)"/>
      </g>
     </g>
    </g>
    <g id="ytick_4">
     <g id="line2d_9">
      <g>
       <use xlink:href="#m9d715c5062" x="43.78125" y="73.422099" style="stroke: #000000; stroke-width: 0.8"/>
      </g>
     </g>
     <g id="text_10">
      <!-- 0.6 -->
      <g transform="translate(20.878125 77.221317) scale(0.1 -0.1)">
       <defs>
        <path id="DejaVuSans-36" d="M 2113 2584 
Q 1688 2584 1439 2293 
Q 1191 2003 1191 1497 
Q 1191 994 1439 701 
Q 1688 409 2113 409 
Q 2538 409 2786 701 
Q 3034 994 3034 1497 
Q 3034 2003 2786 2293 
Q 2538 2584 2113 2584 
z
M 3366 4563 
L 3366 3988 
Q 3128 4100 2886 4159 
Q 2644 4219 2406 4219 
Q 1781 4219 1451 3797 
Q 1122 3375 1075 2522 
Q 1259 2794 1537 2939 
Q 1816 3084 2150 3084 
Q 2853 3084 3261 2657 
Q 3669 2231 3669 1497 
Q 3669 778 3244 343 
Q 2819 -91 2113 -91 
Q 1303 -91 875 529 
Q 447 1150 447 2328 
Q 447 3434 972 4092 
Q 1497 4750 2381 4750 
Q 2619 4750 2861 4703 
Q 3103 4656 3366 4563 
z
" transform="scale(0.015625)"/>
       </defs>
       <use xlink:href="#DejaVuSans-30"/>
       <use xlink:href="#DejaVuSans-2e" transform="translate(63.623047 0)"/>
       <use xlink:href="#DejaVuSans-36" transform="translate(95.410156 0)"/>
      </g>
     </g>
    </g>
    <g id="ytick_5">
     <g id="line2d_10">
      <g>
       <use xlink:href="#m9d715c5062" x="43.78125" y="43.990055" style="stroke: #000000; stroke-width: 0.8"/>
      </g>
     </g>
     <g id="text_11">
      <!-- 0.8 -->
      <g transform="translate(20.878125 47.789274) scale(0.1 -0.1)">
       <defs>
        <path id="DejaVuSans-38" d="M 2034 2216 
Q 1584 2216 1326 1975 
Q 1069 1734 1069 1313 
Q 1069 891 1326 650 
Q 1584 409 2034 409 
Q 2484 409 2743 651 
Q 3003 894 3003 1313 
Q 3003 1734 2745 1975 
Q 2488 2216 2034 2216 
z
M 1403 2484 
Q 997 2584 770 2862 
Q 544 3141 544 3541 
Q 544 4100 942 4425 
Q 1341 4750 2034 4750 
Q 2731 4750 3128 4425 
Q 3525 4100 3525 3541 
Q 3525 3141 3298 2862 
Q 3072 2584 2669 2484 
Q 3125 2378 3379 2068 
Q 3634 1759 3634 1313 
Q 3634 634 3220 271 
Q 2806 -91 2034 -91 
Q 1263 -91 848 271 
Q 434 634 434 1313 
Q 434 1759 690 2068 
Q 947 2378 1403 2484 
z
M 1172 3481 
Q 1172 3119 1398 2916 
Q 1625 2713 2034 2713 
Q 2441 2713 2670 2916 
Q 2900 3119 2900 3481 
Q 2900 3844 2670 4047 
Q 2441 4250 2034 4250 
Q 1625 4250 1398 4047 
Q 1172 3844 1172 3481 
z
" transform="scale(0.015625)"/>
       </defs>
       <use xlink:href="#DejaVuSans-30"/>
       <use xlink:href="#DejaVuSans-2e" transform="translate(63.623047 0)"/>
       <use xlink:href="#DejaVuSans-38" transform="translate(95.410156 0)"/>
      </g>
     </g>
    </g>
    <g id="ytick_6">
     <g id="line2d_11">
      <g>
       <use xlink:href="#m9d715c5062" x="43.78125" y="14.558011" style="stroke: #000000; stroke-width: 0.8"/>
      </g>
     </g>
     <g id="text_12">
      <!-- 1.0 -->
      <g transform="translate(20.878125 18.35723) scale(0.1 -0.1)">
       <use xlink:href="#DejaVuSans-31"/>
       <use xlink:href="#DejaVuSans-2e" transform="translate(63.623047 0)"/>
       <use xlink:href="#DejaVuSans-30" transform="translate(95.410156 0)"/>
      </g>
     </g>
    </g>
    <g id="text_13">
     <!-- F1-score -->
     <g transform="translate(14.798438 109.43187) rotate(-90) scale(0.1 -0.1)">
      <defs>
       <path id="DejaVuSans-46" d="M 628 4666 
L 3309 4666 
L 3309 4134 
L 1259 4134 
L 1259 2759 
L 3109 2759 
L 3109 2228 
L 1259 2228 
L 1259 0 
L 628 0 
L 628 4666 
z
" transform="scale(0.015625)"/>
       <path id="DejaVuSans-2d" d="M 313 2009 
L 1997 2009 
L 1997 1497 
L 313 1497 
L 313 2009 
z
" transform="scale(0.015625)"/>
       <path id="DejaVuSans-63" d="M 3122 3366 
L 3122 2828 
Q 2878 2963 2633 3030 
Q 2388 3097 2138 3097 
Q 1578 3097 1268 2742 
Q 959 2388 959 1747 
Q 959 1106 1268 751 
Q 1578 397 2138 397 
Q 2388 397 2633 464 
Q 2878 531 3122 666 
L 3122 134 
Q 2881 22 2623 -34 
Q 2366 -91 2075 -91 
Q 1284 -91 818 406 
Q 353 903 353 1747 
Q 353 2603 823 3093 
Q 1294 3584 2113 3584 
Q 2378 3584 2631 3529 
Q 2884 3475 3122 3366 
z
" transform="scale(0.015625)"/>
       <path id="DejaVuSans-6f" d="M 1959 3097 
Q 1497 3097 1228 2736 
Q 959 2375 959 1747 
Q 959 1119 1226 758 
Q 1494 397 1959 397 
Q 2419 397 2687 759 
Q 2956 1122 2956 1747 
Q 2956 2369 2687 2733 
Q 2419 3097 1959 3097 
z
M 1959 3584 
Q 2709 3584 3137 3096 
Q 3566 2609 3566 1747 
Q 3566 888 3137 398 
Q 2709 -91 1959 -91 
Q 1206 -91 779 398 
Q 353 888 353 1747 
Q 353 2609 779 3096 
Q 1206 3584 1959 3584 
z
" transform="scale(0.015625)"/>
       <path id="DejaVuSans-72" d="M 2631 2963 
Q 2534 3019 2420 3045 
Q 2306 3072 2169 3072 
Q 1681 3072 1420 2755 
Q 1159 2438 1159 1844 
L 1159 0 
L 581 0 
L 581 3500 
L 1159 3500 
L 1159 2956 
Q 1341 3275 1631 3429 
Q 1922 3584 2338 3584 
Q 2397 3584 2469 3576 
Q 2541 3569 2628 3553 
L 2631 2963 
z
" transform="scale(0.015625)"/>
      </defs>
      <use xlink:href="#DejaVuSans-46"/>
      <use xlink:href="#DejaVuSans-31" transform="translate(57.519531 0)"/>
      <use xlink:href="#DejaVuSans-2d" transform="translate(121.142578 0)"/>
      <use xlink:href="#DejaVuSans-73" transform="translate(157.226562 0)"/>
      <use xlink:href="#DejaVuSans-63" transform="translate(209.326172 0)"/>
      <use xlink:href="#DejaVuSans-6f" transform="translate(264.306641 0)"/>
      <use xlink:href="#DejaVuSans-72" transform="translate(325.488281 0)"/>
      <use xlink:href="#DejaVuSans-65" transform="translate(364.351562 0)"/>
     </g>
    </g>
   </g>
   <g id="line2d_12">
    <path d="M 55.76407 161.71823 
L 58.122049 161.71823 
L 58.336411 27.936209 
L 58.550773 79.308507 
L 58.765134 48.518059 
L 58.979496 138.172593 
L 59.193858 161.71823 
L 73.12737 161.71823 
L 73.341732 53.284386 
L 73.556093 56.603785 
L 73.770455 51.348066 
L 73.984817 35.580898 
L 74.199179 50.353745 
L 74.41354 49.596147 
L 74.842264 63.611414 
L 75.056625 63.611414 
L 75.270987 57.28194 
L 75.485349 55.435852 
L 75.914072 32.217238 
L 76.128434 39.68292 
L 76.342796 39.68292 
L 76.771519 56.064737 
L 76.985881 41.314415 
L 77.200243 63.611414 
L 77.414604 52.947633 
L 77.628966 51.348066 
L 77.843328 43.990053 
L 78.05769 57.840426 
L 78.272051 35.580898 
L 78.700775 46.861478 
L 78.915136 63.611414 
L 79.129498 66.064091 
L 79.558222 161.71823 
L 88.132691 161.71823 
L 88.347052 52.399208 
L 88.775776 39.084708 
L 88.990137 58.70607 
L 89.204499 63.611414 
L 89.418861 85.412933 
L 89.633223 150.817473 
L 89.847584 161.71823 
L 103.138011 161.71823 
L 103.352373 51.348066 
L 103.566735 57.840426 
L 103.781096 53.800734 
L 103.995458 67.535692 
L 104.20982 41.809905 
L 104.424182 50.079445 
L 104.852905 39.084708 
L 105.067267 72.142448 
L 105.281628 48.518059 
L 105.49599 45.358984 
L 105.710352 63.611414 
L 105.924714 25.32583 
L 106.139075 35.580898 
L 106.353437 36.632049 
L 106.567799 50.079445 
L 106.78216 30.048563 
L 106.996522 58.70607 
L 107.210884 67.115225 
L 107.425246 45.358984 
L 107.639607 47.26028 
L 108.068331 54.692613 
L 108.282693 63.611414 
L 108.497054 59.838076 
L 108.711416 73.422104 
L 108.925778 79.308507 
L 109.140139 153.061746 
L 109.354501 161.71823 
L 118.143332 161.71823 
L 118.357694 54.692613 
L 118.572055 70.151868 
L 118.786417 65.498088 
L 119.000779 71.620136 
L 119.21514 66.776156 
L 119.429502 91.641935 
L 119.643864 63.611414 
L 119.858226 82.478117 
L 120.072587 75.153392 
L 120.286949 97.111309 
L 120.501311 71.523247 
L 120.715672 76.270355 
L 120.930034 96.967734 
L 121.144396 80.526385 
L 121.358758 94.827219 
L 121.573119 63.611414 
L 121.787481 77.626681 
L 122.001843 77.626673 
L 122.216205 138.172593 
L 122.430566 161.71823 
L 133.148652 161.71823 
L 133.363014 67.115225 
L 133.577376 56.603785 
L 133.791738 82.478117 
L 134.006099 161.71823 
L 148.153973 161.71823 
L 148.368335 19.305119 
L 148.582696 46.092337 
L 148.797058 99.756028 
L 149.01142 102.854142 
L 149.225782 161.71823 
L 163.159294 161.71823 
L 163.373655 59.345902 
L 163.588017 35.580898 
L 163.802379 46.861478 
L 164.016741 51.348066 
L 164.231102 34.444524 
L 164.445464 49.596147 
L 164.659826 22.303291 
L 164.874187 49.183943 
L 165.088549 43.990053 
L 165.302911 46.861478 
L 165.517273 63.611414 
L 165.731634 42.588536 
L 165.945996 40.971391 
L 166.37472 30.909137 
L 166.589081 43.990053 
L 166.803443 37.793834 
L 167.017805 55.435852 
L 167.232166 53.284386 
L 167.446528 61.029657 
L 167.66089 27.171743 
L 167.875252 42.399134 
L 168.089613 36.632049 
L 168.303975 51.348066 
L 168.518337 46.549355 
L 168.94706 71.158092 
L 169.375784 36.855019 
L 169.590145 57.28194 
L 169.804507 43.990053 
L 170.018869 56.064737 
L 170.233231 56.064737 
L 170.447592 57.840426 
L 170.661954 35.580898 
L 170.876316 52.399208 
L 171.090677 41.809905 
L 171.305039 59.838076 
L 171.519401 46.092337 
L 171.733763 70.377408 
L 171.948124 41.587435 
L 172.162486 55.435852 
L 172.376848 57.28194 
L 172.591209 35.580898 
L 172.805571 32.217238 
L 173.019933 47.787741 
L 173.234295 77.626673 
L 173.448656 27.171743 
L 173.663018 161.71823 
L 178.164614 161.71823 
L 178.378976 73.422104 
L 178.593338 41.809905 
L 178.807699 68.070819 
L 179.022061 43.990053 
L 179.236423 57.840426 
L 179.450785 63.611414 
L 179.665146 34.444524 
L 179.879508 49.183943 
L 180.09387 48.518059 
L 180.308232 43.990053 
L 180.522593 61.029657 
L 180.736955 34.444524 
L 180.951317 56.064737 
L 181.165678 60.228422 
L 181.38004 45.539114 
L 181.594402 49.183943 
L 181.808764 42.399134 
L 182.023125 84.265489 
L 182.237487 55.762868 
L 182.451849 53.800734 
L 182.66621 82.754206 
L 182.880572 84.938986 
L 183.094934 161.71823 
L 193.169935 161.71823 
L 193.384297 48.518068 
L 193.598658 82.478117 
L 193.81302 45.358984 
L 194.027382 35.580898 
L 194.241744 58.70607 
L 194.670467 161.71823 
L 208.175256 161.71823 
L 208.389617 82.478108 
L 208.818341 37.793834 
L 209.032702 43.990053 
L 209.247064 35.580898 
L 209.461426 47.26028 
L 209.675788 45.77382 
L 209.890149 63.611414 
L 210.104511 29.274028 
L 210.318873 38.293534 
L 210.533235 53.284386 
L 210.747596 41.809905 
L 211.17632 63.611414 
L 211.390681 46.549355 
L 211.605043 45.216387 
L 211.819405 53.284386 
L 212.248128 36.475497 
L 212.46249 43.990053 
L 212.676852 45.77382 
L 213.319937 25.878027 
L 213.534299 84.938986 
L 213.74866 39.68292 
L 214.177384 52.947633 
L 214.391746 53.800734 
L 214.606107 40.527469 
L 214.820469 47.787741 
L 215.034831 66.496909 
L 215.249192 37.793834 
L 215.463554 48.518059 
L 215.892278 32.953038 
L 216.106639 53.800734 
L 216.321001 43.990053 
L 216.535363 73.422104 
L 216.749724 50.079445 
L 216.964086 67.115225 
L 217.178448 53.800734 
L 217.39281 161.71823 
L 223.180576 161.71823 
L 223.394938 42.399134 
L 223.6093 37.449599 
L 223.823661 50.079445 
L 224.038023 38.293534 
L 224.252385 40.971391 
L 224.466747 52.710664 
L 224.681108 54.692613 
L 224.89547 43.990053 
L 225.109832 63.611414 
L 225.324193 37.198043 
L 225.538555 80.526385 
L 225.752917 39.930459 
L 225.967279 43.990053 
L 226.18164 63.611414 
L 226.396002 42.150552 
L 226.610364 51.348066 
L 226.824725 55.435852 
L 227.039087 56.064737 
L 227.253449 61.029657 
L 227.467811 39.930459 
L 227.682172 53.284386 
L 227.896534 81.449017 
L 228.110896 39.68292 
L 228.325258 31.870977 
L 228.539619 55.261896 
L 228.753981 40.971391 
L 228.968343 36.855019 
L 229.182704 36.359521 
L 229.397066 48.518059 
L 229.82579 33.752826 
L 230.040151 66.776147 
L 230.254513 67.115225 
L 230.468875 41.809905 
L 230.683236 75.874772 
L 230.897598 82.478117 
L 231.11196 145.367096 
L 231.326322 161.71823 
L 238.185897 161.71823 
L 238.400259 53.284377 
L 238.61462 63.611414 
L 238.828982 48.518059 
L 239.043344 57.840426 
L 239.257705 34.625312 
L 239.472067 50.079445 
L 239.686429 32.217238 
L 240.543876 161.71823 
L 253.191217 161.71823 
L 253.405579 72.530225 
L 253.619941 45.77382 
L 253.834303 56.064737 
L 254.048664 27.936209 
L 254.263026 42.150552 
L 254.477388 39.930459 
L 254.691749 47.787741 
L 255.120473 41.809905 
L 255.334835 46.861478 
L 255.549196 40.527469 
L 255.763558 54.040027 
L 255.97792 56.603785 
L 256.406643 38.51432 
L 256.621005 51.348066 
L 256.835367 28.799326 
L 257.049728 45.77382 
L 257.26409 75.874772 
L 257.478452 43.990053 
L 257.692814 54.040027 
L 257.907175 56.603785 
L 258.121537 39.930459 
L 258.335899 43.990053 
L 258.550261 63.611414 
L 258.764622 39.084708 
L 259.193346 67.115225 
L 259.407707 57.840426 
L 259.622069 33.424705 
L 259.836431 60.545579 
L 260.265154 32.217238 
L 260.479516 49.183943 
L 260.693878 48.003518 
L 260.908239 58.70607 
L 261.122601 57.840426 
L 261.551325 146.227681 
L 261.765686 161.71823 
L 268.196538 161.71823 
L 268.4109 61.029657 
L 268.625262 43.990053 
L 268.839623 47.26028 
L 269.053985 40.527469 
L 269.268347 42.399134 
L 269.69707 51.348066 
L 269.911432 33.424705 
L 270.125794 42.399134 
L 270.340155 35.580898 
L 270.554517 48.518059 
L 270.768879 45.77382 
L 270.98324 25.878027 
L 271.197602 34.625312 
L 271.411964 60.545579 
L 271.626326 34.179372 
L 271.840687 36.855019 
L 272.055049 63.611414 
L 272.269411 25.06945 
L 272.483773 60.228422 
L 272.698134 40.527469 
L 272.912496 40.527469 
L 273.126858 30.909137 
L 273.555581 54.692613 
L 273.769943 38.293534 
L 273.984305 60.228422 
L 274.198666 40.527469 
L 274.413028 42.588536 
L 274.62739 51.348066 
L 274.841751 49.596147 
L 275.056113 33.424705 
L 275.270475 54.040027 
L 275.484837 63.611414 
L 275.699198 56.064737 
L 275.91356 61.029657 
L 276.127922 57.840426 
L 276.342284 67.115225 
L 276.556645 51.348066 
L 276.771007 81.449017 
L 277.19973 34.444524 
L 277.842816 61.029657 
L 278.057177 42.737633 
L 278.271539 56.603785 
L 278.485901 26.489922 
L 278.700263 161.71823 
L 283.201859 161.71823 
L 283.41622 78.940607 
L 283.630582 72.142448 
L 284.059306 161.71823 
L 295.420477 161.71823 
L 295.420477 161.71823 
" clip-path="url(#pe774528e0e)" style="fill: none; stroke: #1f77b4; stroke-width: 1.5; stroke-linecap: square"/>
   </g>
   <g id="line2d_13">
    <path d="M 55.76407 161.71823 
L 57.693326 161.71823 
L 57.907688 14.558011 
L 68.411412 14.558011 
L 68.625774 161.71823 
L 72.698646 161.71823 
L 72.913008 14.558011 
L 83.416733 14.558011 
L 83.631094 161.71823 
L 87.703967 161.71823 
L 87.918329 14.558011 
L 98.422053 14.558011 
L 98.636415 161.71823 
L 102.709288 161.71823 
L 102.923649 14.558011 
L 113.427374 14.558011 
L 113.641736 161.71823 
L 117.714608 161.71823 
L 117.92897 14.558011 
L 128.432695 14.558011 
L 128.647056 161.71823 
L 132.719929 161.71823 
L 132.934291 14.558011 
L 143.438015 14.558011 
L 143.652377 161.71823 
L 147.72525 161.71823 
L 147.939611 14.558011 
L 158.443336 14.558011 
L 158.657697 161.71823 
L 162.73057 161.71823 
L 162.944932 14.558011 
L 173.448656 14.558011 
L 173.663018 161.71823 
L 177.735891 161.71823 
L 177.950253 14.558011 
L 188.453977 14.558011 
L 188.668339 161.71823 
L 192.741211 161.71823 
L 192.955573 14.558011 
L 203.459298 14.558011 
L 203.673659 161.71823 
L 207.746532 161.71823 
L 207.960894 14.558011 
L 218.464618 14.558011 
L 218.67898 161.71823 
L 222.751853 161.71823 
L 222.966214 14.558011 
L 233.469939 14.558011 
L 233.684301 161.71823 
L 237.757173 161.71823 
L 237.971535 14.558011 
L 248.47526 14.558011 
L 248.689621 161.71823 
L 252.762494 161.71823 
L 252.976856 14.558011 
L 263.48058 14.558011 
L 263.694942 161.71823 
L 267.767815 161.71823 
L 267.982176 14.558011 
L 278.485901 14.558011 
L 278.700263 161.71823 
L 282.773135 161.71823 
L 282.987497 14.558011 
L 293.491221 14.558011 
L 293.705583 161.71823 
L 295.420477 161.71823 
L 295.420477 161.71823 
" clip-path="url(#pe774528e0e)" style="fill: none; stroke: #ff7f0e; stroke-width: 1.5; stroke-linecap: square"/>
   </g>
   <g id="line2d_14">
    <path d="M 55.76407 161.71823 
L 57.693326 161.71823 
L 57.907688 14.558011 
L 58.336411 14.558011 
L 58.550773 161.71823 
L 72.698646 161.71823 
L 72.913008 14.558011 
L 73.341732 14.558011 
L 73.556093 161.71823 
L 87.703967 161.71823 
L 87.918329 14.558011 
L 88.347052 14.558011 
L 88.561414 161.71823 
L 102.709288 161.71823 
L 102.923649 14.558011 
L 103.352373 14.558011 
L 103.566735 161.71823 
L 117.714608 161.71823 
L 117.92897 14.558011 
L 118.357694 14.558011 
L 118.572055 161.71823 
L 132.719929 161.71823 
L 132.934291 14.558011 
L 133.363014 14.558011 
L 133.577376 161.71823 
L 147.72525 161.71823 
L 147.939611 14.558011 
L 148.368335 14.558011 
L 148.582696 161.71823 
L 162.73057 161.71823 
L 162.944932 14.558011 
L 163.373655 14.558011 
L 163.588017 161.71823 
L 177.735891 161.71823 
L 177.950253 14.558011 
L 178.378976 14.558011 
L 178.593338 161.71823 
L 192.741211 161.71823 
L 192.955573 14.558011 
L 193.384297 14.558011 
L 193.598658 161.71823 
L 207.746532 161.71823 
L 207.960894 14.558011 
L 208.389617 14.558011 
L 208.603979 161.71823 
L 222.751853 161.71823 
L 222.966214 14.558011 
L 223.394938 14.558011 
L 223.6093 161.71823 
L 237.757173 161.71823 
L 237.971535 14.558011 
L 238.400259 14.558011 
L 238.61462 161.71823 
L 252.762494 161.71823 
L 252.976856 14.558011 
L 253.405579 14.558011 
L 253.619941 161.71823 
L 267.767815 161.71823 
L 267.982176 14.558011 
L 268.4109 14.558011 
L 268.625262 161.71823 
L 282.773135 161.71823 
L 282.987497 14.558011 
L 283.41622 14.558011 
L 283.630582 161.71823 
L 295.420477 161.71823 
L 295.420477 161.71823 
" clip-path="url(#pe774528e0e)" style="fill: none; stroke: #2ca02c; stroke-width: 1.5; stroke-linecap: square"/>
   </g>
   <g id="patch_3">
    <path d="M 43.78125 169.076241 
L 43.78125 7.2 
" style="fill: none; stroke: #000000; stroke-width: 0.8; stroke-linejoin: miter; stroke-linecap: square"/>
   </g>
   <g id="patch_4">
    <path d="M 307.403297 169.076241 
L 307.403297 7.2 
" style="fill: none; stroke: #000000; stroke-width: 0.8; stroke-linejoin: miter; stroke-linecap: square"/>
   </g>
   <g id="patch_5">
    <path d="M 43.78125 169.076241 
L 307.403297 169.076241 
" style="fill: none; stroke: #000000; stroke-width: 0.8; stroke-linejoin: miter; stroke-linecap: square"/>
   </g>
   <g id="patch_6">
    <path d="M 43.78125 7.2 
L 307.403297 7.2 
" style="fill: none; stroke: #000000; stroke-width: 0.8; stroke-linejoin: miter; stroke-linecap: square"/>
   </g>
  </g>
 </g>
 <defs>
  <clipPath id="pe774528e0e">
   <rect x="43.78125" y="7.2" width="263.622047" height="161.876241"/>
  </clipPath>
 </defs>
</svg>
