<?xml version="1.0" encoding="utf-8" standalone="no"?>
<!DOCTYPE svg PUBLIC "-//W3C//DTD SVG 1.1//EN"
  "http://www.w3.org/Graphics/SVG/1.1/DTD/svg11.dtd">
<svg xmlns:xlink="http://www.w3.org/1999/xlink" width="184.751994pt" height="207.528102pt" viewBox="0 0 184.751994 207.528102" xmlns="http://www.w3.org/2000/svg" version="1.1">
 <metadata>
  <rdf:RDF xmlns:dc="http://purl.org/dc/elements/1.1/" xmlns:cc="http://creativecommons.org/ns#" xmlns:rdf="http://www.w3.org/1999/02/22-rdf-syntax-ns#">
   <cc:Work>
    <dc:type rdf:resource="http://purl.org/dc/dcmitype/StillImage"/>
    <dc:date>2026-08-05T08:05:33.888065</dc:date>
    <dc:format>image/svg+xml</dc:format>
    <dc:creator>
     <cc:Agent>
      <dc:title>Matplotlib v3.10.9, https://matplotlib.org/</dc:title>
     </cc:Agent>
    </dc:creator>
   </cc:Work>
  </rdf:RDF>
 </metadata>
 <defs>
  <style type="text/css">*{stroke-linejoin: round; stroke-linecap: butt}</style>
 </defs>
 <g id="figure_1">
  <g id="patch_1">
   <path d="M 0 207.528102 
L 184.751994 207.528102 
L 184.751994 0 
L 0 0 
L 0 207.528102 
z
" style="fill: none"/>
  </g>
  <g id="axes_1">
   <g id="patch_2">
    <path d="M 52.079375 109.512 
L 168.503375 109.512 
L 168.503375 7.2 
L 52.079375 7.2 
L 52.079375 109.512 
z
" style="fill: none"/>
   </g>
   <g id="matplotlib.axis_1">
    <g id="xtick_1">
     <g id="line2d_1">
      <path d="M 56.557221 109.512 
L 56.557221 7.2 
" clip-path="url(#pa1d72121d4)" style="fill: none; stroke: #ffffff; stroke-width: 0.8; stroke-linecap: square"/>
     </g>
     <g id="line2d_2">
      <defs>
       <path id="mb21ed775f2" d="M 0 0 
L 0 3.5 
" style="stroke: #555555; stroke-width: 0.8"/>
      </defs>
      <g>
       <use xlink:href="#mb21ed775f2" x="56.557221" y="109.512" style="fill: #555555; stroke: #555555; stroke-width: 0.8"/>
      </g>
     </g>
     <g id="text_1">
      <!-- 5.0 -->
      <g style="fill: #555555" transform="translate(50.191751 120.311219) rotate(-300) scale(0.1 -0.1)">
       <defs>
        <path id="DejaVuSans-35" d="M 691 4666 
L 3169 4666 
L 3169 4134 
L 1269 4134 
L 1269 2991 
Q 1406 3038 1543 3061 
Q 1681 3084 1819 3084 
Q 2600 3084 3056 2656 
Q 3513 2228 3513 1497 
Q 3513 744 3044 326 
Q 2575 -91 1722 -91 
Q 1428 -91 1123 -41 
Q 819 9 494 109 
L 494 744 
Q 775 591 1075 516 
Q 1375 441 1709 441 
Q 2250 441 2565 725 
Q 2881 1009 2881 1497 
Q 2881 1984 2565 2268 
Q 2250 2553 1709 2553 
Q 1456 2553 1204 2497 
Q 953 2441 691 2322 
L 691 4666 
z
" transform="scale(0.015625)"/>
        <path id="DejaVuSans-2e" d="M 684 794 
L 1344 794 
L 1344 0 
L 684 0 
L 684 794 
z
" transform="scale(0.015625)"/>
        <path id="DejaVuSans-30" d="M 2034 4250 
Q 1547 4250 1301 3770 
Q 1056 3291 1056 2328 
Q 1056 1369 1301 889 
Q 1547 409 2034 409 
Q 2525 409 2770 889 
Q 3016 1369 3016 2328 
Q 3016 3291 2770 3770 
Q 2525 4250 2034 4250 
z
M 2034 4750 
Q 2819 4750 3233 4129 
Q 3647 3509 3647 2328 
Q 3647 1150 3233 529 
Q 2819 -91 2034 -91 
Q 1250 -91 836 529 
Q 422 1150 422 2328 
Q 422 3509 836 4129 
Q 1250 4750 2034 4750 
z
" transform="scale(0.015625)"/>
       </defs>
       <use xlink:href="#DejaVuSans-35"/>
       <use xlink:href="#DejaVuSans-2e" transform="translate(63.623047 0)"/>
       <use xlink:href="#DejaVuSans-30" transform="translate(95.410156 0)"/>
      </g>
     </g>
    </g>
    <g id="xtick_2">
     <g id="line2d_3">
      <path d="M 65.512913 109.512 
L 65.512913 7.2 
" clip-path="url(#pa1d72121d4)" style="fill: none; stroke: #ffffff; stroke-width: 0.8; stroke-linecap: square"/>
     </g>
     <g id="line2d_4">
      <g>
       <use xlink:href="#mb21ed775f2" x="65.512913" y="109.512" style="fill: #555555; stroke: #555555; stroke-width: 0.8"/>
      </g>
     </g>
     <g id="text_2">
      <!-- 5.2973154718 -->
      <g style="fill: #555555" transform="translate(44.831818 120.311219) rotate(-300) scale(0.1 -0.1)">
       <defs>
        <path id="DejaVuSans-32" d="M 1228 531 
L 3431 531 
L 3431 0 
L 469 0 
L 469 531 
Q 828 903 1448 1529 
Q 2069 2156 2228 2338 
Q 2531 2678 2651 2914 
Q 2772 3150 2772 3378 
Q 2772 3750 2511 3984 
Q 2250 4219 1831 4219 
Q 1534 4219 1204 4116 
Q 875 4013 500 3803 
L 500 4441 
Q 881 4594 1212 4672 
Q 1544 4750 1819 4750 
Q 2544 4750 2975 4387 
Q 3406 4025 3406 3419 
Q 3406 3131 3298 2873 
Q 3191 2616 2906 2266 
Q 2828 2175 2409 1742 
Q 1991 1309 1228 531 
z
" transform="scale(0.015625)"/>
        <path id="DejaVuSans-39" d="M 703 97 
L 703 672 
Q 941 559 1184 500 
Q 1428 441 1663 441 
Q 2288 441 2617 861 
Q 2947 1281 2994 2138 
Q 2813 1869 2534 1725 
Q 2256 1581 1919 1581 
Q 1219 1581 811 2004 
Q 403 2428 403 3163 
Q 403 3881 828 4315 
Q 1253 4750 1959 4750 
Q 2769 4750 3195 4129 
Q 3622 3509 3622 2328 
Q 3622 1225 3098 567 
Q 2575 -91 1691 -91 
Q 1453 -91 1209 -44 
Q 966 3 703 97 
z
M 1959 2075 
Q 2384 2075 2632 2365 
Q 2881 2656 2881 3163 
Q 2881 3666 2632 3958 
Q 2384 4250 1959 4250 
Q 1534 4250 1286 3958 
Q 1038 3666 1038 3163 
Q 1038 2656 1286 2365 
Q 1534 2075 1959 2075 
z
" transform="scale(0.015625)"/>
        <path id="DejaVuSans-37" d="M 525 4666 
L 3525 4666 
L 3525 4397 
L 1831 0 
L 1172 0 
L 2766 4134 
L 525 4134 
L 525 4666 
z
" transform="scale(0.015625)"/>
        <path id="DejaVuSans-33" d="M 2597 2516 
Q 3050 2419 3304 2112 
Q 3559 1806 3559 1356 
Q 3559 666 3084 287 
Q 2609 -91 1734 -91 
Q 1441 -91 1130 -33 
Q 819 25 488 141 
L 488 750 
Q 750 597 1062 519 
Q 1375 441 1716 441 
Q 2309 441 2620 675 
Q 2931 909 2931 1356 
Q 2931 1769 2642 2001 
Q 2353 2234 1838 2234 
L 1294 2234 
L 1294 2753 
L 1863 2753 
Q 2328 2753 2575 2939 
Q 2822 3125 2822 3475 
Q 2822 3834 2567 4026 
Q 2313 4219 1838 4219 
Q 1578 4219 1281 4162 
Q 984 4106 628 3988 
L 628 4550 
Q 988 4650 1302 4700 
Q 1616 4750 1894 4750 
Q 2613 4750 3031 4423 
Q 3450 4097 3450 3541 
Q 3450 3153 3228 2886 
Q 3006 2619 2597 2516 
z
" transform="scale(0.015625)"/>
        <path id="DejaVuSans-31" d="M 794 531 
L 1825 531 
L 1825 4091 
L 703 3866 
L 703 4441 
L 1819 4666 
L 2450 4666 
L 2450 531 
L 3481 531 
L 3481 0 
L 794 0 
L 794 531 
z
" transform="scale(0.015625)"/>
        <path id="DejaVuSans-34" d="M 2419 4116 
L 825 1625 
L 2419 1625 
L 2419 4116 
z
M 2253 4666 
L 3047 4666 
L 3047 1625 
L 3713 1625 
L 3713 1100 
L 3047 1100 
L 3047 0 
L 2419 0 
L 2419 1100 
L 313 1100 
L 313 1709 
L 2253 4666 
z
" transform="scale(0.015625)"/>
        <path id="DejaVuSans-38" d="M 2034 2216 
Q 1584 2216 1326 1975 
Q 1069 1734 1069 1313 
Q 1069 891 1326 650 
Q 1584 409 2034 409 
Q 2484 409 2743 651 
Q 3003 894 3003 1313 
Q 3003 1734 2745 1975 
Q 2488 2216 2034 2216 
z
M 1403 2484 
Q 997 2584 770 2862 
Q 544 3141 544 3541 
Q 544 4100 942 4425 
Q 1341 4750 2034 4750 
Q 2731 4750 3128 4425 
Q 3525 4100 3525 3541 
Q 3525 3141 3298 2862 
Q 3072 2584 2669 2484 
Q 3125 2378 3379 2068 
Q 3634 1759 3634 1313 
Q 3634 634 3220 271 
Q 2806 -91 2034 -91 
Q 1263 -91 848 271 
Q 434 634 434 1313 
Q 434 1759 690 2068 
Q 947 2378 1403 2484 
z
M 1172 3481 
Q 1172 3119 1398 2916 
Q 1625 2713 2034 2713 
Q 2441 2713 2670 2916 
Q 2900 3119 2900 3481 
Q 2900 3844 2670 4047 
Q 2441 4250 2034 4250 
Q 1625 4250 1398 4047 
Q 1172 3844 1172 3481 
z
" transform="scale(0.015625)"/>
       </defs>
       <use xlink:href="#DejaVuSans-35"/>
       <use xlink:href="#DejaVuSans-2e" transform="translate(63.623047 0)"/>
       <use xlink:href="#DejaVuSans-32" transform="translate(95.410156 0)"/>
       <use xlink:href="#DejaVuSans-39" transform="translate(159.033203 0)"/>
       <use xlink:href="#DejaVuSans-37" transform="translate(222.65625 0)"/>
       <use xlink:href="#DejaVuSans-33" transform="translate(286.279297 0)"/>
       <use xlink:href="#DejaVuSans-31" transform="translate(349.902344 0)"/>
       <use xlink:href="#DejaVuSans-35" transform="translate(413.525391 0)"/>
       <use xlink:href="#DejaVuSans-34" transform="translate(477.148438 0)"/>
       <use xlink:href="#DejaVuSans-37" transform="translate(540.771484 0)"/>
       <use xlink:href="#DejaVuSans-31" transform="translate(604.394531 0)"/>
       <use xlink:href="#DejaVuSans-38" transform="translate(668.017578 0)"/>
      </g>
     </g>
    </g>
    <g id="xtick_3">
     <g id="line2d_5">
      <path d="M 74.468606 109.512 
L 74.468606 7.2 
" clip-path="url(#pa1d72121d4)" style="fill: none; stroke: #ffffff; stroke-width: 0.8; stroke-linecap: square"/>
     </g>
     <g id="line2d_6">
      <g>
       <use xlink:href="#mb21ed775f2" x="74.468606" y="109.512" style="fill: #555555; stroke: #555555; stroke-width: 0.8"/>
      </g>
     </g>
     <g id="text_3">
      <!-- 5.6123102415 -->
      <g style="fill: #555555" transform="translate(53.787511 120.311219) rotate(-300) scale(0.1 -0.1)">
       <defs>
        <path id="DejaVuSans-36" d="M 2113 2584 
Q 1688 2584 1439 2293 
Q 1191 2003 1191 1497 
Q 1191 994 1439 701 
Q 1688 409 2113 409 
Q 2538 409 2786 701 
Q 3034 994 3034 1497 
Q 3034 2003 2786 2293 
Q 2538 2584 2113 2584 
z
M 3366 4563 
L 3366 3988 
Q 3128 4100 2886 4159 
Q 2644 4219 2406 4219 
Q 1781 4219 1451 3797 
Q 1122 3375 1075 2522 
Q 1259 2794 1537 2939 
Q 1816 3084 2150 3084 
Q 2853 3084 3261 2657 
Q 3669 2231 3669 1497 
Q 3669 778 3244 343 
Q 2819 -91 2113 -91 
Q 1303 -91 875 529 
Q 447 1150 447 2328 
Q 447 3434 972 4092 
Q 1497 4750 2381 4750 
Q 2619 4750 2861 4703 
Q 3103 4656 3366 4563 
z
" transform="scale(0.015625)"/>
       </defs>
       <use xlink:href="#DejaVuSans-35"/>
       <use xlink:href="#DejaVuSans-2e" transform="translate(63.623047 0)"/>
       <use xlink:href="#DejaVuSans-36" transform="translate(95.410156 0)"/>
       <use xlink:href="#DejaVuSans-31" transform="translate(159.033203 0)"/>
       <use xlink:href="#DejaVuSans-32" transform="translate(222.65625 0)"/>
       <use xlink:href="#DejaVuSans-33" transform="translate(286.279297 0)"/>
       <use xlink:href="#DejaVuSans-31" transform="translate(349.902344 0)"/>
       <use xlink:href="#DejaVuSans-30" transform="translate(413.525391 0)"/>
       <use xlink:href="#DejaVuSans-32" transform="translate(477.148438 0)"/>
       <use xlink:href="#DejaVuSans-34" transform="translate(540.771484 0)"/>
       <use xlink:href="#DejaVuSans-31" transform="translate(604.394531 0)"/>
       <use xlink:href="#DejaVuSans-35" transform="translate(668.017578 0)"/>
      </g>
     </g>
    </g>
    <g id="xtick_4">
     <g id="line2d_7">
      <path d="M 83.424298 109.512 
L 83.424298 7.2 
" clip-path="url(#pa1d72121d4)" style="fill: none; stroke: #ffffff; stroke-width: 0.8; stroke-linecap: square"/>
     </g>
     <g id="line2d_8">
      <g>
       <use xlink:href="#mb21ed775f2" x="83.424298" y="109.512" style="fill: #555555; stroke: #555555; stroke-width: 0.8"/>
      </g>
     </g>
     <g id="text_4">
      <!-- 5.946035575 -->
      <g style="fill: #555555" transform="translate(64.333828 120.311219) rotate(-300) scale(0.1 -0.1)">
       <use xlink:href="#DejaVuSans-35"/>
       <use xlink:href="#DejaVuSans-2e" transform="translate(63.623047 0)"/>
       <use xlink:href="#DejaVuSans-39" transform="translate(95.410156 0)"/>
       <use xlink:href="#DejaVuSans-34" transform="translate(159.033203 0)"/>
       <use xlink:href="#DejaVuSans-36" transform="translate(222.65625 0)"/>
       <use xlink:href="#DejaVuSans-30" transform="translate(286.279297 0)"/>
       <use xlink:href="#DejaVuSans-33" transform="translate(349.902344 0)"/>
       <use xlink:href="#DejaVuSans-35" transform="translate(413.525391 0)"/>
       <use xlink:href="#DejaVuSans-35" transform="translate(477.148438 0)"/>
       <use xlink:href="#DejaVuSans-37" transform="translate(540.771484 0)"/>
       <use xlink:href="#DejaVuSans-35" transform="translate(604.394531 0)"/>
      </g>
     </g>
    </g>
    <g id="xtick_5">
     <g id="line2d_9">
      <path d="M 92.37999 109.512 
L 92.37999 7.2 
" clip-path="url(#pa1d72121d4)" style="fill: none; stroke: #ffffff; stroke-width: 0.8; stroke-linecap: square"/>
     </g>
     <g id="line2d_10">
      <g>
       <use xlink:href="#mb21ed775f2" x="92.37999" y="109.512" style="fill: #555555; stroke: #555555; stroke-width: 0.8"/>
      </g>
     </g>
     <g id="text_5">
      <!-- 6.2996052495 -->
      <g style="fill: #555555" transform="translate(71.698895 120.311219) rotate(-300) scale(0.1 -0.1)">
       <use xlink:href="#DejaVuSans-36"/>
       <use xlink:href="#DejaVuSans-2e" transform="translate(63.623047 0)"/>
       <use xlink:href="#DejaVuSans-32" transform="translate(95.410156 0)"/>
       <use xlink:href="#DejaVuSans-39" transform="translate(159.033203 0)"/>
       <use xlink:href="#DejaVuSans-39" transform="translate(222.65625 0)"/>
       <use xlink:href="#DejaVuSans-36" transform="translate(286.279297 0)"/>
       <use xlink:href="#DejaVuSans-30" transform="translate(349.902344 0)"/>
       <use xlink:href="#DejaVuSans-35" transform="translate(413.525391 0)"/>
       <use xlink:href="#DejaVuSans-32" transform="translate(477.148438 0)"/>
       <use xlink:href="#DejaVuSans-34" transform="translate(540.771484 0)"/>
       <use xlink:href="#DejaVuSans-39" transform="translate(604.394531 0)"/>
       <use xlink:href="#DejaVuSans-35" transform="translate(668.017578 0)"/>
      </g>
     </g>
    </g>
    <g id="xtick_6">
     <g id="line2d_11">
      <path d="M 101.335683 109.512 
L 101.335683 7.2 
" clip-path="url(#pa1d72121d4)" style="fill: none; stroke: #ffffff; stroke-width: 0.8; stroke-linecap: square"/>
     </g>
     <g id="line2d_12">
      <g>
       <use xlink:href="#mb21ed775f2" x="101.335683" y="109.512" style="fill: #555555; stroke: #555555; stroke-width: 0.8"/>
      </g>
     </g>
     <g id="text_6">
      <!-- 6.6741992709 -->
      <g style="fill: #555555" transform="translate(80.654588 120.311219) rotate(-300) scale(0.1 -0.1)">
       <use xlink:href="#DejaVuSans-36"/>
       <use xlink:href="#DejaVuSans-2e" transform="translate(63.623047 0)"/>
       <use xlink:href="#DejaVuSans-36" transform="translate(95.410156 0)"/>
       <use xlink:href="#DejaVuSans-37" transform="translate(159.033203 0)"/>
       <use xlink:href="#DejaVuSans-34" transform="translate(222.65625 0)"/>
       <use xlink:href="#DejaVuSans-31" transform="translate(286.279297 0)"/>
       <use xlink:href="#DejaVuSans-39" transform="translate(349.902344 0)"/>
       <use xlink:href="#DejaVuSans-39" transform="translate(413.525391 0)"/>
       <use xlink:href="#DejaVuSans-32" transform="translate(477.148438 0)"/>
       <use xlink:href="#DejaVuSans-37" transform="translate(540.771484 0)"/>
       <use xlink:href="#DejaVuSans-30" transform="translate(604.394531 0)"/>
       <use xlink:href="#DejaVuSans-39" transform="translate(668.017578 0)"/>
      </g>
     </g>
    </g>
    <g id="xtick_7">
     <g id="line2d_13">
      <path d="M 110.291375 109.512 
L 110.291375 7.2 
" clip-path="url(#pa1d72121d4)" style="fill: none; stroke: #ffffff; stroke-width: 0.8; stroke-linecap: square"/>
     </g>
     <g id="line2d_14">
      <g>
       <use xlink:href="#mb21ed775f2" x="110.291375" y="109.512" style="fill: #555555; stroke: #555555; stroke-width: 0.8"/>
      </g>
     </g>
     <g id="text_7">
      <!-- 7.0710678119 -->
      <g style="fill: #555555" transform="translate(89.61028 120.311219) rotate(-300) scale(0.1 -0.1)">
       <use xlink:href="#DejaVuSans-37"/>
       <use xlink:href="#DejaVuSans-2e" transform="translate(63.623047 0)"/>
       <use xlink:href="#DejaVuSans-30" transform="translate(95.410156 0)"/>
       <use xlink:href="#DejaVuSans-37" transform="translate(159.033203 0)"/>
       <use xlink:href="#DejaVuSans-31" transform="translate(222.65625 0)"/>
       <use xlink:href="#DejaVuSans-30" transform="translate(286.279297 0)"/>
       <use xlink:href="#DejaVuSans-36" transform="translate(349.902344 0)"/>
       <use xlink:href="#DejaVuSans-37" transform="translate(413.525391 0)"/>
       <use xlink:href="#DejaVuSans-38" transform="translate(477.148438 0)"/>
       <use xlink:href="#DejaVuSans-31" transform="translate(540.771484 0)"/>
       <use xlink:href="#DejaVuSans-31" transform="translate(604.394531 0)"/>
       <use xlink:href="#DejaVuSans-39" transform="translate(668.017578 0)"/>
      </g>
     </g>
    </g>
    <g id="xtick_8">
     <g id="line2d_15">
      <path d="M 119.247067 109.512 
L 119.247067 7.2 
" clip-path="url(#pa1d72121d4)" style="fill: none; stroke: #ffffff; stroke-width: 0.8; stroke-linecap: square"/>
     </g>
     <g id="line2d_16">
      <g>
       <use xlink:href="#mb21ed775f2" x="119.247067" y="109.512" style="fill: #555555; stroke: #555555; stroke-width: 0.8"/>
      </g>
     </g>
     <g id="text_8">
      <!-- 7.4915353844 -->
      <g style="fill: #555555" transform="translate(98.565972 120.311219) rotate(-300) scale(0.1 -0.1)">
       <use xlink:href="#DejaVuSans-37"/>
       <use xlink:href="#DejaVuSans-2e" transform="translate(63.623047 0)"/>
       <use xlink:href="#DejaVuSans-34" transform="translate(95.410156 0)"/>
       <use xlink:href="#DejaVuSans-39" transform="translate(159.033203 0)"/>
       <use xlink:href="#DejaVuSans-31" transform="translate(222.65625 0)"/>
       <use xlink:href="#DejaVuSans-35" transform="translate(286.279297 0)"/>
       <use xlink:href="#DejaVuSans-33" transform="translate(349.902344 0)"/>
       <use xlink:href="#DejaVuSans-35" transform="translate(413.525391 0)"/>
       <use xlink:href="#DejaVuSans-33" transform="translate(477.148438 0)"/>
       <use xlink:href="#DejaVuSans-38" transform="translate(540.771484 0)"/>
       <use xlink:href="#DejaVuSans-34" transform="translate(604.394531 0)"/>
       <use xlink:href="#DejaVuSans-34" transform="translate(668.017578 0)"/>
      </g>
     </g>
    </g>
    <g id="xtick_9">
     <g id="line2d_17">
      <path d="M 128.20276 109.512 
L 128.20276 7.2 
" clip-path="url(#pa1d72121d4)" style="fill: none; stroke: #ffffff; stroke-width: 0.8; stroke-linecap: square"/>
     </g>
     <g id="line2d_18">
      <g>
       <use xlink:href="#mb21ed775f2" x="128.20276" y="109.512" style="fill: #555555; stroke: #555555; stroke-width: 0.8"/>
      </g>
     </g>
     <g id="text_9">
      <!-- 7.9370052598 -->
      <g style="fill: #555555" transform="translate(107.521665 120.311219) rotate(-300) scale(0.1 -0.1)">
       <use xlink:href="#DejaVuSans-37"/>
       <use xlink:href="#DejaVuSans-2e" transform="translate(63.623047 0)"/>
       <use xlink:href="#DejaVuSans-39" transform="translate(95.410156 0)"/>
       <use xlink:href="#DejaVuSans-33" transform="translate(159.033203 0)"/>
       <use xlink:href="#DejaVuSans-37" transform="translate(222.65625 0)"/>
       <use xlink:href="#DejaVuSans-30" transform="translate(286.279297 0)"/>
       <use xlink:href="#DejaVuSans-30" transform="translate(349.902344 0)"/>
       <use xlink:href="#DejaVuSans-35" transform="translate(413.525391 0)"/>
       <use xlink:href="#DejaVuSans-32" transform="translate(477.148438 0)"/>
       <use xlink:href="#DejaVuSans-35" transform="translate(540.771484 0)"/>
       <use xlink:href="#DejaVuSans-39" transform="translate(604.394531 0)"/>
       <use xlink:href="#DejaVuSans-38" transform="translate(668.017578 0)"/>
      </g>
     </g>
    </g>
    <g id="xtick_10">
     <g id="line2d_19">
      <path d="M 137.158452 109.512 
L 137.158452 7.2 
" clip-path="url(#pa1d72121d4)" style="fill: none; stroke: #ffffff; stroke-width: 0.8; stroke-linecap: square"/>
     </g>
     <g id="line2d_20">
      <g>
       <use xlink:href="#mb21ed775f2" x="137.158452" y="109.512" style="fill: #555555; stroke: #555555; stroke-width: 0.8"/>
      </g>
     </g>
     <g id="text_10">
      <!-- 8.4089641525 -->
      <g style="fill: #555555" transform="translate(116.477357 120.311219) rotate(-300) scale(0.1 -0.1)">
       <use xlink:href="#DejaVuSans-38"/>
       <use xlink:href="#DejaVuSans-2e" transform="translate(63.623047 0)"/>
       <use xlink:href="#DejaVuSans-34" transform="translate(95.410156 0)"/>
       <use xlink:href="#DejaVuSans-30" transform="translate(159.033203 0)"/>
       <use xlink:href="#DejaVuSans-38" transform="translate(222.65625 0)"/>
       <use xlink:href="#DejaVuSans-39" transform="translate(286.279297 0)"/>
       <use xlink:href="#DejaVuSans-36" transform="translate(349.902344 0)"/>
       <use xlink:href="#DejaVuSans-34" transform="translate(413.525391 0)"/>
       <use xlink:href="#DejaVuSans-31" transform="translate(477.148438 0)"/>
       <use xlink:href="#DejaVuSans-35" transform="translate(540.771484 0)"/>
       <use xlink:href="#DejaVuSans-32" transform="translate(604.394531 0)"/>
       <use xlink:href="#DejaVuSans-35" transform="translate(668.017578 0)"/>
      </g>
     </g>
    </g>
    <g id="xtick_11">
     <g id="line2d_21">
      <path d="M 146.114144 109.512 
L 146.114144 7.2 
" clip-path="url(#pa1d72121d4)" style="fill: none; stroke: #ffffff; stroke-width: 0.8; stroke-linecap: square"/>
     </g>
     <g id="line2d_22">
      <g>
       <use xlink:href="#mb21ed775f2" x="146.114144" y="109.512" style="fill: #555555; stroke: #555555; stroke-width: 0.8"/>
      </g>
     </g>
     <g id="text_11">
      <!-- 8.9089871814 -->
      <g style="fill: #555555" transform="translate(125.433049 120.311219) rotate(-300) scale(0.1 -0.1)">
       <use xlink:href="#DejaVuSans-38"/>
       <use xlink:href="#DejaVuSans-2e" transform="translate(63.623047 0)"/>
       <use xlink:href="#DejaVuSans-39" transform="translate(95.410156 0)"/>
       <use xlink:href="#DejaVuSans-30" transform="translate(159.033203 0)"/>
       <use xlink:href="#DejaVuSans-38" transform="translate(222.65625 0)"/>
       <use xlink:href="#DejaVuSans-39" transform="translate(286.279297 0)"/>
       <use xlink:href="#DejaVuSans-38" transform="translate(349.902344 0)"/>
       <use xlink:href="#DejaVuSans-37" transform="translate(413.525391 0)"/>
       <use xlink:href="#DejaVuSans-31" transform="translate(477.148438 0)"/>
       <use xlink:href="#DejaVuSans-38" transform="translate(540.771484 0)"/>
       <use xlink:href="#DejaVuSans-31" transform="translate(604.394531 0)"/>
       <use xlink:href="#DejaVuSans-34" transform="translate(668.017578 0)"/>
      </g>
     </g>
    </g>
    <g id="xtick_12">
     <g id="line2d_23">
      <path d="M 155.069837 109.512 
L 155.069837 7.2 
" clip-path="url(#pa1d72121d4)" style="fill: none; stroke: #ffffff; stroke-width: 0.8; stroke-linecap: square"/>
     </g>
     <g id="line2d_24">
      <g>
       <use xlink:href="#mb21ed775f2" x="155.069837" y="109.512" style="fill: #555555; stroke: #555555; stroke-width: 0.8"/>
      </g>
     </g>
     <g id="text_12">
      <!-- 9.4387431268 -->
      <g style="fill: #555555" transform="translate(134.388741 120.311219) rotate(-300) scale(0.1 -0.1)">
       <use xlink:href="#DejaVuSans-39"/>
       <use xlink:href="#DejaVuSans-2e" transform="translate(63.623047 0)"/>
       <use xlink:href="#DejaVuSans-34" transform="translate(95.410156 0)"/>
       <use xlink:href="#DejaVuSans-33" transform="translate(159.033203 0)"/>
       <use xlink:href="#DejaVuSans-38" transform="translate(222.65625 0)"/>
       <use xlink:href="#DejaVuSans-37" transform="translate(286.279297 0)"/>
       <use xlink:href="#DejaVuSans-34" transform="translate(349.902344 0)"/>
       <use xlink:href="#DejaVuSans-33" transform="translate(413.525391 0)"/>
       <use xlink:href="#DejaVuSans-31" transform="translate(477.148438 0)"/>
       <use xlink:href="#DejaVuSans-32" transform="translate(540.771484 0)"/>
       <use xlink:href="#DejaVuSans-36" transform="translate(604.394531 0)"/>
       <use xlink:href="#DejaVuSans-38" transform="translate(668.017578 0)"/>
      </g>
     </g>
    </g>
    <g id="xtick_13">
     <g id="line2d_25">
      <path d="M 164.025529 109.512 
L 164.025529 7.2 
" clip-path="url(#pa1d72121d4)" style="fill: none; stroke: #ffffff; stroke-width: 0.8; stroke-linecap: square"/>
     </g>
     <g id="line2d_26">
      <g>
       <use xlink:href="#mb21ed775f2" x="164.025529" y="109.512" style="fill: #555555; stroke: #555555; stroke-width: 0.8"/>
      </g>
     </g>
     <g id="text_13">
      <!-- 10.0 -->
      <g style="fill: #555555" transform="translate(156.069434 120.311219) rotate(-300) scale(0.1 -0.1)">
       <use xlink:href="#DejaVuSans-31"/>
       <use xlink:href="#DejaVuSans-30" transform="translate(63.623047 0)"/>
       <use xlink:href="#DejaVuSans-2e" transform="translate(127.246094 0)"/>
       <use xlink:href="#DejaVuSans-30" transform="translate(159.033203 0)"/>
      </g>
     </g>
    </g>
    <g id="text_14">
     <!-- Movie gain -->
     <g style="fill: #555555" transform="translate(77.671063 197.832477) scale(0.12 -0.12)">
      <defs>
       <path id="DejaVuSans-4d" d="M 628 4666 
L 1569 4666 
L 2759 1491 
L 3956 4666 
L 4897 4666 
L 4897 0 
L 4281 0 
L 4281 4097 
L 3078 897 
L 2444 897 
L 1241 4097 
L 1241 0 
L 628 0 
L 628 4666 
z
" transform="scale(0.015625)"/>
       <path id="DejaVuSans-6f" d="M 1959 3097 
Q 1497 3097 1228 2736 
Q 959 2375 959 1747 
Q 959 1119 1226 758 
Q 1494 397 1959 397 
Q 2419 397 2687 759 
Q 2956 1122 2956 1747 
Q 2956 2369 2687 2733 
Q 2419 3097 1959 3097 
z
M 1959 3584 
Q 2709 3584 3137 3096 
Q 3566 2609 3566 1747 
Q 3566 888 3137 398 
Q 2709 -91 1959 -91 
Q 1206 -91 779 398 
Q 353 888 353 1747 
Q 353 2609 779 3096 
Q 1206 3584 1959 3584 
z
" transform="scale(0.015625)"/>
       <path id="DejaVuSans-76" d="M 191 3500 
L 800 3500 
L 1894 563 
L 2988 3500 
L 3597 3500 
L 2284 0 
L 1503 0 
L 191 3500 
z
" transform="scale(0.015625)"/>
       <path id="DejaVuSans-69" d="M 603 3500 
L 1178 3500 
L 1178 0 
L 603 0 
L 603 3500 
z
M 603 4863 
L 1178 4863 
L 1178 4134 
L 603 4134 
L 603 4863 
z
" transform="scale(0.015625)"/>
       <path id="DejaVuSans-65" d="M 3597 1894 
L 3597 1613 
L 953 1613 
Q 991 1019 1311 708 
Q 1631 397 2203 397 
Q 2534 397 2845 478 
Q 3156 559 3463 722 
L 3463 178 
Q 3153 47 2828 -22 
Q 2503 -91 2169 -91 
Q 1331 -91 842 396 
Q 353 884 353 1716 
Q 353 2575 817 3079 
Q 1281 3584 2069 3584 
Q 2775 3584 3186 3129 
Q 3597 2675 3597 1894 
z
M 3022 2063 
Q 3016 2534 2758 2815 
Q 2500 3097 2075 3097 
Q 1594 3097 1305 2825 
Q 1016 2553 972 2059 
L 3022 2063 
z
" transform="scale(0.015625)"/>
       <path id="DejaVuSans-20" transform="scale(0.015625)"/>
       <path id="DejaVuSans-67" d="M 2906 1791 
Q 2906 2416 2648 2759 
Q 2391 3103 1925 3103 
Q 1463 3103 1205 2759 
Q 947 2416 947 1791 
Q 947 1169 1205 825 
Q 1463 481 1925 481 
Q 2391 481 2648 825 
Q 2906 1169 2906 1791 
z
M 3481 434 
Q 3481 -459 3084 -895 
Q 2688 -1331 1869 -1331 
Q 1566 -1331 1297 -1286 
Q 1028 -1241 775 -1147 
L 775 -588 
Q 1028 -725 1275 -790 
Q 1522 -856 1778 -856 
Q 2344 -856 2625 -561 
Q 2906 -266 2906 331 
L 2906 616 
Q 2728 306 2450 153 
Q 2172 0 1784 0 
Q 1141 0 747 490 
Q 353 981 353 1791 
Q 353 2603 747 3093 
Q 1141 3584 1784 3584 
Q 2172 3584 2450 3431 
Q 2728 3278 2906 2969 
L 2906 3500 
L 3481 3500 
L 3481 434 
z
" transform="scale(0.015625)"/>
       <path id="DejaVuSans-61" d="M 2194 1759 
Q 1497 1759 1228 1600 
Q 959 1441 959 1056 
Q 959 750 1161 570 
Q 1363 391 1709 391 
Q 2188 391 2477 730 
Q 2766 1069 2766 1631 
L 2766 1759 
L 2194 1759 
z
M 3341 1997 
L 3341 0 
L 2766 0 
L 2766 531 
Q 2569 213 2275 61 
Q 1981 -91 1556 -91 
Q 1019 -91 701 211 
Q 384 513 384 1019 
Q 384 1609 779 1909 
Q 1175 2209 1959 2209 
L 2766 2209 
L 2766 2266 
Q 2766 2663 2505 2880 
Q 2244 3097 1772 3097 
Q 1472 3097 1187 3025 
Q 903 2953 641 2809 
L 641 3341 
Q 956 3463 1253 3523 
Q 1550 3584 1831 3584 
Q 2591 3584 2966 3190 
Q 3341 2797 3341 1997 
z
" transform="scale(0.015625)"/>
       <path id="DejaVuSans-6e" d="M 3513 2113 
L 3513 0 
L 2938 0 
L 2938 2094 
Q 2938 2591 2744 2837 
Q 2550 3084 2163 3084 
Q 1697 3084 1428 2787 
Q 1159 2491 1159 1978 
L 1159 0 
L 581 0 
L 581 3500 
L 1159 3500 
L 1159 2956 
Q 1366 3272 1645 3428 
Q 1925 3584 2291 3584 
Q 2894 3584 3203 3211 
Q 3513 2838 3513 2113 
z
" transform="scale(0.015625)"/>
      </defs>
      <use xlink:href="#DejaVuSans-4d"/>
      <use xlink:href="#DejaVuSans-6f" transform="translate(86.279297 0)"/>
      <use xlink:href="#DejaVuSans-76" transform="translate(147.460938 0)"/>
      <use xlink:href="#DejaVuSans-69" transform="translate(206.640625 0)"/>
      <use xlink:href="#DejaVuSans-65" transform="translate(234.423828 0)"/>
      <use xlink:href="#DejaVuSans-20" transform="translate(295.947266 0)"/>
      <use xlink:href="#DejaVuSans-67" transform="translate(327.734375 0)"/>
      <use xlink:href="#DejaVuSans-61" transform="translate(391.210938 0)"/>
      <use xlink:href="#DejaVuSans-69" transform="translate(452.490234 0)"/>
      <use xlink:href="#DejaVuSans-6e" transform="translate(480.273438 0)"/>
     </g>
    </g>
   </g>
   <g id="matplotlib.axis_2">
    <g id="ytick_1">
     <g id="line2d_27">
      <path d="M 52.079375 91.240322 
L 168.503375 91.240322 
" clip-path="url(#pa1d72121d4)" style="fill: none; stroke: #ffffff; stroke-width: 0.8; stroke-linecap: square"/>
     </g>
     <g id="line2d_28">
      <defs>
       <path id="m5c5fc1df3a" d="M 0 0 
L -3.5 0 
" style="stroke: #555555; stroke-width: 0.8"/>
      </defs>
      <g>
       <use xlink:href="#m5c5fc1df3a" x="52.079375" y="91.240322" style="fill: #555555; stroke: #555555; stroke-width: 0.8"/>
      </g>
     </g>
     <g id="text_15">
      <!-- 0.00 -->
      <g style="fill: #555555" transform="translate(22.81375 95.039541) scale(0.1 -0.1)">
       <use xlink:href="#DejaVuSans-30"/>
       <use xlink:href="#DejaVuSans-2e" transform="translate(63.623047 0)"/>
       <use xlink:href="#DejaVuSans-30" transform="translate(95.410156 0)"/>
       <use xlink:href="#DejaVuSans-30" transform="translate(159.033203 0)"/>
      </g>
     </g>
    </g>
    <g id="ytick_2">
     <g id="line2d_29">
      <path d="M 52.079375 67.320333 
L 168.503375 67.320333 
" clip-path="url(#pa1d72121d4)" style="fill: none; stroke: #ffffff; stroke-width: 0.8; stroke-linecap: square"/>
     </g>
     <g id="line2d_30">
      <g>
       <use xlink:href="#m5c5fc1df3a" x="52.079375" y="67.320333" style="fill: #555555; stroke: #555555; stroke-width: 0.8"/>
      </g>
     </g>
     <g id="text_16">
      <!-- 0.02 -->
      <g style="fill: #555555" transform="translate(22.81375 71.119552) scale(0.1 -0.1)">
       <use xlink:href="#DejaVuSans-30"/>
       <use xlink:href="#DejaVuSans-2e" transform="translate(63.623047 0)"/>
       <use xlink:href="#DejaVuSans-30" transform="translate(95.410156 0)"/>
       <use xlink:href="#DejaVuSans-32" transform="translate(159.033203 0)"/>
      </g>
     </g>
    </g>
    <g id="ytick_3">
     <g id="line2d_31">
      <path d="M 52.079375 43.400344 
L 168.503375 43.400344 
" clip-path="url(#pa1d72121d4)" style="fill: none; stroke: #ffffff; stroke-width: 0.8; stroke-linecap: square"/>
     </g>
     <g id="line2d_32">
      <g>
       <use xlink:href="#m5c5fc1df3a" x="52.079375" y="43.400344" style="fill: #555555; stroke: #555555; stroke-width: 0.8"/>
      </g>
     </g>
     <g id="text_17">
      <!-- 0.04 -->
      <g style="fill: #555555" transform="translate(22.81375 47.199562) scale(0.1 -0.1)">
       <use xlink:href="#DejaVuSans-30"/>
       <use xlink:href="#DejaVuSans-2e" transform="translate(63.623047 0)"/>
       <use xlink:href="#DejaVuSans-30" transform="translate(95.410156 0)"/>
       <use xlink:href="#DejaVuSans-34" transform="translate(159.033203 0)"/>
      </g>
     </g>
    </g>
    <g id="ytick_4">
     <g id="line2d_33">
      <path d="M 52.079375 19.480354 
L 168.503375 19.480354 
" clip-path="url(#pa1d72121d4)" style="fill: none; stroke: #ffffff; stroke-width: 0.8; stroke-linecap: square"/>
     </g>
     <g id="line2d_34">
      <g>
       <use xlink:href="#m5c5fc1df3a" x="52.079375" y="19.480354" style="fill: #555555; stroke: #555555; stroke-width: 0.8"/>
      </g>
     </g>
     <g id="text_18">
      <!-- 0.06 -->
      <g style="fill: #555555" transform="translate(22.81375 23.279573) scale(0.1 -0.1)">
       <use xlink:href="#DejaVuSans-30"/>
       <use xlink:href="#DejaVuSans-2e" transform="translate(63.623047 0)"/>
       <use xlink:href="#DejaVuSans-30" transform="translate(95.410156 0)"/>
       <use xlink:href="#DejaVuSans-36" transform="translate(159.033203 0)"/>
      </g>
     </g>
    </g>
    <g id="text_19">
     <!-- Loss -->
     <g style="fill: #555555" transform="translate(16.318125 71.516625) rotate(-90) scale(0.12 -0.12)">
      <defs>
       <path id="DejaVuSans-4c" d="M 628 4666 
L 1259 4666 
L 1259 531 
L 3531 531 
L 3531 0 
L 628 0 
L 628 4666 
z
" transform="scale(0.015625)"/>
       <path id="DejaVuSans-73" d="M 2834 3397 
L 2834 2853 
Q 2591 2978 2328 3040 
Q 2066 3103 1784 3103 
Q 1356 3103 1142 2972 
Q 928 2841 928 2578 
Q 928 2378 1081 2264 
Q 1234 2150 1697 2047 
L 1894 2003 
Q 2506 1872 2764 1633 
Q 3022 1394 3022 966 
Q 3022 478 2636 193 
Q 2250 -91 1575 -91 
Q 1294 -91 989 -36 
Q 684 19 347 128 
L 347 722 
Q 666 556 975 473 
Q 1284 391 1588 391 
Q 1994 391 2212 530 
Q 2431 669 2431 922 
Q 2431 1156 2273 1281 
Q 2116 1406 1581 1522 
L 1381 1569 
Q 847 1681 609 1914 
Q 372 2147 372 2553 
Q 372 3047 722 3315 
Q 1072 3584 1716 3584 
Q 2034 3584 2315 3537 
Q 2597 3491 2834 3397 
z
" transform="scale(0.015625)"/>
      </defs>
      <use xlink:href="#DejaVuSans-4c"/>
      <use xlink:href="#DejaVuSans-6f" transform="translate(53.962891 0)"/>
      <use xlink:href="#DejaVuSans-73" transform="translate(115.144531 0)"/>
      <use xlink:href="#DejaVuSans-73" transform="translate(167.244141 0)"/>
     </g>
    </g>
   </g>
   <g id="patch_3">
    <path d="M 54.318298 91.240322 
L 58.796144 91.240322 
L 58.796144 58.356 
L 54.318298 58.356 
z
" clip-path="url(#pa1d72121d4)" style="fill: #e24a33; opacity: 0.5"/>
   </g>
   <g id="patch_4">
    <path d="M 63.27399 91.240322 
L 67.751837 91.240322 
L 67.751837 91.240322 
L 63.27399 91.240322 
z
" clip-path="url(#pa1d72121d4)" style="fill: #e24a33; opacity: 0.5"/>
   </g>
   <g id="patch_5">
    <path d="M 72.229683 91.240322 
L 76.707529 91.240322 
L 76.707529 91.19534 
L 72.229683 91.19534 
z
" clip-path="url(#pa1d72121d4)" style="fill: #e24a33; opacity: 0.5"/>
   </g>
   <g id="patch_6">
    <path d="M 81.185375 91.240322 
L 85.663221 91.240322 
L 85.663221 91.240322 
L 81.185375 91.240322 
z
" clip-path="url(#pa1d72121d4)" style="fill: #e24a33; opacity: 0.5"/>
   </g>
   <g id="patch_7">
    <path d="M 90.141067 91.240322 
L 94.618913 91.240322 
L 94.618913 91.203574 
L 90.141067 91.203574 
z
" clip-path="url(#pa1d72121d4)" style="fill: #e24a33; opacity: 0.5"/>
   </g>
   <g id="patch_8">
    <path d="M 99.09676 91.240322 
L 103.574606 91.240322 
L 103.574606 91.147007 
L 99.09676 91.147007 
z
" clip-path="url(#pa1d72121d4)" style="fill: #e24a33; opacity: 0.5"/>
   </g>
   <g id="patch_9">
    <path d="M 108.052452 91.240322 
L 112.530298 91.240322 
L 112.530298 91.026817 
L 108.052452 91.026817 
z
" clip-path="url(#pa1d72121d4)" style="fill: #e24a33; opacity: 0.5"/>
   </g>
   <g id="patch_10">
    <path d="M 117.008144 91.240322 
L 121.48599 91.240322 
L 121.48599 90.624437 
L 117.008144 90.624437 
z
" clip-path="url(#pa1d72121d4)" style="fill: #e24a33; opacity: 0.5"/>
   </g>
   <g id="patch_11">
    <path d="M 125.963837 91.240322 
L 130.441683 91.240322 
L 130.441683 89.93477 
L 125.963837 89.93477 
z
" clip-path="url(#pa1d72121d4)" style="fill: #e24a33; opacity: 0.5"/>
   </g>
   <g id="patch_12">
    <path d="M 134.919529 91.240322 
L 139.397375 91.240322 
L 139.397375 88.449574 
L 134.919529 88.449574 
z
" clip-path="url(#pa1d72121d4)" style="fill: #e24a33; opacity: 0.5"/>
   </g>
   <g id="patch_13">
    <path d="M 143.875221 91.240322 
L 148.353067 91.240322 
L 148.353067 85.893111 
L 143.875221 85.893111 
z
" clip-path="url(#pa1d72121d4)" style="fill: #e24a33; opacity: 0.5"/>
   </g>
   <g id="patch_14">
    <path d="M 152.830913 91.240322 
L 157.30876 91.240322 
L 157.30876 80.258434 
L 152.830913 80.258434 
z
" clip-path="url(#pa1d72121d4)" style="fill: #e24a33; opacity: 0.5"/>
   </g>
   <g id="patch_15">
    <path d="M 161.786606 91.240322 
L 166.264452 91.240322 
L 166.264452 68.657987 
L 161.786606 68.657987 
z
" clip-path="url(#pa1d72121d4)" style="fill: #e24a33; opacity: 0.5"/>
   </g>
   <g id="LineCollection_1">
    <path d="M 56.557221 104.861455 
L 56.557221 11.850545 
" clip-path="url(#pa1d72121d4)" style="fill: none; stroke: #555555; stroke-width: 1.5"/>
    <path d="M 65.512913 91.240322 
L 65.512913 91.240322 
" clip-path="url(#pa1d72121d4)" style="fill: none; stroke: #555555; stroke-width: 1.5"/>
    <path d="M 74.468606 91.258955 
L 74.468606 91.131726 
" clip-path="url(#pa1d72121d4)" style="fill: none; stroke: #555555; stroke-width: 1.5"/>
    <path d="M 83.424298 91.240322 
L 83.424298 91.240322 
" clip-path="url(#pa1d72121d4)" style="fill: none; stroke: #555555; stroke-width: 1.5"/>
    <path d="M 92.37999 91.255544 
L 92.37999 91.151603 
" clip-path="url(#pa1d72121d4)" style="fill: none; stroke: #555555; stroke-width: 1.5"/>
    <path d="M 101.335683 91.188745 
L 101.335683 91.10527 
" clip-path="url(#pa1d72121d4)" style="fill: none; stroke: #555555; stroke-width: 1.5"/>
    <path d="M 110.291375 91.175621 
L 110.291375 90.878014 
" clip-path="url(#pa1d72121d4)" style="fill: none; stroke: #555555; stroke-width: 1.5"/>
    <path d="M 119.247067 90.783675 
L 119.247067 90.465199 
" clip-path="url(#pa1d72121d4)" style="fill: none; stroke: #555555; stroke-width: 1.5"/>
    <path d="M 128.20276 90.596723 
L 128.20276 89.272817 
" clip-path="url(#pa1d72121d4)" style="fill: none; stroke: #555555; stroke-width: 1.5"/>
    <path d="M 137.158452 88.661689 
L 137.158452 88.237459 
" clip-path="url(#pa1d72121d4)" style="fill: none; stroke: #555555; stroke-width: 1.5"/>
    <path d="M 146.114144 86.252769 
L 146.114144 85.533452 
" clip-path="url(#pa1d72121d4)" style="fill: none; stroke: #555555; stroke-width: 1.5"/>
    <path d="M 155.069837 80.392367 
L 155.069837 80.124501 
" clip-path="url(#pa1d72121d4)" style="fill: none; stroke: #555555; stroke-width: 1.5"/>
    <path d="M 164.025529 69.660897 
L 164.025529 67.655078 
" clip-path="url(#pa1d72121d4)" style="fill: none; stroke: #555555; stroke-width: 1.5"/>
   </g>
   <g id="line2d_35">
    <defs>
     <path id="mb25b4d1a86" d="M 4 0 
L -4 -0 
" style="stroke: #555555"/>
    </defs>
    <g clip-path="url(#pa1d72121d4)">
     <use xlink:href="#mb25b4d1a86" x="56.557221" y="104.861455" style="fill: #e24a33; stroke: #555555"/>
     <use xlink:href="#mb25b4d1a86" x="65.512913" y="91.240322" style="fill: #e24a33; stroke: #555555"/>
     <use xlink:href="#mb25b4d1a86" x="74.468606" y="91.258955" style="fill: #e24a33; stroke: #555555"/>
     <use xlink:href="#mb25b4d1a86" x="83.424298" y="91.240322" style="fill: #e24a33; stroke: #555555"/>
     <use xlink:href="#mb25b4d1a86" x="92.37999" y="91.255544" style="fill: #e24a33; stroke: #555555"/>
     <use xlink:href="#mb25b4d1a86" x="101.335683" y="91.188745" style="fill: #e24a33; stroke: #555555"/>
     <use xlink:href="#mb25b4d1a86" x="110.291375" y="91.175621" style="fill: #e24a33; stroke: #555555"/>
     <use xlink:href="#mb25b4d1a86" x="119.247067" y="90.783675" style="fill: #e24a33; stroke: #555555"/>
     <use xlink:href="#mb25b4d1a86" x="128.20276" y="90.596723" style="fill: #e24a33; stroke: #555555"/>
     <use xlink:href="#mb25b4d1a86" x="137.158452" y="88.661689" style="fill: #e24a33; stroke: #555555"/>
     <use xlink:href="#mb25b4d1a86" x="146.114144" y="86.252769" style="fill: #e24a33; stroke: #555555"/>
     <use xlink:href="#mb25b4d1a86" x="155.069837" y="80.392367" style="fill: #e24a33; stroke: #555555"/>
     <use xlink:href="#mb25b4d1a86" x="164.025529" y="69.660897" style="fill: #e24a33; stroke: #555555"/>
    </g>
   </g>
   <g id="line2d_36">
    <g clip-path="url(#pa1d72121d4)">
     <use xlink:href="#mb25b4d1a86" x="56.557221" y="11.850545" style="fill: #e24a33; stroke: #555555"/>
     <use xlink:href="#mb25b4d1a86" x="65.512913" y="91.240322" style="fill: #e24a33; stroke: #555555"/>
     <use xlink:href="#mb25b4d1a86" x="74.468606" y="91.131726" style="fill: #e24a33; stroke: #555555"/>
     <use xlink:href="#mb25b4d1a86" x="83.424298" y="91.240322" style="fill: #e24a33; stroke: #555555"/>
     <use xlink:href="#mb25b4d1a86" x="92.37999" y="91.151603" style="fill: #e24a33; stroke: #555555"/>
     <use xlink:href="#mb25b4d1a86" x="101.335683" y="91.10527" style="fill: #e24a33; stroke: #555555"/>
     <use xlink:href="#mb25b4d1a86" x="110.291375" y="90.878014" style="fill: #e24a33; stroke: #555555"/>
     <use xlink:href="#mb25b4d1a86" x="119.247067" y="90.465199" style="fill: #e24a33; stroke: #555555"/>
     <use xlink:href="#mb25b4d1a86" x="128.20276" y="89.272817" style="fill: #e24a33; stroke: #555555"/>
     <use xlink:href="#mb25b4d1a86" x="137.158452" y="88.237459" style="fill: #e24a33; stroke: #555555"/>
     <use xlink:href="#mb25b4d1a86" x="146.114144" y="85.533452" style="fill: #e24a33; stroke: #555555"/>
     <use xlink:href="#mb25b4d1a86" x="155.069837" y="80.124501" style="fill: #e24a33; stroke: #555555"/>
     <use xlink:href="#mb25b4d1a86" x="164.025529" y="67.655078" style="fill: #e24a33; stroke: #555555"/>
    </g>
   </g>
   <g id="patch_16">
    <path d="M 52.079375 109.512 
L 52.079375 7.2 
" style="fill: none; stroke: #ffffff; stroke-linejoin: miter; stroke-linecap: square"/>
   </g>
   <g id="patch_17">
    <path d="M 168.503375 109.512 
L 168.503375 7.2 
" style="fill: none; stroke: #ffffff; stroke-linejoin: miter; stroke-linecap: square"/>
   </g>
   <g id="patch_18">
    <path d="M 52.079375 109.512 
L 168.503375 109.512 
" style="fill: none; stroke: #ffffff; stroke-linejoin: miter; stroke-linecap: square"/>
   </g>
   <g id="patch_19">
    <path d="M 52.079375 7.2 
L 168.503375 7.2 
" style="fill: none; stroke: #ffffff; stroke-linejoin: miter; stroke-linecap: square"/>
   </g>
  </g>
 </g>
 <defs>
  <clipPath id="pa1d72121d4">
   <rect x="52.079375" y="7.2" width="116.424" height="102.312"/>
  </clipPath>
 </defs>
</svg>
