<?xml version="1.0" encoding="utf-8" standalone="no"?>
<!DOCTYPE svg PUBLIC "-//W3C//DTD SVG 1.1//EN"
  "http://www.w3.org/Graphics/SVG/1.1/DTD/svg11.dtd">
<svg xmlns:xlink="http://www.w3.org/1999/xlink" width="180.426968pt" height="250.341833pt" viewBox="0 0 180.426968 250.341833" xmlns="http://www.w3.org/2000/svg" version="1.1">
 <metadata>
  <rdf:RDF xmlns:dc="http://purl.org/dc/elements/1.1/" xmlns:cc="http://creativecommons.org/ns#" xmlns:rdf="http://www.w3.org/1999/02/22-rdf-syntax-ns#">
   <cc:Work>
    <dc:type rdf:resource="http://purl.org/dc/dcmitype/StillImage"/>
    <dc:date>2026-08-05T19:04:49.164129</dc:date>
    <dc:format>image/svg+xml</dc:format>
    <dc:creator>
     <cc:Agent>
      <dc:title>Matplotlib v3.10.9, https://matplotlib.org/</dc:title>
     </cc:Agent>
    </dc:creator>
   </cc:Work>
  </rdf:RDF>
 </metadata>
 <defs>
  <style type="text/css">*{stroke-linejoin: round; stroke-linecap: butt}</style>
 </defs>
 <g id="figure_1">
  <g id="patch_1">
   <path d="M 0 250.341833 
L 180.426968 250.341833 
L 180.426968 0 
L 0 0 
L 0 250.341833 
z
" style="fill: none"/>
  </g>
  <g id="axes_1">
   <g id="patch_2">
    <path d="M 45.716875 113.755124 
L 162.646009 113.755124 
L 162.646009 10.999219 
L 45.716875 10.999219 
L 45.716875 113.755124 
z
" style="fill: none"/>
   </g>
   <g id="matplotlib.axis_1">
    <g id="xtick_1">
     <g id="line2d_1">
      <path d="M 50.214149 113.755124 
L 50.214149 10.999219 
" clip-path="url(#p506a7262c6)" style="fill: none; stroke: #ffffff; stroke-width: 0.8; stroke-linecap: square"/>
     </g>
     <g id="line2d_2">
      <defs>
       <path id="me9e92530c8" d="M 0 0 
L 0 3.5 
" style="stroke: #555555; stroke-width: 0.8"/>
      </defs>
      <g>
       <use xlink:href="#me9e92530c8" x="50.214149" y="113.755124" style="fill: #555555; stroke: #555555; stroke-width: 0.8"/>
      </g>
     </g>
     <g id="text_1">
      <!-- 0.01 -->
      <g style="fill: #555555" transform="translate(42.258054 124.554343) rotate(-300) scale(0.1 -0.1)">
       <defs>
        <path id="DejaVuSans-30" d="M 2034 4250 
Q 1547 4250 1301 3770 
Q 1056 3291 1056 2328 
Q 1056 1369 1301 889 
Q 1547 409 2034 409 
Q 2525 409 2770 889 
Q 3016 1369 3016 2328 
Q 3016 3291 2770 3770 
Q 2525 4250 2034 4250 
z
M 2034 4750 
Q 2819 4750 3233 4129 
Q 3647 3509 3647 2328 
Q 3647 1150 3233 529 
Q 2819 -91 2034 -91 
Q 1250 -91 836 529 
Q 422 1150 422 2328 
Q 422 3509 836 4129 
Q 1250 4750 2034 4750 
z
" transform="scale(0.015625)"/>
        <path id="DejaVuSans-2e" d="M 684 794 
L 1344 794 
L 1344 0 
L 684 0 
L 684 794 
z
" transform="scale(0.015625)"/>
        <path id="DejaVuSans-31" d="M 794 531 
L 1825 531 
L 1825 4091 
L 703 3866 
L 703 4441 
L 1819 4666 
L 2450 4666 
L 2450 531 
L 3481 531 
L 3481 0 
L 794 0 
L 794 531 
z
" transform="scale(0.015625)"/>
       </defs>
       <use xlink:href="#DejaVuSans-30"/>
       <use xlink:href="#DejaVuSans-2e" transform="translate(63.623047 0)"/>
       <use xlink:href="#DejaVuSans-30" transform="translate(95.410156 0)"/>
       <use xlink:href="#DejaVuSans-31" transform="translate(159.033203 0)"/>
      </g>
     </g>
    </g>
    <g id="xtick_2">
     <g id="line2d_3">
      <path d="M 59.208698 113.755124 
L 59.208698 10.999219 
" clip-path="url(#p506a7262c6)" style="fill: none; stroke: #ffffff; stroke-width: 0.8; stroke-linecap: square"/>
     </g>
     <g id="line2d_4">
      <g>
       <use xlink:href="#me9e92530c8" x="59.208698" y="113.755124" style="fill: #555555; stroke: #555555; stroke-width: 0.8"/>
      </g>
     </g>
     <g id="text_2">
      <!-- 0.0215443469 -->
      <g style="fill: #555555" transform="translate(38.527603 124.554343) rotate(-300) scale(0.1 -0.1)">
       <defs>
        <path id="DejaVuSans-32" d="M 1228 531 
L 3431 531 
L 3431 0 
L 469 0 
L 469 531 
Q 828 903 1448 1529 
Q 2069 2156 2228 2338 
Q 2531 2678 2651 2914 
Q 2772 3150 2772 3378 
Q 2772 3750 2511 3984 
Q 2250 4219 1831 4219 
Q 1534 4219 1204 4116 
Q 875 4013 500 3803 
L 500 4441 
Q 881 4594 1212 4672 
Q 1544 4750 1819 4750 
Q 2544 4750 2975 4387 
Q 3406 4025 3406 3419 
Q 3406 3131 3298 2873 
Q 3191 2616 2906 2266 
Q 2828 2175 2409 1742 
Q 1991 1309 1228 531 
z
" transform="scale(0.015625)"/>
        <path id="DejaVuSans-35" d="M 691 4666 
L 3169 4666 
L 3169 4134 
L 1269 4134 
L 1269 2991 
Q 1406 3038 1543 3061 
Q 1681 3084 1819 3084 
Q 2600 3084 3056 2656 
Q 3513 2228 3513 1497 
Q 3513 744 3044 326 
Q 2575 -91 1722 -91 
Q 1428 -91 1123 -41 
Q 819 9 494 109 
L 494 744 
Q 775 591 1075 516 
Q 1375 441 1709 441 
Q 2250 441 2565 725 
Q 2881 1009 2881 1497 
Q 2881 1984 2565 2268 
Q 2250 2553 1709 2553 
Q 1456 2553 1204 2497 
Q 953 2441 691 2322 
L 691 4666 
z
" transform="scale(0.015625)"/>
        <path id="DejaVuSans-34" d="M 2419 4116 
L 825 1625 
L 2419 1625 
L 2419 4116 
z
M 2253 4666 
L 3047 4666 
L 3047 1625 
L 3713 1625 
L 3713 1100 
L 3047 1100 
L 3047 0 
L 2419 0 
L 2419 1100 
L 313 1100 
L 313 1709 
L 2253 4666 
z
" transform="scale(0.015625)"/>
        <path id="DejaVuSans-33" d="M 2597 2516 
Q 3050 2419 3304 2112 
Q 3559 1806 3559 1356 
Q 3559 666 3084 287 
Q 2609 -91 1734 -91 
Q 1441 -91 1130 -33 
Q 819 25 488 141 
L 488 750 
Q 750 597 1062 519 
Q 1375 441 1716 441 
Q 2309 441 2620 675 
Q 2931 909 2931 1356 
Q 2931 1769 2642 2001 
Q 2353 2234 1838 2234 
L 1294 2234 
L 1294 2753 
L 1863 2753 
Q 2328 2753 2575 2939 
Q 2822 3125 2822 3475 
Q 2822 3834 2567 4026 
Q 2313 4219 1838 4219 
Q 1578 4219 1281 4162 
Q 984 4106 628 3988 
L 628 4550 
Q 988 4650 1302 4700 
Q 1616 4750 1894 4750 
Q 2613 4750 3031 4423 
Q 3450 4097 3450 3541 
Q 3450 3153 3228 2886 
Q 3006 2619 2597 2516 
z
" transform="scale(0.015625)"/>
        <path id="DejaVuSans-36" d="M 2113 2584 
Q 1688 2584 1439 2293 
Q 1191 2003 1191 1497 
Q 1191 994 1439 701 
Q 1688 409 2113 409 
Q 2538 409 2786 701 
Q 3034 994 3034 1497 
Q 3034 2003 2786 2293 
Q 2538 2584 2113 2584 
z
M 3366 4563 
L 3366 3988 
Q 3128 4100 2886 4159 
Q 2644 4219 2406 4219 
Q 1781 4219 1451 3797 
Q 1122 3375 1075 2522 
Q 1259 2794 1537 2939 
Q 1816 3084 2150 3084 
Q 2853 3084 3261 2657 
Q 3669 2231 3669 1497 
Q 3669 778 3244 343 
Q 2819 -91 2113 -91 
Q 1303 -91 875 529 
Q 447 1150 447 2328 
Q 447 3434 972 4092 
Q 1497 4750 2381 4750 
Q 2619 4750 2861 4703 
Q 3103 4656 3366 4563 
z
" transform="scale(0.015625)"/>
        <path id="DejaVuSans-39" d="M 703 97 
L 703 672 
Q 941 559 1184 500 
Q 1428 441 1663 441 
Q 2288 441 2617 861 
Q 2947 1281 2994 2138 
Q 2813 1869 2534 1725 
Q 2256 1581 1919 1581 
Q 1219 1581 811 2004 
Q 403 2428 403 3163 
Q 403 3881 828 4315 
Q 1253 4750 1959 4750 
Q 2769 4750 3195 4129 
Q 3622 3509 3622 2328 
Q 3622 1225 3098 567 
Q 2575 -91 1691 -91 
Q 1453 -91 1209 -44 
Q 966 3 703 97 
z
M 1959 2075 
Q 2384 2075 2632 2365 
Q 2881 2656 2881 3163 
Q 2881 3666 2632 3958 
Q 2384 4250 1959 4250 
Q 1534 4250 1286 3958 
Q 1038 3666 1038 3163 
Q 1038 2656 1286 2365 
Q 1534 2075 1959 2075 
z
" transform="scale(0.015625)"/>
       </defs>
       <use xlink:href="#DejaVuSans-30"/>
       <use xlink:href="#DejaVuSans-2e" transform="translate(63.623047 0)"/>
       <use xlink:href="#DejaVuSans-30" transform="translate(95.410156 0)"/>
       <use xlink:href="#DejaVuSans-32" transform="translate(159.033203 0)"/>
       <use xlink:href="#DejaVuSans-31" transform="translate(222.65625 0)"/>
       <use xlink:href="#DejaVuSans-35" transform="translate(286.279297 0)"/>
       <use xlink:href="#DejaVuSans-34" transform="translate(349.902344 0)"/>
       <use xlink:href="#DejaVuSans-34" transform="translate(413.525391 0)"/>
       <use xlink:href="#DejaVuSans-33" transform="translate(477.148438 0)"/>
       <use xlink:href="#DejaVuSans-34" transform="translate(540.771484 0)"/>
       <use xlink:href="#DejaVuSans-36" transform="translate(604.394531 0)"/>
       <use xlink:href="#DejaVuSans-39" transform="translate(668.017578 0)"/>
      </g>
     </g>
    </g>
    <g id="xtick_3">
     <g id="line2d_5">
      <path d="M 68.203247 113.755124 
L 68.203247 10.999219 
" clip-path="url(#p506a7262c6)" style="fill: none; stroke: #ffffff; stroke-width: 0.8; stroke-linecap: square"/>
     </g>
     <g id="line2d_6">
      <g>
       <use xlink:href="#me9e92530c8" x="68.203247" y="113.755124" style="fill: #555555; stroke: #555555; stroke-width: 0.8"/>
      </g>
     </g>
     <g id="text_3">
      <!-- 0.0464158883 -->
      <g style="fill: #555555" transform="translate(47.522152 124.554343) rotate(-300) scale(0.1 -0.1)">
       <defs>
        <path id="DejaVuSans-38" d="M 2034 2216 
Q 1584 2216 1326 1975 
Q 1069 1734 1069 1313 
Q 1069 891 1326 650 
Q 1584 409 2034 409 
Q 2484 409 2743 651 
Q 3003 894 3003 1313 
Q 3003 1734 2745 1975 
Q 2488 2216 2034 2216 
z
M 1403 2484 
Q 997 2584 770 2862 
Q 544 3141 544 3541 
Q 544 4100 942 4425 
Q 1341 4750 2034 4750 
Q 2731 4750 3128 4425 
Q 3525 4100 3525 3541 
Q 3525 3141 3298 2862 
Q 3072 2584 2669 2484 
Q 3125 2378 3379 2068 
Q 3634 1759 3634 1313 
Q 3634 634 3220 271 
Q 2806 -91 2034 -91 
Q 1263 -91 848 271 
Q 434 634 434 1313 
Q 434 1759 690 2068 
Q 947 2378 1403 2484 
z
M 1172 3481 
Q 1172 3119 1398 2916 
Q 1625 2713 2034 2713 
Q 2441 2713 2670 2916 
Q 2900 3119 2900 3481 
Q 2900 3844 2670 4047 
Q 2441 4250 2034 4250 
Q 1625 4250 1398 4047 
Q 1172 3844 1172 3481 
z
" transform="scale(0.015625)"/>
       </defs>
       <use xlink:href="#DejaVuSans-30"/>
       <use xlink:href="#DejaVuSans-2e" transform="translate(63.623047 0)"/>
       <use xlink:href="#DejaVuSans-30" transform="translate(95.410156 0)"/>
       <use xlink:href="#DejaVuSans-34" transform="translate(159.033203 0)"/>
       <use xlink:href="#DejaVuSans-36" transform="translate(222.65625 0)"/>
       <use xlink:href="#DejaVuSans-34" transform="translate(286.279297 0)"/>
       <use xlink:href="#DejaVuSans-31" transform="translate(349.902344 0)"/>
       <use xlink:href="#DejaVuSans-35" transform="translate(413.525391 0)"/>
       <use xlink:href="#DejaVuSans-38" transform="translate(477.148438 0)"/>
       <use xlink:href="#DejaVuSans-38" transform="translate(540.771484 0)"/>
       <use xlink:href="#DejaVuSans-38" transform="translate(604.394531 0)"/>
       <use xlink:href="#DejaVuSans-33" transform="translate(668.017578 0)"/>
      </g>
     </g>
    </g>
    <g id="xtick_4">
     <g id="line2d_7">
      <path d="M 77.197796 113.755124 
L 77.197796 10.999219 
" clip-path="url(#p506a7262c6)" style="fill: none; stroke: #ffffff; stroke-width: 0.8; stroke-linecap: square"/>
     </g>
     <g id="line2d_8">
      <g>
       <use xlink:href="#me9e92530c8" x="77.197796" y="113.755124" style="fill: #555555; stroke: #555555; stroke-width: 0.8"/>
      </g>
     </g>
     <g id="text_4">
      <!-- 0.1 -->
      <g style="fill: #555555" transform="translate(70.832326 124.554343) rotate(-300) scale(0.1 -0.1)">
       <use xlink:href="#DejaVuSans-30"/>
       <use xlink:href="#DejaVuSans-2e" transform="translate(63.623047 0)"/>
       <use xlink:href="#DejaVuSans-31" transform="translate(95.410156 0)"/>
      </g>
     </g>
    </g>
    <g id="xtick_5">
     <g id="line2d_9">
      <path d="M 86.192344 113.755124 
L 86.192344 10.999219 
" clip-path="url(#p506a7262c6)" style="fill: none; stroke: #ffffff; stroke-width: 0.8; stroke-linecap: square"/>
     </g>
     <g id="line2d_10">
      <g>
       <use xlink:href="#me9e92530c8" x="86.192344" y="113.755124" style="fill: #555555; stroke: #555555; stroke-width: 0.8"/>
      </g>
     </g>
     <g id="text_5">
      <!-- 0.21544346900000003 -->
      <g style="fill: #555555" transform="translate(54.376874 124.554343) rotate(-300) scale(0.1 -0.1)">
       <use xlink:href="#DejaVuSans-30"/>
       <use xlink:href="#DejaVuSans-2e" transform="translate(63.623047 0)"/>
       <use xlink:href="#DejaVuSans-32" transform="translate(95.410156 0)"/>
       <use xlink:href="#DejaVuSans-31" transform="translate(159.033203 0)"/>
       <use xlink:href="#DejaVuSans-35" transform="translate(222.65625 0)"/>
       <use xlink:href="#DejaVuSans-34" transform="translate(286.279297 0)"/>
       <use xlink:href="#DejaVuSans-34" transform="translate(349.902344 0)"/>
       <use xlink:href="#DejaVuSans-33" transform="translate(413.525391 0)"/>
       <use xlink:href="#DejaVuSans-34" transform="translate(477.148438 0)"/>
       <use xlink:href="#DejaVuSans-36" transform="translate(540.771484 0)"/>
       <use xlink:href="#DejaVuSans-39" transform="translate(604.394531 0)"/>
       <use xlink:href="#DejaVuSans-30" transform="translate(668.017578 0)"/>
       <use xlink:href="#DejaVuSans-30" transform="translate(731.640625 0)"/>
       <use xlink:href="#DejaVuSans-30" transform="translate(795.263672 0)"/>
       <use xlink:href="#DejaVuSans-30" transform="translate(858.886719 0)"/>
       <use xlink:href="#DejaVuSans-30" transform="translate(922.509766 0)"/>
       <use xlink:href="#DejaVuSans-30" transform="translate(986.132812 0)"/>
       <use xlink:href="#DejaVuSans-30" transform="translate(1049.755859 0)"/>
       <use xlink:href="#DejaVuSans-33" transform="translate(1113.378906 0)"/>
      </g>
     </g>
    </g>
    <g id="xtick_6">
     <g id="line2d_11">
      <path d="M 95.186893 113.755124 
L 95.186893 10.999219 
" clip-path="url(#p506a7262c6)" style="fill: none; stroke: #ffffff; stroke-width: 0.8; stroke-linecap: square"/>
     </g>
     <g id="line2d_12">
      <g>
       <use xlink:href="#me9e92530c8" x="95.186893" y="113.755124" style="fill: #555555; stroke: #555555; stroke-width: 0.8"/>
      </g>
     </g>
     <g id="text_6">
      <!-- 0.4641588834 -->
      <g style="fill: #555555" transform="translate(74.505798 124.554343) rotate(-300) scale(0.1 -0.1)">
       <use xlink:href="#DejaVuSans-30"/>
       <use xlink:href="#DejaVuSans-2e" transform="translate(63.623047 0)"/>
       <use xlink:href="#DejaVuSans-34" transform="translate(95.410156 0)"/>
       <use xlink:href="#DejaVuSans-36" transform="translate(159.033203 0)"/>
       <use xlink:href="#DejaVuSans-34" transform="translate(222.65625 0)"/>
       <use xlink:href="#DejaVuSans-31" transform="translate(286.279297 0)"/>
       <use xlink:href="#DejaVuSans-35" transform="translate(349.902344 0)"/>
       <use xlink:href="#DejaVuSans-38" transform="translate(413.525391 0)"/>
       <use xlink:href="#DejaVuSans-38" transform="translate(477.148438 0)"/>
       <use xlink:href="#DejaVuSans-38" transform="translate(540.771484 0)"/>
       <use xlink:href="#DejaVuSans-33" transform="translate(604.394531 0)"/>
       <use xlink:href="#DejaVuSans-34" transform="translate(668.017578 0)"/>
      </g>
     </g>
    </g>
    <g id="xtick_7">
     <g id="line2d_13">
      <path d="M 104.181442 113.755124 
L 104.181442 10.999219 
" clip-path="url(#p506a7262c6)" style="fill: none; stroke: #ffffff; stroke-width: 0.8; stroke-linecap: square"/>
     </g>
     <g id="line2d_14">
      <g>
       <use xlink:href="#me9e92530c8" x="104.181442" y="113.755124" style="fill: #555555; stroke: #555555; stroke-width: 0.8"/>
      </g>
     </g>
     <g id="text_7">
      <!-- 1.0 -->
      <g style="fill: #555555" transform="translate(97.815972 124.554343) rotate(-300) scale(0.1 -0.1)">
       <use xlink:href="#DejaVuSans-31"/>
       <use xlink:href="#DejaVuSans-2e" transform="translate(63.623047 0)"/>
       <use xlink:href="#DejaVuSans-30" transform="translate(95.410156 0)"/>
      </g>
     </g>
    </g>
    <g id="xtick_8">
     <g id="line2d_15">
      <path d="M 113.175991 113.755124 
L 113.175991 10.999219 
" clip-path="url(#p506a7262c6)" style="fill: none; stroke: #ffffff; stroke-width: 0.8; stroke-linecap: square"/>
     </g>
     <g id="line2d_16">
      <g>
       <use xlink:href="#me9e92530c8" x="113.175991" y="113.755124" style="fill: #555555; stroke: #555555; stroke-width: 0.8"/>
      </g>
     </g>
     <g id="text_8">
      <!-- 2.15443469 -->
      <g style="fill: #555555" transform="translate(95.676146 124.554343) rotate(-300) scale(0.1 -0.1)">
       <use xlink:href="#DejaVuSans-32"/>
       <use xlink:href="#DejaVuSans-2e" transform="translate(63.623047 0)"/>
       <use xlink:href="#DejaVuSans-31" transform="translate(95.410156 0)"/>
       <use xlink:href="#DejaVuSans-35" transform="translate(159.033203 0)"/>
       <use xlink:href="#DejaVuSans-34" transform="translate(222.65625 0)"/>
       <use xlink:href="#DejaVuSans-34" transform="translate(286.279297 0)"/>
       <use xlink:href="#DejaVuSans-33" transform="translate(349.902344 0)"/>
       <use xlink:href="#DejaVuSans-34" transform="translate(413.525391 0)"/>
       <use xlink:href="#DejaVuSans-36" transform="translate(477.148438 0)"/>
       <use xlink:href="#DejaVuSans-39" transform="translate(540.771484 0)"/>
      </g>
     </g>
    </g>
    <g id="xtick_9">
     <g id="line2d_17">
      <path d="M 122.170539 113.755124 
L 122.170539 10.999219 
" clip-path="url(#p506a7262c6)" style="fill: none; stroke: #ffffff; stroke-width: 0.8; stroke-linecap: square"/>
     </g>
     <g id="line2d_18">
      <g>
       <use xlink:href="#me9e92530c8" x="122.170539" y="113.755124" style="fill: #555555; stroke: #555555; stroke-width: 0.8"/>
      </g>
     </g>
     <g id="text_9">
      <!-- 4.6415888336 -->
      <g style="fill: #555555" transform="translate(101.489444 124.554343) rotate(-300) scale(0.1 -0.1)">
       <use xlink:href="#DejaVuSans-34"/>
       <use xlink:href="#DejaVuSans-2e" transform="translate(63.623047 0)"/>
       <use xlink:href="#DejaVuSans-36" transform="translate(95.410156 0)"/>
       <use xlink:href="#DejaVuSans-34" transform="translate(159.033203 0)"/>
       <use xlink:href="#DejaVuSans-31" transform="translate(222.65625 0)"/>
       <use xlink:href="#DejaVuSans-35" transform="translate(286.279297 0)"/>
       <use xlink:href="#DejaVuSans-38" transform="translate(349.902344 0)"/>
       <use xlink:href="#DejaVuSans-38" transform="translate(413.525391 0)"/>
       <use xlink:href="#DejaVuSans-38" transform="translate(477.148438 0)"/>
       <use xlink:href="#DejaVuSans-33" transform="translate(540.771484 0)"/>
       <use xlink:href="#DejaVuSans-33" transform="translate(604.394531 0)"/>
       <use xlink:href="#DejaVuSans-36" transform="translate(668.017578 0)"/>
      </g>
     </g>
    </g>
    <g id="xtick_10">
     <g id="line2d_19">
      <path d="M 131.165088 113.755124 
L 131.165088 10.999219 
" clip-path="url(#p506a7262c6)" style="fill: none; stroke: #ffffff; stroke-width: 0.8; stroke-linecap: square"/>
     </g>
     <g id="line2d_20">
      <g>
       <use xlink:href="#me9e92530c8" x="131.165088" y="113.755124" style="fill: #555555; stroke: #555555; stroke-width: 0.8"/>
      </g>
     </g>
     <g id="text_10">
      <!-- 10.0 -->
      <g style="fill: #555555" transform="translate(123.208993 124.554343) rotate(-300) scale(0.1 -0.1)">
       <use xlink:href="#DejaVuSans-31"/>
       <use xlink:href="#DejaVuSans-30" transform="translate(63.623047 0)"/>
       <use xlink:href="#DejaVuSans-2e" transform="translate(127.246094 0)"/>
       <use xlink:href="#DejaVuSans-30" transform="translate(159.033203 0)"/>
      </g>
     </g>
    </g>
    <g id="xtick_11">
     <g id="line2d_21">
      <path d="M 140.159637 113.755124 
L 140.159637 10.999219 
" clip-path="url(#p506a7262c6)" style="fill: none; stroke: #ffffff; stroke-width: 0.8; stroke-linecap: square"/>
     </g>
     <g id="line2d_22">
      <g>
       <use xlink:href="#me9e92530c8" x="140.159637" y="113.755124" style="fill: #555555; stroke: #555555; stroke-width: 0.8"/>
      </g>
     </g>
     <g id="text_11">
      <!-- 21.5443469003 -->
      <g style="fill: #555555" transform="translate(117.887917 124.554343) rotate(-300) scale(0.1 -0.1)">
       <use xlink:href="#DejaVuSans-32"/>
       <use xlink:href="#DejaVuSans-31" transform="translate(63.623047 0)"/>
       <use xlink:href="#DejaVuSans-2e" transform="translate(127.246094 0)"/>
       <use xlink:href="#DejaVuSans-35" transform="translate(159.033203 0)"/>
       <use xlink:href="#DejaVuSans-34" transform="translate(222.65625 0)"/>
       <use xlink:href="#DejaVuSans-34" transform="translate(286.279297 0)"/>
       <use xlink:href="#DejaVuSans-33" transform="translate(349.902344 0)"/>
       <use xlink:href="#DejaVuSans-34" transform="translate(413.525391 0)"/>
       <use xlink:href="#DejaVuSans-36" transform="translate(477.148438 0)"/>
       <use xlink:href="#DejaVuSans-39" transform="translate(540.771484 0)"/>
       <use xlink:href="#DejaVuSans-30" transform="translate(604.394531 0)"/>
       <use xlink:href="#DejaVuSans-30" transform="translate(668.017578 0)"/>
       <use xlink:href="#DejaVuSans-33" transform="translate(731.640625 0)"/>
      </g>
     </g>
    </g>
    <g id="xtick_12">
     <g id="line2d_23">
      <path d="M 149.154186 113.755124 
L 149.154186 10.999219 
" clip-path="url(#p506a7262c6)" style="fill: none; stroke: #ffffff; stroke-width: 0.8; stroke-linecap: square"/>
     </g>
     <g id="line2d_24">
      <g>
       <use xlink:href="#me9e92530c8" x="149.154186" y="113.755124" style="fill: #555555; stroke: #555555; stroke-width: 0.8"/>
      </g>
     </g>
     <g id="text_12">
      <!-- 46.4158883361 -->
      <g style="fill: #555555" transform="translate(126.882466 124.554343) rotate(-300) scale(0.1 -0.1)">
       <use xlink:href="#DejaVuSans-34"/>
       <use xlink:href="#DejaVuSans-36" transform="translate(63.623047 0)"/>
       <use xlink:href="#DejaVuSans-2e" transform="translate(127.246094 0)"/>
       <use xlink:href="#DejaVuSans-34" transform="translate(159.033203 0)"/>
       <use xlink:href="#DejaVuSans-31" transform="translate(222.65625 0)"/>
       <use xlink:href="#DejaVuSans-35" transform="translate(286.279297 0)"/>
       <use xlink:href="#DejaVuSans-38" transform="translate(349.902344 0)"/>
       <use xlink:href="#DejaVuSans-38" transform="translate(413.525391 0)"/>
       <use xlink:href="#DejaVuSans-38" transform="translate(477.148438 0)"/>
       <use xlink:href="#DejaVuSans-33" transform="translate(540.771484 0)"/>
       <use xlink:href="#DejaVuSans-33" transform="translate(604.394531 0)"/>
       <use xlink:href="#DejaVuSans-36" transform="translate(668.017578 0)"/>
       <use xlink:href="#DejaVuSans-31" transform="translate(731.640625 0)"/>
      </g>
     </g>
    </g>
    <g id="xtick_13">
     <g id="line2d_25">
      <path d="M 158.148734 113.755124 
L 158.148734 10.999219 
" clip-path="url(#p506a7262c6)" style="fill: none; stroke: #ffffff; stroke-width: 0.8; stroke-linecap: square"/>
     </g>
     <g id="line2d_26">
      <g>
       <use xlink:href="#me9e92530c8" x="158.148734" y="113.755124" style="fill: #555555; stroke: #555555; stroke-width: 0.8"/>
      </g>
     </g>
     <g id="text_13">
      <!-- 100.0 -->
      <g style="fill: #555555" transform="translate(148.602014 124.554343) rotate(-300) scale(0.1 -0.1)">
       <use xlink:href="#DejaVuSans-31"/>
       <use xlink:href="#DejaVuSans-30" transform="translate(63.623047 0)"/>
       <use xlink:href="#DejaVuSans-30" transform="translate(127.246094 0)"/>
       <use xlink:href="#DejaVuSans-2e" transform="translate(190.869141 0)"/>
       <use xlink:href="#DejaVuSans-30" transform="translate(222.65625 0)"/>
      </g>
     </g>
    </g>
    <g id="text_14">
     <!-- Initial state standard deviation -->
     <g style="fill: #555555" transform="translate(12.157379 240.646208) scale(0.12 -0.12)">
      <defs>
       <path id="DejaVuSans-49" d="M 628 4666 
L 1259 4666 
L 1259 0 
L 628 0 
L 628 4666 
z
" transform="scale(0.015625)"/>
       <path id="DejaVuSans-6e" d="M 3513 2113 
L 3513 0 
L 2938 0 
L 2938 2094 
Q 2938 2591 2744 2837 
Q 2550 3084 2163 3084 
Q 1697 3084 1428 2787 
Q 1159 2491 1159 1978 
L 1159 0 
L 581 0 
L 581 3500 
L 1159 3500 
L 1159 2956 
Q 1366 3272 1645 3428 
Q 1925 3584 2291 3584 
Q 2894 3584 3203 3211 
Q 3513 2838 3513 2113 
z
" transform="scale(0.015625)"/>
       <path id="DejaVuSans-69" d="M 603 3500 
L 1178 3500 
L 1178 0 
L 603 0 
L 603 3500 
z
M 603 4863 
L 1178 4863 
L 1178 4134 
L 603 4134 
L 603 4863 
z
" transform="scale(0.015625)"/>
       <path id="DejaVuSans-74" d="M 1172 4494 
L 1172 3500 
L 2356 3500 
L 2356 3053 
L 1172 3053 
L 1172 1153 
Q 1172 725 1289 603 
Q 1406 481 1766 481 
L 2356 481 
L 2356 0 
L 1766 0 
Q 1100 0 847 248 
Q 594 497 594 1153 
L 594 3053 
L 172 3053 
L 172 3500 
L 594 3500 
L 594 4494 
L 1172 4494 
z
" transform="scale(0.015625)"/>
       <path id="DejaVuSans-61" d="M 2194 1759 
Q 1497 1759 1228 1600 
Q 959 1441 959 1056 
Q 959 750 1161 570 
Q 1363 391 1709 391 
Q 2188 391 2477 730 
Q 2766 1069 2766 1631 
L 2766 1759 
L 2194 1759 
z
M 3341 1997 
L 3341 0 
L 2766 0 
L 2766 531 
Q 2569 213 2275 61 
Q 1981 -91 1556 -91 
Q 1019 -91 701 211 
Q 384 513 384 1019 
Q 384 1609 779 1909 
Q 1175 2209 1959 2209 
L 2766 2209 
L 2766 2266 
Q 2766 2663 2505 2880 
Q 2244 3097 1772 3097 
Q 1472 3097 1187 3025 
Q 903 2953 641 2809 
L 641 3341 
Q 956 3463 1253 3523 
Q 1550 3584 1831 3584 
Q 2591 3584 2966 3190 
Q 3341 2797 3341 1997 
z
" transform="scale(0.015625)"/>
       <path id="DejaVuSans-6c" d="M 603 4863 
L 1178 4863 
L 1178 0 
L 603 0 
L 603 4863 
z
" transform="scale(0.015625)"/>
       <path id="DejaVuSans-20" transform="scale(0.015625)"/>
       <path id="DejaVuSans-73" d="M 2834 3397 
L 2834 2853 
Q 2591 2978 2328 3040 
Q 2066 3103 1784 3103 
Q 1356 3103 1142 2972 
Q 928 2841 928 2578 
Q 928 2378 1081 2264 
Q 1234 2150 1697 2047 
L 1894 2003 
Q 2506 1872 2764 1633 
Q 3022 1394 3022 966 
Q 3022 478 2636 193 
Q 2250 -91 1575 -91 
Q 1294 -91 989 -36 
Q 684 19 347 128 
L 347 722 
Q 666 556 975 473 
Q 1284 391 1588 391 
Q 1994 391 2212 530 
Q 2431 669 2431 922 
Q 2431 1156 2273 1281 
Q 2116 1406 1581 1522 
L 1381 1569 
Q 847 1681 609 1914 
Q 372 2147 372 2553 
Q 372 3047 722 3315 
Q 1072 3584 1716 3584 
Q 2034 3584 2315 3537 
Q 2597 3491 2834 3397 
z
" transform="scale(0.015625)"/>
       <path id="DejaVuSans-65" d="M 3597 1894 
L 3597 1613 
L 953 1613 
Q 991 1019 1311 708 
Q 1631 397 2203 397 
Q 2534 397 2845 478 
Q 3156 559 3463 722 
L 3463 178 
Q 3153 47 2828 -22 
Q 2503 -91 2169 -91 
Q 1331 -91 842 396 
Q 353 884 353 1716 
Q 353 2575 817 3079 
Q 1281 3584 2069 3584 
Q 2775 3584 3186 3129 
Q 3597 2675 3597 1894 
z
M 3022 2063 
Q 3016 2534 2758 2815 
Q 2500 3097 2075 3097 
Q 1594 3097 1305 2825 
Q 1016 2553 972 2059 
L 3022 2063 
z
" transform="scale(0.015625)"/>
       <path id="DejaVuSans-64" d="M 2906 2969 
L 2906 4863 
L 3481 4863 
L 3481 0 
L 2906 0 
L 2906 525 
Q 2725 213 2448 61 
Q 2172 -91 1784 -91 
Q 1150 -91 751 415 
Q 353 922 353 1747 
Q 353 2572 751 3078 
Q 1150 3584 1784 3584 
Q 2172 3584 2448 3432 
Q 2725 3281 2906 2969 
z
M 947 1747 
Q 947 1113 1208 752 
Q 1469 391 1925 391 
Q 2381 391 2643 752 
Q 2906 1113 2906 1747 
Q 2906 2381 2643 2742 
Q 2381 3103 1925 3103 
Q 1469 3103 1208 2742 
Q 947 2381 947 1747 
z
" transform="scale(0.015625)"/>
       <path id="DejaVuSans-72" d="M 2631 2963 
Q 2534 3019 2420 3045 
Q 2306 3072 2169 3072 
Q 1681 3072 1420 2755 
Q 1159 2438 1159 1844 
L 1159 0 
L 581 0 
L 581 3500 
L 1159 3500 
L 1159 2956 
Q 1341 3275 1631 3429 
Q 1922 3584 2338 3584 
Q 2397 3584 2469 3576 
Q 2541 3569 2628 3553 
L 2631 2963 
z
" transform="scale(0.015625)"/>
       <path id="DejaVuSans-76" d="M 191 3500 
L 800 3500 
L 1894 563 
L 2988 3500 
L 3597 3500 
L 2284 0 
L 1503 0 
L 191 3500 
z
" transform="scale(0.015625)"/>
       <path id="DejaVuSans-6f" d="M 1959 3097 
Q 1497 3097 1228 2736 
Q 959 2375 959 1747 
Q 959 1119 1226 758 
Q 1494 397 1959 397 
Q 2419 397 2687 759 
Q 2956 1122 2956 1747 
Q 2956 2369 2687 2733 
Q 2419 3097 1959 3097 
z
M 1959 3584 
Q 2709 3584 3137 3096 
Q 3566 2609 3566 1747 
Q 3566 888 3137 398 
Q 2709 -91 1959 -91 
Q 1206 -91 779 398 
Q 353 888 353 1747 
Q 353 2609 779 3096 
Q 1206 3584 1959 3584 
z
" transform="scale(0.015625)"/>
      </defs>
      <use xlink:href="#DejaVuSans-49"/>
      <use xlink:href="#DejaVuSans-6e" transform="translate(29.492188 0)"/>
      <use xlink:href="#DejaVuSans-69" transform="translate(92.871094 0)"/>
      <use xlink:href="#DejaVuSans-74" transform="translate(120.654297 0)"/>
      <use xlink:href="#DejaVuSans-69" transform="translate(159.863281 0)"/>
      <use xlink:href="#DejaVuSans-61" transform="translate(187.646484 0)"/>
      <use xlink:href="#DejaVuSans-6c" transform="translate(248.925781 0)"/>
      <use xlink:href="#DejaVuSans-20" transform="translate(276.708984 0)"/>
      <use xlink:href="#DejaVuSans-73" transform="translate(308.496094 0)"/>
      <use xlink:href="#DejaVuSans-74" transform="translate(360.595703 0)"/>
      <use xlink:href="#DejaVuSans-61" transform="translate(399.804688 0)"/>
      <use xlink:href="#DejaVuSans-74" transform="translate(461.083984 0)"/>
      <use xlink:href="#DejaVuSans-65" transform="translate(500.292969 0)"/>
      <use xlink:href="#DejaVuSans-20" transform="translate(561.816406 0)"/>
      <use xlink:href="#DejaVuSans-73" transform="translate(593.603516 0)"/>
      <use xlink:href="#DejaVuSans-74" transform="translate(645.703125 0)"/>
      <use xlink:href="#DejaVuSans-61" transform="translate(684.912109 0)"/>
      <use xlink:href="#DejaVuSans-6e" transform="translate(746.191406 0)"/>
      <use xlink:href="#DejaVuSans-64" transform="translate(809.570312 0)"/>
      <use xlink:href="#DejaVuSans-61" transform="translate(873.046875 0)"/>
      <use xlink:href="#DejaVuSans-72" transform="translate(934.326172 0)"/>
      <use xlink:href="#DejaVuSans-64" transform="translate(973.689453 0)"/>
      <use xlink:href="#DejaVuSans-20" transform="translate(1037.166016 0)"/>
      <use xlink:href="#DejaVuSans-64" transform="translate(1068.953125 0)"/>
      <use xlink:href="#DejaVuSans-65" transform="translate(1132.429688 0)"/>
      <use xlink:href="#DejaVuSans-76" transform="translate(1193.953125 0)"/>
      <use xlink:href="#DejaVuSans-69" transform="translate(1253.132812 0)"/>
      <use xlink:href="#DejaVuSans-61" transform="translate(1280.916016 0)"/>
      <use xlink:href="#DejaVuSans-74" transform="translate(1342.195312 0)"/>
      <use xlink:href="#DejaVuSans-69" transform="translate(1381.404297 0)"/>
      <use xlink:href="#DejaVuSans-6f" transform="translate(1409.1875 0)"/>
      <use xlink:href="#DejaVuSans-6e" transform="translate(1470.369141 0)"/>
     </g>
    </g>
   </g>
   <g id="matplotlib.axis_2">
    <g id="ytick_1">
     <g id="line2d_27">
      <path d="M 45.716875 113.755124 
L 162.646009 113.755124 
" clip-path="url(#p506a7262c6)" style="fill: none; stroke: #ffffff; stroke-width: 0.8; stroke-linecap: square"/>
     </g>
     <g id="line2d_28">
      <defs>
       <path id="me79e1f2140" d="M 0 0 
L -3.5 0 
" style="stroke: #555555; stroke-width: 0.8"/>
      </defs>
      <g>
       <use xlink:href="#me79e1f2140" x="45.716875" y="113.755124" style="fill: #555555; stroke: #555555; stroke-width: 0.8"/>
      </g>
     </g>
     <g id="text_15">
      <!-- 0.0 -->
      <g style="fill: #555555" transform="translate(22.81375 117.554343) scale(0.1 -0.1)">
       <use xlink:href="#DejaVuSans-30"/>
       <use xlink:href="#DejaVuSans-2e" transform="translate(63.623047 0)"/>
       <use xlink:href="#DejaVuSans-30" transform="translate(95.410156 0)"/>
      </g>
     </g>
    </g>
    <g id="ytick_2">
     <g id="line2d_29">
      <path d="M 45.716875 93.203943 
L 162.646009 93.203943 
" clip-path="url(#p506a7262c6)" style="fill: none; stroke: #ffffff; stroke-width: 0.8; stroke-linecap: square"/>
     </g>
     <g id="line2d_30">
      <g>
       <use xlink:href="#me79e1f2140" x="45.716875" y="93.203943" style="fill: #555555; stroke: #555555; stroke-width: 0.8"/>
      </g>
     </g>
     <g id="text_16">
      <!-- 0.2 -->
      <g style="fill: #555555" transform="translate(22.81375 97.003162) scale(0.1 -0.1)">
       <use xlink:href="#DejaVuSans-30"/>
       <use xlink:href="#DejaVuSans-2e" transform="translate(63.623047 0)"/>
       <use xlink:href="#DejaVuSans-32" transform="translate(95.410156 0)"/>
      </g>
     </g>
    </g>
    <g id="ytick_3">
     <g id="line2d_31">
      <path d="M 45.716875 72.652762 
L 162.646009 72.652762 
" clip-path="url(#p506a7262c6)" style="fill: none; stroke: #ffffff; stroke-width: 0.8; stroke-linecap: square"/>
     </g>
     <g id="line2d_32">
      <g>
       <use xlink:href="#me79e1f2140" x="45.716875" y="72.652762" style="fill: #555555; stroke: #555555; stroke-width: 0.8"/>
      </g>
     </g>
     <g id="text_17">
      <!-- 0.4 -->
      <g style="fill: #555555" transform="translate(22.81375 76.451981) scale(0.1 -0.1)">
       <use xlink:href="#DejaVuSans-30"/>
       <use xlink:href="#DejaVuSans-2e" transform="translate(63.623047 0)"/>
       <use xlink:href="#DejaVuSans-34" transform="translate(95.410156 0)"/>
      </g>
     </g>
    </g>
    <g id="ytick_4">
     <g id="line2d_33">
      <path d="M 45.716875 52.101581 
L 162.646009 52.101581 
" clip-path="url(#p506a7262c6)" style="fill: none; stroke: #ffffff; stroke-width: 0.8; stroke-linecap: square"/>
     </g>
     <g id="line2d_34">
      <g>
       <use xlink:href="#me79e1f2140" x="45.716875" y="52.101581" style="fill: #555555; stroke: #555555; stroke-width: 0.8"/>
      </g>
     </g>
     <g id="text_18">
      <!-- 0.6 -->
      <g style="fill: #555555" transform="translate(22.81375 55.9008) scale(0.1 -0.1)">
       <use xlink:href="#DejaVuSans-30"/>
       <use xlink:href="#DejaVuSans-2e" transform="translate(63.623047 0)"/>
       <use xlink:href="#DejaVuSans-36" transform="translate(95.410156 0)"/>
      </g>
     </g>
    </g>
    <g id="ytick_5">
     <g id="line2d_35">
      <path d="M 45.716875 31.5504 
L 162.646009 31.5504 
" clip-path="url(#p506a7262c6)" style="fill: none; stroke: #ffffff; stroke-width: 0.8; stroke-linecap: square"/>
     </g>
     <g id="line2d_36">
      <g>
       <use xlink:href="#me79e1f2140" x="45.716875" y="31.5504" style="fill: #555555; stroke: #555555; stroke-width: 0.8"/>
      </g>
     </g>
     <g id="text_19">
      <!-- 0.8 -->
      <g style="fill: #555555" transform="translate(22.81375 35.349619) scale(0.1 -0.1)">
       <use xlink:href="#DejaVuSans-30"/>
       <use xlink:href="#DejaVuSans-2e" transform="translate(63.623047 0)"/>
       <use xlink:href="#DejaVuSans-38" transform="translate(95.410156 0)"/>
      </g>
     </g>
    </g>
    <g id="ytick_6">
     <g id="line2d_37">
      <path d="M 45.716875 10.999219 
L 162.646009 10.999219 
" clip-path="url(#p506a7262c6)" style="fill: none; stroke: #ffffff; stroke-width: 0.8; stroke-linecap: square"/>
     </g>
     <g id="line2d_38">
      <g>
       <use xlink:href="#me79e1f2140" x="45.716875" y="10.999219" style="fill: #555555; stroke: #555555; stroke-width: 0.8"/>
      </g>
     </g>
     <g id="text_20">
      <!-- 1.0 -->
      <g style="fill: #555555" transform="translate(22.81375 14.798438) scale(0.1 -0.1)">
       <use xlink:href="#DejaVuSans-31"/>
       <use xlink:href="#DejaVuSans-2e" transform="translate(63.623047 0)"/>
       <use xlink:href="#DejaVuSans-30" transform="translate(95.410156 0)"/>
      </g>
     </g>
    </g>
    <g id="text_21">
     <!-- Loss -->
     <g style="fill: #555555" transform="translate(16.318125 75.537797) rotate(-90) scale(0.12 -0.12)">
      <defs>
       <path id="DejaVuSans-4c" d="M 628 4666 
L 1259 4666 
L 1259 531 
L 3531 531 
L 3531 0 
L 628 0 
L 628 4666 
z
" transform="scale(0.015625)"/>
      </defs>
      <use xlink:href="#DejaVuSans-4c"/>
      <use xlink:href="#DejaVuSans-6f" transform="translate(53.962891 0)"/>
      <use xlink:href="#DejaVuSans-73" transform="translate(115.144531 0)"/>
      <use xlink:href="#DejaVuSans-73" transform="translate(167.244141 0)"/>
     </g>
    </g>
   </g>
   <g id="patch_3">
    <path d="M 47.965512 113.755124 
L 52.462787 113.755124 
L 52.462787 102.473793 
L 47.965512 102.473793 
z
" clip-path="url(#p506a7262c6)" style="fill: #e24a33; opacity: 0.5"/>
   </g>
   <g id="patch_4">
    <path d="M 56.960061 113.755124 
L 61.457335 113.755124 
L 61.457335 106.552694 
L 56.960061 106.552694 
z
" clip-path="url(#p506a7262c6)" style="fill: #e24a33; opacity: 0.5"/>
   </g>
   <g id="patch_5">
    <path d="M 65.95461 113.755124 
L 70.451884 113.755124 
L 70.451884 96.463247 
L 65.95461 96.463247 
z
" clip-path="url(#p506a7262c6)" style="fill: #e24a33; opacity: 0.5"/>
   </g>
   <g id="patch_6">
    <path d="M 74.949158 113.755124 
L 79.446433 113.755124 
L 79.446433 97.714556 
L 74.949158 97.714556 
z
" clip-path="url(#p506a7262c6)" style="fill: #e24a33; opacity: 0.5"/>
   </g>
   <g id="patch_7">
    <path d="M 83.943707 113.755124 
L 88.440982 113.755124 
L 88.440982 97.321349 
L 83.943707 97.321349 
z
" clip-path="url(#p506a7262c6)" style="fill: #e24a33; opacity: 0.5"/>
   </g>
   <g id="patch_8">
    <path d="M 92.938256 113.755124 
L 97.43553 113.755124 
L 97.43553 87.143586 
L 92.938256 87.143586 
z
" clip-path="url(#p506a7262c6)" style="fill: #e24a33; opacity: 0.5"/>
   </g>
   <g id="patch_9">
    <path d="M 101.932805 113.755124 
L 106.430079 113.755124 
L 106.430079 100.244324 
L 101.932805 100.244324 
z
" clip-path="url(#p506a7262c6)" style="fill: #e24a33; opacity: 0.5"/>
   </g>
   <g id="patch_10">
    <path d="M 110.927353 113.755124 
L 115.424628 113.755124 
L 115.424628 105.118203 
L 110.927353 105.118203 
z
" clip-path="url(#p506a7262c6)" style="fill: #e24a33; opacity: 0.5"/>
   </g>
   <g id="patch_11">
    <path d="M 119.921902 113.755124 
L 124.419177 113.755124 
L 124.419177 95.061575 
L 119.921902 95.061575 
z
" clip-path="url(#p506a7262c6)" style="fill: #e24a33; opacity: 0.5"/>
   </g>
   <g id="patch_12">
    <path d="M 128.916451 113.755124 
L 133.413725 113.755124 
L 133.413725 104.282134 
L 128.916451 104.282134 
z
" clip-path="url(#p506a7262c6)" style="fill: #e24a33; opacity: 0.5"/>
   </g>
   <g id="patch_13">
    <path d="M 137.911 113.755124 
L 142.408274 113.755124 
L 142.408274 99.046881 
L 137.911 99.046881 
z
" clip-path="url(#p506a7262c6)" style="fill: #e24a33; opacity: 0.5"/>
   </g>
   <g id="patch_14">
    <path d="M 146.905549 113.755124 
L 151.402823 113.755124 
L 151.402823 102.574039 
L 146.905549 102.574039 
z
" clip-path="url(#p506a7262c6)" style="fill: #e24a33; opacity: 0.5"/>
   </g>
   <g id="patch_15">
    <path d="M 155.900097 113.755124 
L 160.397372 113.755124 
L 160.397372 108.771055 
L 155.900097 108.771055 
z
" clip-path="url(#p506a7262c6)" style="fill: #e24a33; opacity: 0.5"/>
   </g>
   <g id="LineCollection_1">
    <path d="M 50.214149 118.422357 
L 50.214149 86.525228 
" clip-path="url(#p506a7262c6)" style="fill: none; stroke: #555555; stroke-width: 1.5"/>
    <path d="M 59.208698 116.738469 
L 59.208698 96.366919 
" clip-path="url(#p506a7262c6)" style="fill: none; stroke: #555555; stroke-width: 1.5"/>
    <path d="M 68.203247 120.917655 
L 68.203247 72.008839 
" clip-path="url(#p506a7262c6)" style="fill: none; stroke: #555555; stroke-width: 1.5"/>
    <path d="M 77.197796 107.939482 
L 77.197796 87.489631 
" clip-path="url(#p506a7262c6)" style="fill: none; stroke: #555555; stroke-width: 1.5"/>
    <path d="M 86.192344 113.620621 
L 86.192344 81.022077 
" clip-path="url(#p506a7262c6)" style="fill: none; stroke: #555555; stroke-width: 1.5"/>
    <path d="M 95.186893 105.674201 
L 95.186893 68.612971 
" clip-path="url(#p506a7262c6)" style="fill: none; stroke: #555555; stroke-width: 1.5"/>
    <path d="M 104.181442 102.832792 
L 104.181442 97.655856 
" clip-path="url(#p506a7262c6)" style="fill: none; stroke: #555555; stroke-width: 1.5"/>
    <path d="M 113.175991 117.326972 
L 113.175991 92.909433 
" clip-path="url(#p506a7262c6)" style="fill: none; stroke: #555555; stroke-width: 1.5"/>
    <path d="M 122.170539 100.67693 
L 122.170539 89.446219 
" clip-path="url(#p506a7262c6)" style="fill: none; stroke: #555555; stroke-width: 1.5"/>
    <path d="M 131.165088 117.678965 
L 131.165088 90.885303 
" clip-path="url(#p506a7262c6)" style="fill: none; stroke: #555555; stroke-width: 1.5"/>
    <path d="M 140.159637 104.05281 
L 140.159637 94.040952 
" clip-path="url(#p506a7262c6)" style="fill: none; stroke: #555555; stroke-width: 1.5"/>
    <path d="M 149.154186 105.820426 
L 149.154186 99.327652 
" clip-path="url(#p506a7262c6)" style="fill: none; stroke: #555555; stroke-width: 1.5"/>
    <path d="M 158.148734 115.819593 
L 158.148734 101.722518 
" clip-path="url(#p506a7262c6)" style="fill: none; stroke: #555555; stroke-width: 1.5"/>
   </g>
   <g id="line2d_39">
    <defs>
     <path id="m70a98ccf41" d="M 4 0 
L -4 -0 
" style="stroke: #555555"/>
    </defs>
    <g clip-path="url(#p506a7262c6)">
     <use xlink:href="#m70a98ccf41" x="50.214149" y="118.422357" style="fill: #e24a33; stroke: #555555"/>
     <use xlink:href="#m70a98ccf41" x="59.208698" y="116.738469" style="fill: #e24a33; stroke: #555555"/>
     <use xlink:href="#m70a98ccf41" x="68.203247" y="120.917655" style="fill: #e24a33; stroke: #555555"/>
     <use xlink:href="#m70a98ccf41" x="77.197796" y="107.939482" style="fill: #e24a33; stroke: #555555"/>
     <use xlink:href="#m70a98ccf41" x="86.192344" y="113.620621" style="fill: #e24a33; stroke: #555555"/>
     <use xlink:href="#m70a98ccf41" x="95.186893" y="105.674201" style="fill: #e24a33; stroke: #555555"/>
     <use xlink:href="#m70a98ccf41" x="104.181442" y="102.832792" style="fill: #e24a33; stroke: #555555"/>
     <use xlink:href="#m70a98ccf41" x="113.175991" y="117.326972" style="fill: #e24a33; stroke: #555555"/>
     <use xlink:href="#m70a98ccf41" x="122.170539" y="100.67693" style="fill: #e24a33; stroke: #555555"/>
     <use xlink:href="#m70a98ccf41" x="131.165088" y="117.678965" style="fill: #e24a33; stroke: #555555"/>
     <use xlink:href="#m70a98ccf41" x="140.159637" y="104.05281" style="fill: #e24a33; stroke: #555555"/>
     <use xlink:href="#m70a98ccf41" x="149.154186" y="105.820426" style="fill: #e24a33; stroke: #555555"/>
     <use xlink:href="#m70a98ccf41" x="158.148734" y="115.819593" style="fill: #e24a33; stroke: #555555"/>
    </g>
   </g>
   <g id="line2d_40">
    <g clip-path="url(#p506a7262c6)">
     <use xlink:href="#m70a98ccf41" x="50.214149" y="86.525228" style="fill: #e24a33; stroke: #555555"/>
     <use xlink:href="#m70a98ccf41" x="59.208698" y="96.366919" style="fill: #e24a33; stroke: #555555"/>
     <use xlink:href="#m70a98ccf41" x="68.203247" y="72.008839" style="fill: #e24a33; stroke: #555555"/>
     <use xlink:href="#m70a98ccf41" x="77.197796" y="87.489631" style="fill: #e24a33; stroke: #555555"/>
     <use xlink:href="#m70a98ccf41" x="86.192344" y="81.022077" style="fill: #e24a33; stroke: #555555"/>
     <use xlink:href="#m70a98ccf41" x="95.186893" y="68.612971" style="fill: #e24a33; stroke: #555555"/>
     <use xlink:href="#m70a98ccf41" x="104.181442" y="97.655856" style="fill: #e24a33; stroke: #555555"/>
     <use xlink:href="#m70a98ccf41" x="113.175991" y="92.909433" style="fill: #e24a33; stroke: #555555"/>
     <use xlink:href="#m70a98ccf41" x="122.170539" y="89.446219" style="fill: #e24a33; stroke: #555555"/>
     <use xlink:href="#m70a98ccf41" x="131.165088" y="90.885303" style="fill: #e24a33; stroke: #555555"/>
     <use xlink:href="#m70a98ccf41" x="140.159637" y="94.040952" style="fill: #e24a33; stroke: #555555"/>
     <use xlink:href="#m70a98ccf41" x="149.154186" y="99.327652" style="fill: #e24a33; stroke: #555555"/>
     <use xlink:href="#m70a98ccf41" x="158.148734" y="101.722518" style="fill: #e24a33; stroke: #555555"/>
    </g>
   </g>
   <g id="patch_16">
    <path d="M 45.716875 113.755124 
L 45.716875 10.999219 
" style="fill: none; stroke: #ffffff; stroke-linejoin: miter; stroke-linecap: square"/>
   </g>
   <g id="patch_17">
    <path d="M 162.646009 113.755124 
L 162.646009 10.999219 
" style="fill: none; stroke: #ffffff; stroke-linejoin: miter; stroke-linecap: square"/>
   </g>
   <g id="patch_18">
    <path d="M 45.716875 113.755124 
L 162.646009 113.755124 
" style="fill: none; stroke: #ffffff; stroke-linejoin: miter; stroke-linecap: square"/>
   </g>
   <g id="patch_19">
    <path d="M 45.716875 10.999219 
L 162.646009 10.999219 
" style="fill: none; stroke: #ffffff; stroke-linejoin: miter; stroke-linecap: square"/>
   </g>
  </g>
 </g>
 <defs>
  <clipPath id="p506a7262c6">
   <rect x="45.716875" y="10.999219" width="116.929134" height="102.755906"/>
  </clipPath>
 </defs>
</svg>
